<svg xmlns="http://www.w3.org/2000/svg" viewBox="0 0 199 199"><g id="background"><rect x="3" y="3" width="193" height="193" rx="19.6" fill="#fff"/><path d="M176.4,6A16.62,16.62,0,0,1,193,22.6V176.4A16.62,16.62,0,0,1,176.4,193H22.6A16.62,16.62,0,0,1,6,176.4V22.6A16.62,16.62,0,0,1,22.6,6H176.4m0-6H22.6A22.6,22.6,0,0,0,0,22.6V176.4A22.6,22.6,0,0,0,22.6,199H176.4A22.6,22.6,0,0,0,199,176.4V22.6A22.6,22.6,0,0,0,176.4,0Z"/></g><g id="man"><g id="head"><circle cx="122" cy="54" r="25" fill="#fff"/><path d="M122,31A23,23,0,1,1,99,54a23,23,0,0,1,23-23m0-4a27,27,0,1,0,27,27,27,27,0,0,0-27-27Z"/></g><path d="M123.59,80.78q1,22.69.65,45.44c0,1.93,3,1.93,3,0q.33-22.73-.65-45.44c-.09-1.93-3.09-1.94-3,0Z"/><path d="M122.93,126.28a98.94,98.94,0,0,0-8.1,12.07c-2.34,4.06-4.71,8.18-6.69,12.42s-2.57,8.85-3.08,13.55q-.42,3.94-1,7.86c-.19,1.29-.4,2.58-.62,3.87-.1.63-.1,2-.76,2.34-1.71.89-.2,3.48,1.52,2.59s2-3.26,2.3-5.1c.42-2.55.78-5.1,1.11-7.67.62-4.89.7-10,2.55-14.64a65.5,65.5,0,0,1,3.27-6.48c1.16-2.15,2.32-4.3,3.53-6.43a96.89,96.89,0,0,1,8.09-12.26c1.2-1.5-.91-3.63-2.12-2.12Z"/><path d="M124.3,127.84l-.52,15.23-.25,7.37-.13,3.93a11.81,11.81,0,0,0,.15,3.41c.54,2.07,2.43,3.51,3.85,5s3,3.29,4.48,5a101.53,101.53,0,0,1,8.18,11.28c1,1.63,3.62.13,2.59-1.51a106.68,106.68,0,0,0-7.79-10.85q-2.13-2.61-4.42-5.07c-.71-.76-1.43-1.51-2.17-2.26a6,6,0,0,1-1.83-2.39,13.48,13.48,0,0,1,0-3.59l.12-3.44.25-7.37.5-14.74c.07-1.93-2.93-1.93-3,0Z"/><path d="M69,170c1.12,0,87-103,87-103" fill="none" stroke="#000" stroke-miterlimit="10"/><path d="M122.32,95.35c0-.53-.1-.61-.35-.24l-.67.52c-.44.34-.88.66-1.33,1-.89.64-1.81,1.26-2.72,1.87-1.84,1.22-3.7,2.4-5.49,3.68a33.37,33.37,0,0,0-8.83,8.74c-4.61,7.07-5.79,15.8-6.18,24-.09,1.93,2.91,1.92,3,0,.31-6.6,1.11-13.45,4-19.46a25.86,25.86,0,0,1,6.09-8.06,71.7,71.7,0,0,1,8.36-6c1.61-1.06,3.21-2.14,4.74-3.31,1.38-1.06,3-2.39,1.93-4.27-.92-1.7-3.51-.18-2.59,1.52Z"/><path d="M125.16,96.23a40,40,0,0,1,6.45,3.06,59.33,59.33,0,0,0,6.57,2.91,54.72,54.72,0,0,0,6.51,2c2,.47,4.87,1.46,6.87.63s2.67-3.3,2.5-5.27A11.53,11.53,0,0,0,151.74,94c-2.54-3.54-6.08-6.45-7.62-10.64-.66-1.8-3.56-1-2.89.8,1.34,3.65,3.86,6.5,6.35,9.42a16.83,16.83,0,0,1,3,4.47,5.11,5.11,0,0,1,.44,2.64,2.05,2.05,0,0,1-.53,1.26c-.42.31-1,.13-1.48.06a50.58,50.58,0,0,1-11.76-3.32c-3.86-1.58-7.34-4-11.33-5.3-1.85-.58-2.64,2.32-.8,2.89Z"/><path d="M71.57,166.65a7,7,0,0,1-2.08-9.43.76.76,0,0,0-.84-1.11,8.58,8.58,0,0,0-6.39,6.19l.52-.52A6.09,6.09,0,0,1,56,156.61a.76.76,0,0,0-1-.72c-5.73,1.46-6,8.13-5.37,12.88.07.55.83,1.11,1.28.53A8.42,8.42,0,0,1,57,166l-.38-1.4a8.58,8.58,0,0,0-1.79,12.21.76.76,0,0,0,1.28-.53,4.52,4.52,0,0,1,1.12-3.69l-1.26-.73c-.39,1.82.32,3.35,1.1,5,.62,1.28,1.62,3.63,0,4.65a.76.76,0,0,0,.18,1.37,36.33,36.33,0,0,0,5.4.64c1.42.06,3.44.34,4.72-.44,2.42-1.46,1.58-5.62.64-7.66-.38-.83-1.5-.2-1.37.58A10,10,0,0,0,71.92,183c1.33.7,7.25,2.57,7.27-.38,0-1.56-1.77-2.08-3-2.4-.65-.17-2.54-.61-2.2-1.67.27-.85,2.92-.32,3.48-.3,3.19.09,7.2-.81,7.91-4.48a.77.77,0,0,0-.73-1,20,20,0,0,1-8.44-1.42l.18,1.37,4.37-2.26a36,36,0,0,0,4.07-2.17c1.56-1.11,2.33-3.38,0-4.15a5.54,5.54,0,0,0-3.66.15c-1.25.49-2.16,1.58-3.48,1.91-2.49.64-5-.45-7.4.94a.75.75,0,0,0,.76,1.3c1.68-1,3.68-.48,5.54-.58a6.91,6.91,0,0,0,2.21-.45c1-.41,1.72-1.18,2.68-1.61.59-.28,3.89-.9,3.09.67-.41.82-1.88,1.28-2.64,1.67l-6.33,3.29c-.63.32-.37,1.15.18,1.37a21.2,21.2,0,0,0,8.84,1.47l-.72-.95c-.8,4.15-6,3.24-9,3.26-2.5,0-3.19,2.63-1.29,4.16a4.9,4.9,0,0,0,1.76.78c.34.09.69.16,1,.26s1.43.38,1,.72-1.45.11-1.89.06a8.52,8.52,0,0,1-2.11-.55,8.71,8.71,0,0,1-5.36-6.53l-1.37.57a7,7,0,0,1,.61,4.16,3.09,3.09,0,0,1-.33,1c-.44.69-1.24.64-2,.66a32.61,32.61,0,0,1-7.38-.6l.18,1.37a3.74,3.74,0,0,0,1.49-3.94c-.34-2.25-2.44-4.23-1.93-6.56.15-.68-.72-1.32-1.25-.73a5.93,5.93,0,0,0-1.56,4.75l1.28-.53a7.07,7.07,0,0,1,1.49-9.86c.55-.38.42-1.46-.38-1.39a9.85,9.85,0,0,0-7.11,3.77l1.28.53c-.5-4-.75-10.16,4.27-11.43l-.95-.73a7.6,7.6,0,0,0,8.72,6.61.75.75,0,0,0,.53-.52,7,7,0,0,1,5.34-5.14l-.85-1.1A8.55,8.55,0,0,0,70.81,168c.81.52,1.57-.77.76-1.3Z"/></g></svg>