<svg xmlns="http://www.w3.org/2000/svg" viewBox="0 0 199 199"><g id="background"><rect x="3" y="3" width="193" height="193" rx="19.6" fill="#fff"/><path d="M176.4,6A16.62,16.62,0,0,1,193,22.6V176.4A16.62,16.62,0,0,1,176.4,193H22.6A16.62,16.62,0,0,1,6,176.4V22.6A16.62,16.62,0,0,1,22.6,6H176.4m0-6H22.6A22.6,22.6,0,0,0,0,22.6V176.4A22.6,22.6,0,0,0,22.6,199H176.4A22.6,22.6,0,0,0,199,176.4V22.6A22.6,22.6,0,0,0,176.4,0Z"/></g><g id="man"><g id="head"><circle cx="62" cy="58" r="25" fill="#fff"/><path d="M62,35A23,23,0,1,1,39,58,23,23,0,0,1,62,35m0-4A27,27,0,1,0,89,58,27,27,0,0,0,62,31Z"/></g><g id="pot"><path d="M102.52,113.51q13.13-.14,26.26.12a1.52,1.52,0,0,0,1.5-1.5c.11-5,5.66-7,9.81-7.21,2.63-.16,5.28,0,7.91.11a77.77,77.77,0,0,1,8.08.38c2.18.31,4.64,1.24,5.36,3.55.67,2.15-1.33,3.53-3.06,4.25-4.87,2-10.44,2.22-15.64,2.18a50.25,50.25,0,0,1-7.56-.35c-1.79-.3-4-.89-4.61-2.85a1.51,1.51,0,0,0-2.89,0c-1.11,3.09,0,6.39,2.15,8.76,2.44,2.75,6.09,3.78,9.62,4.18,4.05.46,8.19.36,12.26.46,3.53.09,7.62.41,10.24-2.44a8,8,0,0,0,1.09-9.34,1.5,1.5,0,0,0-2.6,1.51,4.87,4.87,0,0,1-2.35,6.89c-1.84.68-4,.44-5.9.39l-6.54-.16c-3.83-.1-8.09.07-11.54-1.87-2.63-1.47-4.63-4.55-3.54-7.58h-2.89c1.6,5.32,8.27,5.24,12.76,5.35,6.39.16,13.27.11,19.26-2.45,2.38-1,4.62-2.83,4.86-5.59a7.2,7.2,0,0,0-3.9-6.57c-2.8-1.54-6.15-1.48-9.26-1.58-3.46-.12-7-.37-10.41-.27s-6.73.69-9.46,2.68a9.72,9.72,0,0,0-4.25,7.57l1.5-1.5q-13.12-.25-26.26-.12a1.5,1.5,0,0,0,0,3Z"/><path d="M101.45,110.33c-1.58,1.82-.68,4.31,1.41,5.26a14.7,14.7,0,0,0,3.72.86c1.41.23,2.82.41,4.23.56a74.83,74.83,0,0,0,17.38-.2c1.89-.24,1.92-3.25,0-3a75.67,75.67,0,0,1-13,.54q-3.18-.15-6.35-.58c-1.11-.15-2.23-.33-3.34-.54-.22,0-2.11-.54-1.9-.78,1.26-1.45-.85-3.58-2.12-2.12Z"/><path d="M137.54,73.15a9.7,9.7,0,0,0-4.17,3.23,4.74,4.74,0,0,0-.27,4.82,6.79,6.79,0,0,0,3,2.47c.75.4,2,.85,2.26,1.78s-.7,2-1.2,2.7a11.33,11.33,0,0,0-1.87,3.36c-1,3.46,2.08,5.4,4.91,6.34,1.84.6,2.63-2.29.8-2.9-.95-.31-2.54-.75-2.85-1.86a2.94,2.94,0,0,1,.73-2.15c1.15-1.8,2.81-3.58,2.43-5.89s-2.59-3.28-4.48-4.39c-.87-.52-1.52-1.14-1.12-2.23.5-1.39,2.14-2.09,3.37-2.69,1.73-.85.21-3.44-1.52-2.59Z"/><path d="M144.68,77.15a11.41,11.41,0,0,1,1,6.78c-.39,2.34-1.78,4.36-2.06,6.72a9.5,9.5,0,0,0,5.46,9.65,1.56,1.56,0,0,0,2.05-.54,1.52,1.52,0,0,0-.54-2.06A6.55,6.55,0,0,1,147,94.17a6.9,6.9,0,0,1,.21-5.47,17.35,17.35,0,0,0,1.56-6.44,14.79,14.79,0,0,0-1.53-6.63c-.83-1.74-3.42-.22-2.59,1.52Z"/><path d="M154,97.58c.18-.19.58-.21.84-.27a4.62,4.62,0,0,0,3.13-2.37,6.25,6.25,0,0,0,.07-5.65,10.21,10.21,0,0,0-1.67-2.5,9.1,9.1,0,0,1-1.69-2c-.62-1.42.8-3,1.88-3.73a1.54,1.54,0,0,0,.54-2,1.52,1.52,0,0,0-2.06-.54,7.72,7.72,0,0,0-3.39,4.6c-.43,2.22.68,3.8,2.15,5.33,1.12,1.18,2.38,2.92,1.74,4.64a2,2,0,0,1-1.14,1.27c-.93.34-1.79.34-2.52,1.13-1.3,1.42.81,3.54,2.12,2.12Z"/></g><g id="body"><path d="M61.39,84.79c.43,4.31.84,8.61,1.27,12.91a46.5,46.5,0,0,0,.88,6c.46,1.93,1.12,3.82,1.62,5.75,2,7.89,1.8,16.12,1.61,24.2,0,1.93,3,1.93,3,0,.19-8,.36-16.2-1.5-24.09-.45-1.93-1.09-3.82-1.6-5.73a38.3,38.3,0,0,1-1-6.12c-.43-4.3-.84-8.6-1.27-12.91-.18-1.9-3.18-1.92-3,0Z"/><path d="M63.26,100.2c13.15,4.82,25.41,12.48,39.48,14.44l-.36-2.74c-.29.22-.38.31-.74.22-1.87-.47-2.67,2.42-.79,2.9a3.52,3.52,0,0,0,3.05-.53c.88-.65,1.07-2.54-.36-2.74-14.06-2-26.34-9.62-39.48-14.44-1.82-.67-2.6,2.23-.8,2.89Z"/><path d="M88.13,179.66a107.52,107.52,0,0,0-3.87-13.49c-1.32-4.06-2.59-8.14-4-12.16-2.66-7.45-6-14.77-11.57-20.54-1.34-1.39-3.46.73-2.12,2.13,5.38,5.58,8.54,12.77,11.08,20,1.37,3.92,2.62,7.89,3.9,11.84a105.7,105.7,0,0,1,3.72,13c.35,1.89,3.24,1.09,2.89-.8Z"/><path d="M52.36,182.58A25.12,25.12,0,0,1,57,179a14.82,14.82,0,0,0,4-4.17c2.21-3.58,2.91-8,3.72-12.05,1.87-9.31,3.23-18.74,6.13-27.8.59-1.85-2.3-2.64-2.89-.8C65.14,142.89,63.77,152,62,161c-.77,3.9-1.34,8.23-3.31,11.75s-5.88,4.75-8.44,7.7c-1.26,1.45.85,3.58,2.12,2.12Z"/><path d="M108.44,110.3A133.78,133.78,0,0,0,87.58,98.44c-3.6-1.64-7.26-3.29-11.22-3.8a39.57,39.57,0,0,0-12.22.85c-1.89.36-1.09,3.26.8,2.9,3.84-.74,7.84-1.34,11.73-.69,3.73.62,7.26,2.32,10.66,3.91a134.08,134.08,0,0,1,19.59,11.28c1.59,1.1,3.09-1.5,1.52-2.59Z"/></g><g id="face"><path d="M66.92,55.45a1,1,0,0,1,.1-.17l-.24.31a1.59,1.59,0,0,1,.13-.13l-.3.24a.72.72,0,0,1,.19-.11l-.36.15a1.14,1.14,0,0,1,.25-.06l-.4,0h.31l-.4,0a1,1,0,0,1,.34.09l-.36-.15a1,1,0,0,1,.23.13l-.3-.23a1.07,1.07,0,0,1,.19.18l-.24-.3a.86.86,0,0,1,.1.16L66,55.2a2.5,2.5,0,0,1,.07.26l-.06-.4a1,1,0,0,1,0,.25l0-.4a1.37,1.37,0,0,1-.07.29l.15-.36a1.92,1.92,0,0,1-.18.31l.23-.3a3,3,0,0,1-.25.25l.3-.23a1.92,1.92,0,0,1-.31.18l.36-.15A1.5,1.5,0,0,1,66,55l.4-.05a1.06,1.06,0,0,1-.31,0l.4.06a1.54,1.54,0,0,1-.35-.1l.36.15a1.49,1.49,0,0,1-.3-.18l.3.24a2.57,2.57,0,0,1-.33-.33l.24.3a1.63,1.63,0,0,1-.24-.4l.15.36a2.54,2.54,0,0,1-.13-.45l.06.4a2,2,0,0,1,0-.49l0,.4a2.38,2.38,0,0,1,.14-.54l-.15.36a3.12,3.12,0,0,1,.34-.59l-.23.31a3,3,0,0,1,.53-.53l-.31.24.19-.13a1.58,1.58,0,0,0,.69-.9A1.53,1.53,0,0,0,67.19,52a1.5,1.5,0,0,0-2-.54,4.13,4.13,0,0,0-2,3.13,3.28,3.28,0,0,0,1.66,3,2.84,2.84,0,0,0,2.1.25,3,3,0,0,0,1.67-1.26,2.48,2.48,0,0,0-.81-3.49,2.51,2.51,0,0,0-3.48.84,1.61,1.61,0,0,0-.15,1.16,1.49,1.49,0,0,0,.69.89,1.45,1.45,0,0,0,1.15.15,1.48,1.48,0,0,0,.9-.68Z"/><path d="M78.78,50.92a3.17,3.17,0,0,0-3.93.59,3.36,3.36,0,0,0-.68,1.11c0,.1-.06.19-.08.29a2.59,2.59,0,0,0-.07.73,3.27,3.27,0,0,0,1,2.21,3.49,3.49,0,0,0,2.23,1A3.16,3.16,0,0,0,79.47,56a3.51,3.51,0,0,0,1-1.76,3.57,3.57,0,0,0,.1-1,2,2,0,0,0-.91-1.76A3.84,3.84,0,0,0,78.26,51a3.35,3.35,0,0,0-1.13.15,3.67,3.67,0,0,0-2.07,1.55,1.5,1.5,0,0,0,2.59,1.52l.11-.16-.23.31a1.54,1.54,0,0,1,.36-.36l-.31.23a2.27,2.27,0,0,1,.48-.27l-.36.15a2.72,2.72,0,0,1,.54-.15l-.4,0a2.41,2.41,0,0,1,.6,0l-.39,0a1.89,1.89,0,0,1,.48.13L78.18,54l.08,0-.69-.89a2.14,2.14,0,0,1,.09.34l0-.39a1.88,1.88,0,0,1,0,.53l.06-.4a2.38,2.38,0,0,1-.15.52l.15-.36a2,2,0,0,1-.27.47l.24-.3a2.89,2.89,0,0,1-.35.35l.31-.24a2.22,2.22,0,0,1-.42.25l.36-.15a1.8,1.8,0,0,1-.4.1l.4-.05a2,2,0,0,1-.42,0l.4.05a2.42,2.42,0,0,1-.46-.13l.36.15a1.91,1.91,0,0,1-.41-.24l.31.24a1.85,1.85,0,0,1-.37-.37l.23.3a2,2,0,0,1-.24-.4l.15.36a1.91,1.91,0,0,1-.11-.41l.06.4a1.53,1.53,0,0,1,0-.37l0,.39a1.4,1.4,0,0,1,.1-.35l-.16.36a1.71,1.71,0,0,1,.21-.35l-.23.3a1.94,1.94,0,0,1,.32-.32l-.3.24a1.9,1.9,0,0,1,.39-.23l-.36.15a2,2,0,0,1,.48-.13l-.4.05a1.34,1.34,0,0,1,.4,0l-.4-.06a1.6,1.6,0,0,1,.39.11l-.36-.15a.94.94,0,0,1,.22.12,1.51,1.51,0,0,0,1.16.15,1.57,1.57,0,0,0,.89-.69,1.47,1.47,0,0,0,.15-1.16,1.61,1.61,0,0,0-.69-.89Z"/><path d="M73,61.25l-5.4.66a17,17,0,0,0-4.67,1c-2.71,1.13-5.06,4.16-3.87,7.2,1.3,3.32,6.33.76,8.54-.11a13.4,13.4,0,0,1,4.28-1.15c1.58,0,3.15.59,4.71.13a3.44,3.44,0,0,0,2.63-3.83c-.36-1.68-2-2.55-3.51-3-1.84-.57-2.64,2.32-.79,2.89.38.12,1.67.46,1.17.93s-1.29.2-1.77.13a17.39,17.39,0,0,0-2.16-.23c-2.95,0-5.54,1.47-8.27,2.36a11.07,11.07,0,0,1-2,.51l-.38,0c.37.42.47.45.32.08,0-.15,0-.44,0-.61a3.49,3.49,0,0,1,2.1-2.47,13,13,0,0,1,4-.91L73,64.25a1.54,1.54,0,0,0,1.5-1.5,1.5,1.5,0,0,0-1.5-1.5Z"/><path d="M74,47a16.61,16.61,0,0,0,5.26-.36,1.52,1.52,0,0,0,1-1.85,1.55,1.55,0,0,0-1.85-1.05,12.51,12.51,0,0,1-1.36.25l.4,0A15.75,15.75,0,0,1,74,44a1.5,1.5,0,0,0-1.5,1.5,1.54,1.54,0,0,0,.44,1.06A1.71,1.71,0,0,0,74,47Z"/><path d="M65.45,45.62l-8.13,1.86a1.51,1.51,0,0,0-1,1.84,1.53,1.53,0,0,0,1.85,1l8.13-1.86a1.51,1.51,0,0,0,1-1.84,1.54,1.54,0,0,0-1.85-1.05Z"/></g></g></svg>