<svg xmlns="http://www.w3.org/2000/svg" viewBox="0 0 199 199"><g id="background"><rect x="3" y="3" width="193" height="193" rx="19.6" fill="#fff"/><path d="M176.4,6A16.62,16.62,0,0,1,193,22.6V176.4A16.62,16.62,0,0,1,176.4,193H22.6A16.62,16.62,0,0,1,6,176.4V22.6A16.62,16.62,0,0,1,22.6,6H176.4m0-6H22.6A22.6,22.6,0,0,0,0,22.6V176.4A22.6,22.6,0,0,0,22.6,199H176.4A22.6,22.6,0,0,0,199,176.4V22.6A22.6,22.6,0,0,0,176.4,0Z"/></g><g id="man"><g id="head"><circle cx="99" cy="60" r="25" fill="#fff"/><path d="M99,37A23,23,0,1,1,76,60,23,23,0,0,1,99,37m0-4a27,27,0,1,0,27,27A27,27,0,0,0,99,33Z"/></g><g id="body"><path d="M100,86.75c.88,6.21-.46,12.1-1.33,18.22a152.71,152.71,0,0,0-1.52,18.75c0,1.94,3,1.94,3,0a146.72,146.72,0,0,1,1.62-19.41c.46-3,1.09-6,1.39-9a38.93,38.93,0,0,0-.27-9.34c-.27-1.91-3.16-1.1-2.89.79Z"/><path d="M103.38,118.9l-.1-.09a1.53,1.53,0,0,0-1.81-.23,1.76,1.76,0,0,0-.92,1.57,1.54,1.54,0,0,0,1.1,1.45c1.08.43,2.25-.28,3.26-.66l4.13-1.57c2.59-1,5.19-2,7.78-3l7.76-3.08a52.28,52.28,0,0,0,6.92-3c3.52-2.07,5.85-7.09,2.06-10.15a9.85,9.85,0,0,0-5.09-1.83c-2.47-.31-5-.28-7.51-.37q-9.57-.3-19.17-.3a1.5,1.5,0,0,0,0,3q7.23,0,14.44.17,3.61.09,7.22.22a32.68,32.68,0,0,1,5.77.42c1.27.27,2.91.79,3.26,2.23.46,1.9-1.39,3.42-2.84,4.21a57.3,57.3,0,0,1-6.09,2.58l-6.61,2.63q-3.66,1.44-7.33,2.85l-3.89,1.49-1.84.69-.69.26-.69.26c-.29.1-.31.12,0,0l1.1,1.45V120l-.74,1.3.16-.1-1.82-.24.1.09c1.41,1.32,3.54-.8,2.12-2.12Z"/><path d="M56.88,74.68c1.5,4,3,8.17,5.64,11.64S68.81,92.17,72.76,94a72,72,0,0,0,27.73,6.67c1.93.07,1.93-2.93,0-3a68.49,68.49,0,0,1-25.8-6.07c-3.72-1.7-7.35-3.76-9.82-7.13-2.34-3.18-3.73-6.92-5.09-10.59-.67-1.8-3.57-1-2.9.79Z"/><path d="M97.3,123.59c-6.47,5.7-14.59,8.93-22.1,13a58.87,58.87,0,0,0-10.62,7.06c-3.15,2.71-6,6.24-6.54,10.47-.38,2.82.33,5.57.59,8.37a29.77,29.77,0,0,1-.46,8.58c-.38,1.88,2.51,2.69,2.89.8a33,33,0,0,0,.69-7.07c0-2.49-.55-4.9-.77-7.37-.4-4.67,1.91-8.25,5.27-11.27,6.2-5.56,14.13-8.74,21.4-12.59a60.3,60.3,0,0,0,11.77-7.84c1.45-1.27-.67-3.39-2.12-2.12Z"/><path d="M96.38,124.07a111.5,111.5,0,0,0,6.6,29.29,50.77,50.77,0,0,0,2.7,6.47,6.41,6.41,0,0,0,4.92,3.43c2.5.37,5.08.4,7.6.58l8.17.56,18.07,1.26c1.93.13,1.92-2.87,0-3l-29.7-2.06c-2-.14-4.79.18-6.09-1.64a26.46,26.46,0,0,1-2.62-6,111.85,111.85,0,0,1-4.1-13.31,108.66,108.66,0,0,1-2.55-15.62c-.17-1.91-3.17-1.93-3,0Z"/></g><g id="face"><path d="M78,56.39l.47-.08c.5-.09-.27,0,.23,0,.32,0,.64-.06,1-.07a12.74,12.74,0,0,1,1.75.06l.23,0,.48.08q.47.09.93.21l.83.26.45.16.22.09,0,0a6.6,6.6,0,0,1,.64.36c-.25-.17.06.08.09.11s-.1-.13,0,0,0,.07,0-.09l0,.11c0,.17,0,.15,0-.05-.08.3.13-.27,0,.05a.66.66,0,0,1,.23-.32.41.41,0,0,1,.24-.11c-.14,0-.14,0,0,0s.13,0,0,0l.19,0c-.31,0,.2.14-.05,0s.16.18,0,0c.21.23,0,0,0-.06.09.22,0-.19,0-.21,0,.26,0-.16,0-.21s0-.42,0-.26.06-.34.08-.41a1.54,1.54,0,0,0-1-1.85,1.52,1.52,0,0,0-1.85,1c-.32,1.65-.3,3.37,1.18,4.45a2.56,2.56,0,0,0,3.95-1.14,3.2,3.2,0,0,0-1.68-3.75,11.75,11.75,0,0,0-4-1.27,15.1,15.1,0,0,0-5.15.1,1.49,1.49,0,0,0-1,1.84,1.52,1.52,0,0,0,1.84,1Z"/><path d="M98.69,57.8c-.43,1.48.13,3.63,1.83,4a2.87,2.87,0,0,0,3.3-2.17c.65-3.31-3.76-5-6.28-5.45a14.26,14.26,0,0,0-5.25,0,1.49,1.49,0,0,0-1,1.84,1.52,1.52,0,0,0,1.84,1.05l.49-.09c-.21,0,.27,0,.26,0,.3,0,.61-.05.91-.05s.61,0,.91,0l.49,0c.52,0-.25,0,.26,0a10.44,10.44,0,0,1,3.32,1.07,4.89,4.89,0,0,1,.69.42c-.2-.15.14.12.15.13s.28.29.17.16.13.2.15.25l0,0,0,.14c0-.16,0-.17,0,0l0-.19c-.08.35.06-.33,0,0,.05-.17.13-.15,0,0l.13-.11c-.12.07-.12.07,0,0s-.25,0,0,0c.08,0,.47.07.23,0,.2.06.28.2.44.27-.07-.14-.09-.17-.05-.09s0,.06,0-.1l0-.14c0,.15,0,.13,0,0-.09.25,0-.13,0-.19a1.52,1.52,0,0,0-1-1.84,1.53,1.53,0,0,0-1.85,1Z"/><path d="M82.92,70.37a75.38,75.38,0,0,0,10,2.22,9.79,9.79,0,0,0,4.75-.06,4.5,4.5,0,0,0,3-3.17c.4-1.88-2.49-2.69-2.9-.8-.47,2.23-4.36,1.1-5.82.85a76.49,76.49,0,0,1-8.18-1.93c-1.86-.55-2.65,2.35-.8,2.89Z"/></g><ellipse id="lightGround" cx="96.5" cy="164" rx="57" ry="15.5" fill="none" stroke="#000" stroke-miterlimit="10"/><path id="light" d="M39.5,164.5c-1-2,49-161,49-161h20s46,159,45,159S39.5,164.5,39.5,164.5Z" fill="none"/></g></svg>