<svg xmlns="http://www.w3.org/2000/svg" viewBox="0 0 199 420"><g id="background"><rect x="3" y="3" width="193" height="193" rx="19.6" fill="#fff"/><path d="M176.4,6A16.62,16.62,0,0,1,193,22.6V176.4A16.62,16.62,0,0,1,176.4,193H22.6A16.62,16.62,0,0,1,6,176.4V22.6A16.62,16.62,0,0,1,22.6,6H176.4m0-6H22.6A22.6,22.6,0,0,0,0,22.6V176.4A22.6,22.6,0,0,0,22.6,199H176.4A22.6,22.6,0,0,0,199,176.4V22.6A22.6,22.6,0,0,0,176.4,0Z"/><path d="M92,192.58l2.28-2a1.24,1.24,0,0,0,.31-.48,1.17,1.17,0,0,0,.13-.58,1.54,1.54,0,0,0-.44-1.06,1.47,1.47,0,0,0-1.06-.44l-.4.05a1.39,1.39,0,0,0-.66.39l-2.28,2a1.11,1.11,0,0,0-.31.48,1.15,1.15,0,0,0-.13.58,1.54,1.54,0,0,0,.44,1.06,1.52,1.52,0,0,0,1.06.44l.4-.06a1.51,1.51,0,0,0,.66-.38Z" fill="#fff"/><path d="M99.78,197.47l2-1.62a1.14,1.14,0,0,0,.31-.48,1.36,1.36,0,0,0,0-1.16,1.08,1.08,0,0,0-.31-.48,1.5,1.5,0,0,0-1.06-.44l-.4.05a1.49,1.49,0,0,0-.66.39l-2,1.62a1.72,1.72,0,0,0-.44,1.06,1.15,1.15,0,0,0,.13.58,1,1,0,0,0,.31.48,1.47,1.47,0,0,0,1.06.44l.4,0a1.49,1.49,0,0,0,.66-.39Z" fill="#fff"/><path d="M79,204.44q13.9-1.84,27.9-2.72,6.87-.42,13.75-.6c1.15,0,2.3,0,3.44-.08,3.69-.12,6.75-1.44,8.84-4.6,2.39-3.6,1.48-8.23-1.3-11.26a9.27,9.27,0,0,0-11.28-1.4c-3.26,2.1-5.37,6.28-4.14,10.17l0,.1a9.46,9.46,0,0,0,4.13,5.38,9.2,9.2,0,0,0,6.94.91c4.49-1.46,7.81-6.27,6.29-11.07l0-.11-4.13,10.16.09-.06-4.54,1.23h.15l-4.55-1.23.14.05-4.14-5.37,0,.13.91-6.94-.15.22,5.38-4.13-.27.11,2.39-.33c-1.88.2-3.82.1-5.71.16s-3.77.13-5.65.21q-5.78.25-11.54.69-11.52.85-23,2.38c-2.48.34-4.51.79-6.36,2.64a9,9,0,0,0,0,12.73c1.62,1.49,4.07,2.94,6.36,2.63Z" fill="#fff"/><path d="M80.2,206.18a147.77,147.77,0,0,0,49.58-2.07c4.61-1,7.72-6.65,6.28-11.07A9.21,9.21,0,0,0,125,186.75c-3.28.69-6.59,1.26-9.91,1.72l2.39-.32a141.35,141.35,0,0,1-37.27,0c-2.11-.28-4.94,1.21-6.36,2.64a9,9,0,0,0,0,12.73l1.82,1.4a8.85,8.85,0,0,0,4.54,1.23Z" fill="#fff"/><path d="M69.77,198.55a1.5,1.5,0,0,0,0-3,1.5,1.5,0,0,0,0,3Z"/><path d="M135.76,192.61q-6.51.44-13,.83l3,3-.11.14a6.69,6.69,0,0,0,.69-.72l1.83-1.83a27.27,27.27,0,0,0,3.32-3.64,7.09,7.09,0,0,0,1.26-4.7,8,8,0,0,0-.7-2.63c-.23-.52-.78-1.36-.83-1.63V183c-.71.73-.76.89-.17.48l.37-.22c.38-.21.76-.41,1.15-.6a22.26,22.26,0,0,1,2.08-.87c1.78-.64,3.52-1.29,4.68-2.88s1.33-3.38,1.94-5.06a27.16,27.16,0,0,1,2.26-4.59c2-3.31-3.18-6.33-5.18-3a35.3,35.3,0,0,0-2.47,5c-.33.81-.63,1.63-.89,2.47-.1.33-.32,1.47-.36,1.54-.25.38-.73.45-1.23.63-.78.28-1.55.58-2.32.9-1.66.71-3.71,1.52-4.86,3a3.87,3.87,0,0,0-.79,3.26,10.45,10.45,0,0,0,1.1,2.37c.47,1,.25,1.44-.47,2.24-1.19,1.34-2.54,2.55-3.8,3.82s-2.62,2.93-2.5,5a3,3,0,0,0,3,3q6.51-.41,13-.83a3.07,3.07,0,0,0,3-3,3,3,0,0,0-3-3Z"/><path d="M72.66,197.56a99.44,99.44,0,0,0,4.64-11.67C77.93,184,78.55,182,79,180a5.23,5.23,0,0,0-2.14-5.9c-3-2.13-6.23-3.64-9-6.13a31.75,31.75,0,0,1-6.35-8c-1.9-3.36-7.09-.34-5.18,3a39.08,39.08,0,0,0,14.42,14.38l2.39,1.46c.17.1.57.29.54.39L73.29,178c-.06.28-.13.56-.2.84-.46,1.83-1,3.64-1.57,5.44a87.44,87.44,0,0,1-4,10.24,3.09,3.09,0,0,0,1.08,4.1,3,3,0,0,0,4.1-1.08Z"/></g><g id="man"><path id="body" d="M113,251a27,27,0,1,1-27-27A27,27,0,0,1,113,251ZM87.45,278c-4.3,16.38.75,33.8,8,49.13,2.27,4.81,5.26,10,10.36,11.5a6.7,6.7,0,0,0,4.87-.2c3-1.5,3.63-5.37,4.54-8.59S118.77,323,122,324c1.6.48,2.65,2,3.56,3.38q4.58,7,9.13,13.93c.41.63,1.07,1.34,1.77,1.08s-.25-1.6-.47-.88m-36.93-7A29.26,29.26,0,0,0,113,319.2a6.17,6.17,0,0,1,1.6-2.72,5.1,5.1,0,0,1,3.75-.7A24.06,24.06,0,0,1,132,322m-6.76-44.1c.72,4-1.57,8.14-4.77,10.71s-7.19,3.92-11.08,5.21c-7.53,2.5-15.35,5-23.23,4.09m36-41c.84,3.95-2.11,7.62-4.91,10.53A273.29,273.29,0,0,1,86.7,294.85" fill="none" stroke="#000" stroke-miterlimit="10" stroke-width="4"/><g id="sick"><path d="M62.61,256.53c.81-1.52,2.78-1.89,4.49-2.16s3.68-.84,4.24-2.47c.37-1.12-.08-2.34,0-3.51,0-1.58,1-3.17.49-4.67A9.08,9.08,0,0,0,70,241.25a6.51,6.51,0,0,1-1.31-3.08c-.13-1-.28-2.23-1.23-2.4a1.86,1.86,0,0,0-1.51.71,15.44,15.44,0,0,0-4,8,46.63,46.63,0,0,0-.59,9.07,2.82,2.82,0,0,0,.63,2.17c.58.52,1.81.11,1.63-.65m25.85-27.49c.1,2.42-.45,4.83-.46,7.25s.63,5,2.56,6.52a14.06,14.06,0,0,1,2.12,1.52,12,12,0,0,1,1.3,2.22,2.53,2.53,0,0,0,2,1.45c.94,0,1.65-.8,2.42-1.33a9.58,9.58,0,0,1,3.44-1.19,7.61,7.61,0,0,0,3.37-1.34,2.8,2.8,0,0,0,.94-3.25c-.5-1-1.69-1.43-2.36-2.32a9.41,9.41,0,0,1-.7-1.24,10.14,10.14,0,0,0-3.27-3c-3.37-2.3-6.81-4.63-10.73-5.72m-3.29,26.43a4.19,4.19,0,0,0-5.56,4.06,8.11,8.11,0,0,1,0,1.63c-.21,1.35-1.67,2.42-1.43,3.76.14.8.83,1.36,1.23,2.05.89,1.53.45,3.75,1.8,4.9a3.33,3.33,0,0,0,2.94.46c1-.24,1.93-.73,2.92-1,1.42-.38,2.93-.32,4.34-.71a1.36,1.36,0,0,0,.72-.38,2.27,2.27,0,0,0,.35-1c.69-2.41,4.49-2.37,5.71-4.54.86-1.54,0-3.57-1.41-4.65a15.11,15.11,0,0,0-4.87-2,28.48,28.48,0,0,1-7.16-3.39" fill="#fff"/></g><path id="corona" d="M56.1,43.74a9.84,9.84,0,1,1-9.84-9.83A9.84,9.84,0,0,1,56.1,43.74ZM50,41.53A1,1,0,0,0,49,42a2.45,2.45,0,0,0-.33,1,2.62,2.62,0,0,0,.51,2.24,1.73,1.73,0,0,0,1.25.44,2.13,2.13,0,0,0,1.24-.53,1.54,1.54,0,0,0,.47-.63,1.6,1.6,0,0,0,.07-.61,2.61,2.61,0,0,0-1-1.83,2.75,2.75,0,0,0-2-.58m-7.69-4.18a3.3,3.3,0,0,0-1.53,2.5,1,1,0,0,0,.15.71.76.76,0,0,0,.87.16,1.86,1.86,0,0,0,.72-.59,3.69,3.69,0,0,0,1-2.15.68.68,0,0,0-.09-.44.63.63,0,0,0-.48-.26,1.26,1.26,0,0,0-.92.22m2.29,2.84-.26-.11a1.23,1.23,0,0,0-.87-.14m6.43,3.62H47.44M40.72,47a1.47,1.47,0,0,1-.55-.05.54.54,0,0,0-.52.15.53.53,0,0,0-.08.33,2.43,2.43,0,0,0,1.72,2.3,3.24,3.24,0,0,0,.93.1,2,2,0,0,0,.72-.12.86.86,0,0,0,.5-.52.89.89,0,0,0-.16-.75,2.26,2.26,0,0,0-.6-.51,18.17,18.17,0,0,0-1.78-1c-.14-.07-.33-.14-.45,0M43,46.23a4.06,4.06,0,0,0-.87,1.14m14.06,3.72a3.42,3.42,0,0,0-1.56.56,4.35,4.35,0,0,0-1.11.89,2,2,0,0,0-.5,1.3A.25.25,0,0,0,53,54a.23.23,0,0,0,.12.06,1.42,1.42,0,0,0,1-.1,3.86,3.86,0,0,0,.85-.55l1.24-1c.27-.2.56-.46.55-.8a.55.55,0,0,0-.61-.49M53,51.2a4.29,4.29,0,0,0,.6.75m2-10.74.78-.37m.73-1.38a1.18,1.18,0,0,0-.45-.18,1.26,1.26,0,0,0-.08.72,5.35,5.35,0,0,0,1,2.56c.17.26.45.53.74.43a.72.72,0,0,0,.36-.33,1.83,1.83,0,0,0,.35-1,2.12,2.12,0,0,0-.67-1.24,3.35,3.35,0,0,0-1.84-1.3m-7.05-4.64.24-.73m-.45-.14q1.14,0,2.28,0c.21,0,.48-.06.55-.27a.38.38,0,0,0-.17-.43,1.05,1.05,0,0,0-.47-.16l-1.17-.22a5,5,0,0,0-1.38-.11A1.61,1.61,0,0,0,47.7,33m.21.18a1.59,1.59,0,0,0,1.27.48M39.05,36.73s0,0,0,0,0,0,0,0a4.43,4.43,0,0,0-.7-.32m-.71,0A5.67,5.67,0,0,0,39,34.13c0-.07,0-.15,0-.2a.13.13,0,0,0-.1-.06,1.34,1.34,0,0,0-1.19.34A3.19,3.19,0,0,0,37,35.27a3.71,3.71,0,0,0-.42,1.65c0,.16.1.37.26.33a.26.26,0,0,0,.11-.07,2.64,2.64,0,0,0,.68-.88m-1.36,9.28a2.43,2.43,0,0,0-1.37.47m-.2-.34a4.1,4.1,0,0,0-1.06-1.37.92.92,0,0,0-.61-.21.77.77,0,0,0-.6.45,1.64,1.64,0,0,0-.14.76,2.77,2.77,0,0,0,.41,1.45,1.89,1.89,0,0,0,1.21.85.66.66,0,0,0,.48-.06.73.73,0,0,0,.22-.21,2.13,2.13,0,0,0,.25-1.94m8.76,6.72a11.87,11.87,0,0,0-.78,1.65m.16.6a15.24,15.24,0,0,0-1.79-.14,2.85,2.85,0,0,0-1.23.16,1.11,1.11,0,0,0-.72.93.38.38,0,0,0,0,.25.65.65,0,0,0,.41.27,7.66,7.66,0,0,0,2.29.29,3,3,0,0,0,1.73-.4.83.83,0,0,0,.39-1,.94.94,0,0,0-.57-.35,3.88,3.88,0,0,0-1.17-.15M162.74,53a9.84,9.84,0,1,1-9.84-9.84A9.84,9.84,0,0,1,162.74,53Zm-6.13-2.22a1,1,0,0,0-.94.44,2.41,2.41,0,0,0-.34,1,2.62,2.62,0,0,0,.51,2.24,1.66,1.66,0,0,0,1.26.44,2.16,2.16,0,0,0,1.23-.52,1.57,1.57,0,0,0,.47-.64,1.55,1.55,0,0,0,.07-.61,2.58,2.58,0,0,0-1-1.83,2.78,2.78,0,0,0-2-.58m-7.69-4.18a3.33,3.33,0,0,0-1.53,2.51,1,1,0,0,0,.16.71.77.77,0,0,0,.87.16,2.07,2.07,0,0,0,.72-.6,3.66,3.66,0,0,0,1-2.15.83.83,0,0,0-.09-.44.74.74,0,0,0-.48-.26,1.34,1.34,0,0,0-.93.23m2.29,2.84-.26-.12a1.18,1.18,0,0,0-.87-.13M155.55,53h-1.47m-6.72,3.26a1.71,1.71,0,0,1-.55,0,.51.51,0,0,0-.51.14.58.58,0,0,0-.09.34A2.42,2.42,0,0,0,147.93,59a3.25,3.25,0,0,0,.93.11,2,2,0,0,0,.73-.13.79.79,0,0,0,.33-1.26,2.3,2.3,0,0,0-.6-.52,17,17,0,0,0-1.78-1c-.14-.08-.33-.14-.45,0m2.54-.65a4.2,4.2,0,0,0-.88,1.14m14.07,3.73a3.35,3.35,0,0,0-1.57.56,4.26,4.26,0,0,0-1.1.88,2,2,0,0,0-.51,1.3.33.33,0,0,0,0,.14.21.21,0,0,0,.12.07,1.42,1.42,0,0,0,1-.1,4.75,4.75,0,0,0,.85-.55l1.24-1c.27-.2.57-.46.55-.8a.55.55,0,0,0-.61-.5m-3.2,0a4,4,0,0,0,.59.75m2-10.73.78-.37m.74-1.39a1.44,1.44,0,0,0-.45-.17,1.31,1.31,0,0,0-.09.71,5.35,5.35,0,0,0,1,2.57c.18.25.45.52.75.43a.77.77,0,0,0,.35-.34,1.78,1.78,0,0,0,.35-1,2.15,2.15,0,0,0-.67-1.25,3.31,3.31,0,0,0-1.83-1.29m-7-4.64.24-.74m-.46-.14a21.68,21.68,0,0,0,2.28,0c.22,0,.48-.06.56-.26a.41.41,0,0,0-.17-.44,1.31,1.31,0,0,0-.47-.16l-1.18-.21a4.6,4.6,0,0,0-1.38-.11,1.54,1.54,0,0,0-1.16.66m.2.18a1.65,1.65,0,0,0,1.28.48m-10.14,3s0,0,0,0,0,0,0-.05a4.08,4.08,0,0,0-.71-.32m-.7.05a5.83,5.83,0,0,0,1.36-2.28.26.26,0,0,0,0-.21.22.22,0,0,0-.11-.05,1.3,1.3,0,0,0-1.18.34,3.17,3.17,0,0,0-.72,1,3.57,3.57,0,0,0-.41,1.65c0,.16.1.37.25.34a.21.21,0,0,0,.11-.07,2.58,2.58,0,0,0,.68-.89m-1.36,9.29a2.42,2.42,0,0,0-1.37.46m-.19-.33a4.13,4.13,0,0,0-1.07-1.37.92.92,0,0,0-.61-.21.78.78,0,0,0-.6.44,1.63,1.63,0,0,0-.13.76,2.73,2.73,0,0,0,.4,1.45,1.9,1.9,0,0,0,1.22.85.69.69,0,0,0,.47-.05.66.66,0,0,0,.22-.22,2.11,2.11,0,0,0,.25-1.93m8.77,6.71a11.46,11.46,0,0,0-.79,1.66m.16.59a17.74,17.74,0,0,0-1.79-.14,3,3,0,0,0-1.22.16,1.13,1.13,0,0,0-.73.93.58.58,0,0,0,.05.26.65.65,0,0,0,.41.27,7.38,7.38,0,0,0,2.29.28,3.06,3.06,0,0,0,1.74-.39c.33-.23.59-.68.38-1a1,1,0,0,0-.57-.36,4.17,4.17,0,0,0-1.17-.15M158.74,92a9.84,9.84,0,1,1-9.84-9.84A9.84,9.84,0,0,1,158.74,92Zm-6.13-2.22a1,1,0,0,0-.94.44,2.41,2.41,0,0,0-.34,1,2.62,2.62,0,0,0,.51,2.24,1.66,1.66,0,0,0,1.26.44,2.16,2.16,0,0,0,1.23-.52,1.57,1.57,0,0,0,.47-.64,1.55,1.55,0,0,0,.07-.61,2.58,2.58,0,0,0-1-1.83,2.78,2.78,0,0,0-2-.58m-7.69-4.18a3.33,3.33,0,0,0-1.53,2.51,1,1,0,0,0,.16.71.77.77,0,0,0,.87.16,2.07,2.07,0,0,0,.72-.6,3.66,3.66,0,0,0,1-2.15.83.83,0,0,0-.09-.44.74.74,0,0,0-.48-.26,1.34,1.34,0,0,0-.93.23m2.29,2.84-.26-.12a1.18,1.18,0,0,0-.87-.13M151.55,92h-1.47m-6.72,3.26a1.71,1.71,0,0,1-.55,0,.51.51,0,0,0-.51.14.58.58,0,0,0-.09.34A2.42,2.42,0,0,0,143.93,98a3.25,3.25,0,0,0,.93.11,2,2,0,0,0,.73-.13.79.79,0,0,0,.33-1.26,2.3,2.3,0,0,0-.6-.52,17,17,0,0,0-1.78-1c-.14-.08-.33-.14-.45,0m2.54-.65a4.2,4.2,0,0,0-.88,1.14m14.07,3.73a3.35,3.35,0,0,0-1.57.56,4.26,4.26,0,0,0-1.1.88,2,2,0,0,0-.51,1.3.33.33,0,0,0,0,.14.21.21,0,0,0,.12.07,1.42,1.42,0,0,0,1-.1,4.75,4.75,0,0,0,.85-.55l1.24-1c.27-.2.57-.46.55-.8a.55.55,0,0,0-.61-.5m-3.2,0a4,4,0,0,0,.59.75m2-10.73.78-.37m.74-1.39a1.44,1.44,0,0,0-.45-.17,1.31,1.31,0,0,0-.09.71,5.35,5.35,0,0,0,1,2.57c.18.25.45.52.75.43a.77.77,0,0,0,.35-.34,1.78,1.78,0,0,0,.35-1,2.15,2.15,0,0,0-.67-1.25,3.31,3.31,0,0,0-1.83-1.29m-7-4.64.24-.74m-.46-.14a21.68,21.68,0,0,0,2.28,0c.22,0,.48-.06.56-.26a.41.41,0,0,0-.17-.44,1.31,1.31,0,0,0-.47-.16l-1.18-.21a4.6,4.6,0,0,0-1.38-.11,1.54,1.54,0,0,0-1.16.66m.2.18a1.65,1.65,0,0,0,1.28.48M141.69,85s0,0,0,0,0,0,0,0a4.08,4.08,0,0,0-.71-.32m-.7,0a5.83,5.83,0,0,0,1.36-2.28.26.26,0,0,0,0-.21.22.22,0,0,0-.11,0,1.3,1.3,0,0,0-1.18.34,3.17,3.17,0,0,0-.72,1,3.57,3.57,0,0,0-.41,1.65c0,.16.1.37.25.34a.21.21,0,0,0,.11-.07,2.58,2.58,0,0,0,.68-.89m-1.36,9.29a2.42,2.42,0,0,0-1.37.46m-.19-.33a4.13,4.13,0,0,0-1.07-1.37.92.92,0,0,0-.61-.21.78.78,0,0,0-.6.44,1.63,1.63,0,0,0-.13.76,2.73,2.73,0,0,0,.4,1.45,1.9,1.9,0,0,0,1.22.85.69.69,0,0,0,.47,0,.66.66,0,0,0,.22-.22,2.11,2.11,0,0,0,.25-1.93m8.77,6.71a11.46,11.46,0,0,0-.79,1.66m.16.59a17.74,17.74,0,0,0-1.79-.14,3,3,0,0,0-1.22.16,1.13,1.13,0,0,0-.73.93.58.58,0,0,0,.05.26.65.65,0,0,0,.41.27,7.38,7.38,0,0,0,2.29.28,3.06,3.06,0,0,0,1.74-.39c.33-.23.59-.68.38-1a1,1,0,0,0-.57-.36,4.17,4.17,0,0,0-1.17-.15M123.74,34a9.84,9.84,0,1,1-9.84-9.84A9.84,9.84,0,0,1,123.74,34Zm-6.13-2.22a1,1,0,0,0-.94.44,2.41,2.41,0,0,0-.34,1,2.62,2.62,0,0,0,.51,2.24,1.66,1.66,0,0,0,1.26.44,2.16,2.16,0,0,0,1.23-.52,1.57,1.57,0,0,0,.47-.64,1.55,1.55,0,0,0,.07-.61,2.58,2.58,0,0,0-1-1.83,2.78,2.78,0,0,0-2-.58m-7.69-4.18a3.33,3.33,0,0,0-1.53,2.51,1,1,0,0,0,.16.71.77.77,0,0,0,.87.16,2.07,2.07,0,0,0,.72-.6,3.66,3.66,0,0,0,1-2.15.83.83,0,0,0-.09-.44.74.74,0,0,0-.48-.26,1.34,1.34,0,0,0-.93.23m2.29,2.84-.26-.12a1.18,1.18,0,0,0-.87-.13M116.55,34h-1.47m-6.72,3.26a1.71,1.71,0,0,1-.55,0,.51.51,0,0,0-.51.14.58.58,0,0,0-.09.34A2.42,2.42,0,0,0,108.93,40a3.25,3.25,0,0,0,.93.11,2,2,0,0,0,.73-.13.79.79,0,0,0,.33-1.26,2.3,2.3,0,0,0-.6-.52,17,17,0,0,0-1.78-1c-.14-.08-.33-.14-.45,0m2.54-.65a4.2,4.2,0,0,0-.88,1.14m14.07,3.73a3.35,3.35,0,0,0-1.57.56,4.26,4.26,0,0,0-1.1.88,2,2,0,0,0-.51,1.3.33.33,0,0,0,0,.14.21.21,0,0,0,.12.07,1.42,1.42,0,0,0,1-.1,4.75,4.75,0,0,0,.85-.55l1.24-1c.27-.2.57-.46.55-.8a.55.55,0,0,0-.61-.5m-3.2,0a4,4,0,0,0,.59.75m2-10.73.78-.37m.74-1.39a1.44,1.44,0,0,0-.45-.17,1.31,1.31,0,0,0-.09.71,5.35,5.35,0,0,0,1,2.57c.18.25.45.52.75.43a.77.77,0,0,0,.35-.34,1.78,1.78,0,0,0,.35-1,2.15,2.15,0,0,0-.67-1.25,3.31,3.31,0,0,0-1.83-1.29m-7-4.64.24-.74m-.46-.14a21.68,21.68,0,0,0,2.28,0c.22,0,.48-.06.56-.26a.41.41,0,0,0-.17-.44,1.31,1.31,0,0,0-.47-.16l-1.18-.21a4.6,4.6,0,0,0-1.38-.11,1.54,1.54,0,0,0-1.16.66m.2.18a1.65,1.65,0,0,0,1.28.48M106.69,27s0,0,0,0,0,0,0-.05a4.08,4.08,0,0,0-.71-.32m-.7.05a5.83,5.83,0,0,0,1.36-2.28.26.26,0,0,0,0-.21.22.22,0,0,0-.11-.05,1.3,1.3,0,0,0-1.18.34,3.17,3.17,0,0,0-.72,1.05,3.57,3.57,0,0,0-.41,1.65c0,.16.1.37.25.34a.21.21,0,0,0,.11-.07,2.58,2.58,0,0,0,.68-.89m-1.36,9.29a2.42,2.42,0,0,0-1.37.46m-.19-.33a4.13,4.13,0,0,0-1.07-1.37.92.92,0,0,0-.61-.21.78.78,0,0,0-.6.44,1.63,1.63,0,0,0-.13.76,2.73,2.73,0,0,0,.4,1.45,1.9,1.9,0,0,0,1.22.85.69.69,0,0,0,.47-.05.66.66,0,0,0,.22-.22,2.11,2.11,0,0,0,.25-1.93m8.77,6.71a11.46,11.46,0,0,0-.79,1.66m.16.59a17.74,17.74,0,0,0-1.79-.14,3,3,0,0,0-1.22.16,1.13,1.13,0,0,0-.73.93.58.58,0,0,0,0,.26.65.65,0,0,0,.41.27,7.38,7.38,0,0,0,2.29.28,3.06,3.06,0,0,0,1.74-.39c.33-.23.59-.68.38-1a1,1,0,0,0-.57-.36,4.17,4.17,0,0,0-1.17-.15M162.74,53a9.84,9.84,0,1,1-9.84-9.84A9.84,9.84,0,0,1,162.74,53Zm-6.13-2.22a1,1,0,0,0-.94.44,2.41,2.41,0,0,0-.34,1,2.62,2.62,0,0,0,.51,2.24,1.66,1.66,0,0,0,1.26.44,2.16,2.16,0,0,0,1.23-.52,1.57,1.57,0,0,0,.47-.64,1.55,1.55,0,0,0,.07-.61,2.58,2.58,0,0,0-1-1.83,2.78,2.78,0,0,0-2-.58m-7.69-4.18a3.33,3.33,0,0,0-1.53,2.51,1,1,0,0,0,.16.71.77.77,0,0,0,.87.16,2.07,2.07,0,0,0,.72-.6,3.66,3.66,0,0,0,1-2.15.83.83,0,0,0-.09-.44.74.74,0,0,0-.48-.26,1.34,1.34,0,0,0-.93.23m2.29,2.84-.26-.12a1.18,1.18,0,0,0-.87-.13M155.55,53h-1.47m-6.72,3.26a1.71,1.71,0,0,1-.55,0,.51.51,0,0,0-.51.14.58.58,0,0,0-.09.34A2.42,2.42,0,0,0,147.93,59a3.25,3.25,0,0,0,.93.11,2,2,0,0,0,.73-.13.79.79,0,0,0,.33-1.26,2.3,2.3,0,0,0-.6-.52,17,17,0,0,0-1.78-1c-.14-.08-.33-.14-.45,0m2.54-.65a4.2,4.2,0,0,0-.88,1.14m14.07,3.73a3.35,3.35,0,0,0-1.57.56,4.26,4.26,0,0,0-1.1.88,2,2,0,0,0-.51,1.3.33.33,0,0,0,0,.14.21.21,0,0,0,.12.07,1.42,1.42,0,0,0,1-.1,4.75,4.75,0,0,0,.85-.55l1.24-1c.27-.2.57-.46.55-.8a.55.55,0,0,0-.61-.5m-3.2,0a4,4,0,0,0,.59.75m2-10.73.78-.37m.74-1.39a1.44,1.44,0,0,0-.45-.17,1.31,1.31,0,0,0-.09.71,5.35,5.35,0,0,0,1,2.57c.18.25.45.52.75.43a.77.77,0,0,0,.35-.34,1.78,1.78,0,0,0,.35-1,2.15,2.15,0,0,0-.67-1.25,3.31,3.31,0,0,0-1.83-1.29m-7-4.64.24-.74m-.46-.14a21.68,21.68,0,0,0,2.28,0c.22,0,.48-.06.56-.26a.41.41,0,0,0-.17-.44,1.31,1.31,0,0,0-.47-.16l-1.18-.21a4.6,4.6,0,0,0-1.38-.11,1.54,1.54,0,0,0-1.16.66m.2.18a1.65,1.65,0,0,0,1.28.48m-10.14,3s0,0,0,0,0,0,0-.05a4.08,4.08,0,0,0-.71-.32m-.7.05a5.83,5.83,0,0,0,1.36-2.28.26.26,0,0,0,0-.21.22.22,0,0,0-.11-.05,1.3,1.3,0,0,0-1.18.34,3.17,3.17,0,0,0-.72,1,3.57,3.57,0,0,0-.41,1.65c0,.16.1.37.25.34a.21.21,0,0,0,.11-.07,2.58,2.58,0,0,0,.68-.89m-1.36,9.29a2.42,2.42,0,0,0-1.37.46m-.19-.33a4.13,4.13,0,0,0-1.07-1.37.92.92,0,0,0-.61-.21.78.78,0,0,0-.6.44,1.63,1.63,0,0,0-.13.76,2.73,2.73,0,0,0,.4,1.45,1.9,1.9,0,0,0,1.22.85.69.69,0,0,0,.47-.05.66.66,0,0,0,.22-.22,2.11,2.11,0,0,0,.25-1.93m8.77,6.71a11.46,11.46,0,0,0-.79,1.66m.16.59a17.74,17.74,0,0,0-1.79-.14,3,3,0,0,0-1.22.16,1.13,1.13,0,0,0-.73.93.58.58,0,0,0,.05.26.65.65,0,0,0,.41.27,7.38,7.38,0,0,0,2.29.28,3.06,3.06,0,0,0,1.74-.39c.33-.23.59-.68.38-1a1,1,0,0,0-.57-.36,4.17,4.17,0,0,0-1.17-.15M116.74,66a9.84,9.84,0,1,1-9.84-9.84A9.84,9.84,0,0,1,116.74,66Zm-6.13-2.22a1,1,0,0,0-.94.44,2.41,2.41,0,0,0-.34,1,2.62,2.62,0,0,0,.51,2.24,1.66,1.66,0,0,0,1.26.44,2.16,2.16,0,0,0,1.23-.52,1.57,1.57,0,0,0,.47-.64,1.55,1.55,0,0,0,.07-.61,2.58,2.58,0,0,0-1-1.83,2.78,2.78,0,0,0-2-.58m-7.69-4.18a3.33,3.33,0,0,0-1.53,2.51,1,1,0,0,0,.16.71.77.77,0,0,0,.87.16,2.07,2.07,0,0,0,.72-.6,3.66,3.66,0,0,0,1-2.15.83.83,0,0,0-.09-.44.74.74,0,0,0-.48-.26,1.34,1.34,0,0,0-.93.23m2.29,2.84-.26-.12a1.18,1.18,0,0,0-.87-.13M109.55,66h-1.47m-6.72,3.26a1.71,1.71,0,0,1-.55,0,.51.51,0,0,0-.51.14.58.58,0,0,0-.09.34A2.42,2.42,0,0,0,101.93,72a3.25,3.25,0,0,0,.93.11,2,2,0,0,0,.73-.13.79.79,0,0,0,.33-1.26,2.3,2.3,0,0,0-.6-.52,17,17,0,0,0-1.78-1c-.14-.08-.33-.14-.45,0m2.54-.65a4.2,4.2,0,0,0-.88,1.14m14.07,3.73a3.35,3.35,0,0,0-1.57.56,4.26,4.26,0,0,0-1.1.88,2,2,0,0,0-.51,1.3.33.33,0,0,0,0,.14.21.21,0,0,0,.12.07,1.42,1.42,0,0,0,1-.1,4.75,4.75,0,0,0,.85-.55l1.24-1c.27-.2.57-.46.55-.8a.55.55,0,0,0-.61-.5m-3.2,0a4,4,0,0,0,.59.75m2-10.73.78-.37m.74-1.39a1.44,1.44,0,0,0-.45-.17,1.31,1.31,0,0,0-.09.71,5.35,5.35,0,0,0,1,2.57c.18.25.45.52.75.43a.77.77,0,0,0,.35-.34,1.78,1.78,0,0,0,.35-1,2.15,2.15,0,0,0-.67-1.25,3.31,3.31,0,0,0-1.83-1.29m-7-4.64.24-.74m-.46-.14a21.68,21.68,0,0,0,2.28,0c.22,0,.48-.06.56-.26a.41.41,0,0,0-.17-.44,1.31,1.31,0,0,0-.47-.16l-1.18-.21a4.6,4.6,0,0,0-1.38-.11,1.54,1.54,0,0,0-1.16.66m.2.18a1.65,1.65,0,0,0,1.28.48M99.69,59s0,0,0,0,0,0,0-.05a4.08,4.08,0,0,0-.71-.32m-.7.05a5.83,5.83,0,0,0,1.36-2.28.26.26,0,0,0,0-.21.22.22,0,0,0-.11-.05,1.3,1.3,0,0,0-1.18.34,3.17,3.17,0,0,0-.72,1,3.57,3.57,0,0,0-.41,1.65c0,.16.1.37.25.34a.21.21,0,0,0,.11-.07,2.58,2.58,0,0,0,.68-.89M96.9,67.87a2.42,2.42,0,0,0-1.37.46M95.34,68a4.13,4.13,0,0,0-1.07-1.37.92.92,0,0,0-.61-.21.78.78,0,0,0-.6.44,1.63,1.63,0,0,0-.13.76,2.73,2.73,0,0,0,.4,1.45,1.9,1.9,0,0,0,1.22.85.69.69,0,0,0,.47,0,.66.66,0,0,0,.22-.22,2.11,2.11,0,0,0,.25-1.93m8.77,6.71a11.46,11.46,0,0,0-.79,1.66m.16.59a17.74,17.74,0,0,0-1.79-.14,3,3,0,0,0-1.22.16,1.13,1.13,0,0,0-.73.93.58.58,0,0,0,0,.26.65.65,0,0,0,.41.27,7.38,7.38,0,0,0,2.29.28,3.06,3.06,0,0,0,1.74-.39c.33-.23.59-.68.38-1a1,1,0,0,0-.57-.36,4.17,4.17,0,0,0-1.17-.15M114.74,140a9.84,9.84,0,1,1-9.84-9.84A9.84,9.84,0,0,1,114.74,140Zm-6.13-2.22a1,1,0,0,0-.94.44,2.41,2.41,0,0,0-.34,1,2.62,2.62,0,0,0,.51,2.24,1.66,1.66,0,0,0,1.26.44,2.16,2.16,0,0,0,1.23-.52,1.57,1.57,0,0,0,.47-.64,1.55,1.55,0,0,0,.07-.61,2.58,2.58,0,0,0-1-1.83,2.78,2.78,0,0,0-2-.58m-7.69-4.18a3.33,3.33,0,0,0-1.53,2.51,1,1,0,0,0,.16.71.77.77,0,0,0,.87.16,2.07,2.07,0,0,0,.72-.6,3.66,3.66,0,0,0,1-2.15.83.83,0,0,0-.09-.44.74.74,0,0,0-.48-.26,1.34,1.34,0,0,0-.93.23m2.29,2.84-.26-.12a1.18,1.18,0,0,0-.87-.13m6.43,3.61h-1.47m-6.72,3.26a1.71,1.71,0,0,1-.55,0,.51.51,0,0,0-.51.14.58.58,0,0,0-.09.34A2.42,2.42,0,0,0,99.93,146a3.25,3.25,0,0,0,.93.11,2,2,0,0,0,.73-.13.79.79,0,0,0,.33-1.26,2.3,2.3,0,0,0-.6-.52,17,17,0,0,0-1.78-1c-.14-.08-.33-.14-.45,0m2.54-.65a4.2,4.2,0,0,0-.88,1.14m14.07,3.73a3.35,3.35,0,0,0-1.57.56,4.26,4.26,0,0,0-1.1.88,2,2,0,0,0-.51,1.3.33.33,0,0,0,0,.14.21.21,0,0,0,.12.07,1.42,1.42,0,0,0,1-.1,4.75,4.75,0,0,0,.85-.55l1.24-1c.27-.2.57-.46.55-.8a.55.55,0,0,0-.61-.5m-3.2,0a4,4,0,0,0,.59.75m2-10.73.78-.37m.74-1.39a1.44,1.44,0,0,0-.45-.17,1.31,1.31,0,0,0-.09.71,5.35,5.35,0,0,0,1,2.57c.18.25.45.52.75.43a.77.77,0,0,0,.35-.34,1.78,1.78,0,0,0,.35-1,2.15,2.15,0,0,0-.67-1.25,3.31,3.31,0,0,0-1.83-1.29m-7-4.64.24-.74m-.46-.14a21.68,21.68,0,0,0,2.28,0c.22,0,.48-.06.56-.26a.41.41,0,0,0-.17-.44,1.31,1.31,0,0,0-.47-.16l-1.18-.21a4.6,4.6,0,0,0-1.38-.11,1.54,1.54,0,0,0-1.16.66m.2.18a1.65,1.65,0,0,0,1.28.48m-10.14,3s0,0,0,0,0,0,0-.05a4.08,4.08,0,0,0-.71-.32m-.7,0a5.83,5.83,0,0,0,1.36-2.28.26.26,0,0,0,0-.21.22.22,0,0,0-.11-.05,1.3,1.3,0,0,0-1.18.34,3.17,3.17,0,0,0-.72,1.05,3.57,3.57,0,0,0-.41,1.65c0,.16.1.37.25.34a.21.21,0,0,0,.11-.07,2.58,2.58,0,0,0,.68-.89m-1.36,9.29a2.42,2.42,0,0,0-1.37.46m-.19-.33a4.13,4.13,0,0,0-1.07-1.37.92.92,0,0,0-.61-.21.78.78,0,0,0-.6.44,1.63,1.63,0,0,0-.13.76,2.73,2.73,0,0,0,.4,1.45,1.9,1.9,0,0,0,1.22.85.69.69,0,0,0,.47,0,.66.66,0,0,0,.22-.22,2.11,2.11,0,0,0,.25-1.93m8.77,6.71a11.46,11.46,0,0,0-.79,1.66m.16.59a17.74,17.74,0,0,0-1.79-.14,3,3,0,0,0-1.22.16,1.13,1.13,0,0,0-.73.93.58.58,0,0,0,0,.26.65.65,0,0,0,.41.27,7.38,7.38,0,0,0,2.29.28,3.06,3.06,0,0,0,1.74-.39c.33-.23.59-.68.38-1a1,1,0,0,0-.57-.36,4.17,4.17,0,0,0-1.17-.15M107.74,105a9.84,9.84,0,1,1-9.84-9.84A9.84,9.84,0,0,1,107.74,105Zm-6.13-2.22a1,1,0,0,0-.94.44,2.41,2.41,0,0,0-.34,1,2.62,2.62,0,0,0,.51,2.24,1.66,1.66,0,0,0,1.26.44,2.16,2.16,0,0,0,1.23-.52,1.57,1.57,0,0,0,.47-.64,1.55,1.55,0,0,0,.07-.61,2.58,2.58,0,0,0-1-1.83,2.78,2.78,0,0,0-2-.58m-7.69-4.18a3.33,3.33,0,0,0-1.53,2.51,1,1,0,0,0,.16.71.77.77,0,0,0,.87.16,2.07,2.07,0,0,0,.72-.6,3.66,3.66,0,0,0,1-2.15.83.83,0,0,0-.09-.44.74.74,0,0,0-.48-.26,1.34,1.34,0,0,0-.93.23m2.29,2.84-.26-.12a1.18,1.18,0,0,0-.87-.13m6.43,3.61H99.08m-6.72,3.26a1.71,1.71,0,0,1-.55,0,.51.51,0,0,0-.51.14.58.58,0,0,0-.09.34A2.42,2.42,0,0,0,92.93,111a3.25,3.25,0,0,0,.93.11,2,2,0,0,0,.73-.13.79.79,0,0,0,.33-1.26,2.3,2.3,0,0,0-.6-.52,17,17,0,0,0-1.78-1c-.14-.08-.33-.14-.45,0m2.54-.65a4.2,4.2,0,0,0-.88,1.14m14.07,3.73a3.35,3.35,0,0,0-1.57.56,4.26,4.26,0,0,0-1.1.88,2,2,0,0,0-.51,1.3.33.33,0,0,0,0,.14.21.21,0,0,0,.12.07,1.42,1.42,0,0,0,1-.1,4.75,4.75,0,0,0,.85-.55l1.24-1c.27-.2.57-.46.55-.8a.55.55,0,0,0-.61-.5m-3.2,0a4,4,0,0,0,.59.75m2-10.73.78-.37m.74-1.39a1.44,1.44,0,0,0-.45-.17,1.31,1.31,0,0,0-.09.71,5.35,5.35,0,0,0,1,2.57c.18.25.45.52.75.43a.77.77,0,0,0,.35-.34,1.78,1.78,0,0,0,.35-1,2.15,2.15,0,0,0-.67-1.25,3.31,3.31,0,0,0-1.83-1.29m-7-4.64.24-.74m-.46-.14a21.68,21.68,0,0,0,2.28,0c.22,0,.48-.06.56-.26a.41.41,0,0,0-.17-.44,1.31,1.31,0,0,0-.47-.16l-1.18-.21a4.6,4.6,0,0,0-1.38-.11,1.54,1.54,0,0,0-1.16.66m.2.18a1.65,1.65,0,0,0,1.28.48M90.69,98s0,0,0,0,0,0,0,0a4.08,4.08,0,0,0-.71-.32m-.7,0a5.83,5.83,0,0,0,1.36-2.28.26.26,0,0,0,0-.21.22.22,0,0,0-.11,0,1.3,1.3,0,0,0-1.18.34,3.17,3.17,0,0,0-.72,1,3.57,3.57,0,0,0-.41,1.65c0,.16.1.37.25.34a.21.21,0,0,0,.11-.07,2.58,2.58,0,0,0,.68-.89m-1.36,9.29a2.42,2.42,0,0,0-1.37.46m-.19-.33a4.13,4.13,0,0,0-1.07-1.37.92.92,0,0,0-.61-.21.78.78,0,0,0-.6.44,1.63,1.63,0,0,0-.13.76,2.73,2.73,0,0,0,.4,1.45,1.9,1.9,0,0,0,1.22.85.69.69,0,0,0,.47,0,.66.66,0,0,0,.22-.22,2.11,2.11,0,0,0,.25-1.93m8.77,6.71a11.46,11.46,0,0,0-.79,1.66m.16.59a17.74,17.74,0,0,0-1.79-.14,3,3,0,0,0-1.22.16,1.13,1.13,0,0,0-.73.93.58.58,0,0,0,0,.26.65.65,0,0,0,.41.27,7.38,7.38,0,0,0,2.29.28,3.06,3.06,0,0,0,1.74-.39c.33-.23.59-.68.38-1a1,1,0,0,0-.57-.36,4.17,4.17,0,0,0-1.17-.15M64.74,133a9.84,9.84,0,1,1-9.84-9.84A9.84,9.84,0,0,1,64.74,133Zm-6.13-2.22a1,1,0,0,0-.94.44,2.41,2.41,0,0,0-.34,1,2.62,2.62,0,0,0,.51,2.24,1.66,1.66,0,0,0,1.26.44,2.16,2.16,0,0,0,1.23-.52,1.57,1.57,0,0,0,.47-.64,1.55,1.55,0,0,0,.07-.61,2.58,2.58,0,0,0-1-1.83,2.78,2.78,0,0,0-2-.58m-7.69-4.18a3.33,3.33,0,0,0-1.53,2.51,1,1,0,0,0,.16.71.77.77,0,0,0,.87.16,2.07,2.07,0,0,0,.72-.6,3.66,3.66,0,0,0,1-2.15.83.83,0,0,0-.09-.44.74.74,0,0,0-.48-.26,1.34,1.34,0,0,0-.93.23m2.29,2.84-.26-.12a1.18,1.18,0,0,0-.87-.13M57.55,133H56.08m-6.72,3.26a1.71,1.71,0,0,1-.55,0,.51.51,0,0,0-.51.14.58.58,0,0,0-.09.34A2.42,2.42,0,0,0,49.93,139a3.25,3.25,0,0,0,.93.11,2,2,0,0,0,.73-.13.79.79,0,0,0,.33-1.26,2.3,2.3,0,0,0-.6-.52,17,17,0,0,0-1.78-1c-.14-.08-.33-.14-.45,0m2.54-.65a4.2,4.2,0,0,0-.88,1.14m14.07,3.73a3.35,3.35,0,0,0-1.57.56,4.26,4.26,0,0,0-1.1.88,2,2,0,0,0-.51,1.3.33.33,0,0,0,0,.14.21.21,0,0,0,.12.07,1.42,1.42,0,0,0,1-.1,4.75,4.75,0,0,0,.85-.55l1.24-1c.27-.2.57-.46.55-.8a.55.55,0,0,0-.61-.5m-3.2,0a4,4,0,0,0,.59.75m2-10.73.78-.37m.74-1.39a1.44,1.44,0,0,0-.45-.17,1.31,1.31,0,0,0-.09.71,5.35,5.35,0,0,0,1,2.57c.18.25.45.52.75.43a.77.77,0,0,0,.35-.34,1.78,1.78,0,0,0,.35-1,2.15,2.15,0,0,0-.67-1.25,3.31,3.31,0,0,0-1.83-1.29m-7-4.64.24-.74m-.46-.14a21.68,21.68,0,0,0,2.28,0c.22,0,.48-.06.56-.26a.41.41,0,0,0-.17-.44,1.31,1.31,0,0,0-.47-.16l-1.18-.21a4.6,4.6,0,0,0-1.38-.11,1.54,1.54,0,0,0-1.16.66m.2.18a1.65,1.65,0,0,0,1.28.48M47.69,126s0,0,0,0,0,0,0,0a4.08,4.08,0,0,0-.71-.32m-.7,0a5.83,5.83,0,0,0,1.36-2.28.26.26,0,0,0,0-.21.22.22,0,0,0-.11,0,1.3,1.3,0,0,0-1.18.34,3.17,3.17,0,0,0-.72,1,3.57,3.57,0,0,0-.41,1.65c0,.16.1.37.25.34a.21.21,0,0,0,.11-.07,2.58,2.58,0,0,0,.68-.89m-1.36,9.29a2.42,2.42,0,0,0-1.37.46m-.19-.33a4.13,4.13,0,0,0-1.07-1.37.92.92,0,0,0-.61-.21.78.78,0,0,0-.6.44,1.63,1.63,0,0,0-.13.76,2.73,2.73,0,0,0,.4,1.45,1.9,1.9,0,0,0,1.22.85.69.69,0,0,0,.47,0,.66.66,0,0,0,.22-.22,2.11,2.11,0,0,0,.25-1.93m8.77,6.71a11.46,11.46,0,0,0-.79,1.66m.16.59a17.74,17.74,0,0,0-1.79-.14,3,3,0,0,0-1.22.16,1.13,1.13,0,0,0-.73.93.58.58,0,0,0,0,.26.65.65,0,0,0,.41.27,7.38,7.38,0,0,0,2.29.28,3.06,3.06,0,0,0,1.74-.39c.33-.23.59-.68.38-1a1,1,0,0,0-.57-.36,4.17,4.17,0,0,0-1.17-.15M65.74,84a9.84,9.84,0,1,1-9.84-9.84A9.84,9.84,0,0,1,65.74,84Zm-6.13-2.22a1,1,0,0,0-.94.44,2.41,2.41,0,0,0-.34,1,2.62,2.62,0,0,0,.51,2.24A1.66,1.66,0,0,0,60.1,86a2.16,2.16,0,0,0,1.23-.52,1.57,1.57,0,0,0,.47-.64,1.55,1.55,0,0,0,.07-.61,2.58,2.58,0,0,0-1-1.83,2.78,2.78,0,0,0-2-.58m-7.69-4.18a3.33,3.33,0,0,0-1.53,2.51,1,1,0,0,0,.16.71.77.77,0,0,0,.87.16,2.07,2.07,0,0,0,.72-.6,3.66,3.66,0,0,0,1-2.15.83.83,0,0,0-.09-.44.74.74,0,0,0-.48-.26,1.34,1.34,0,0,0-.93.23m2.29,2.84L53,80.49a1.18,1.18,0,0,0-.87-.13M58.55,84H57.08m-6.72,3.26a1.71,1.71,0,0,1-.55,0,.51.51,0,0,0-.51.14.58.58,0,0,0-.09.34A2.42,2.42,0,0,0,50.93,90a3.25,3.25,0,0,0,.93.11,2,2,0,0,0,.73-.13.79.79,0,0,0,.33-1.26,2.3,2.3,0,0,0-.6-.52,17,17,0,0,0-1.78-1c-.14-.08-.33-.14-.45,0m2.54-.65a4.2,4.2,0,0,0-.88,1.14m14.07,3.73a3.35,3.35,0,0,0-1.57.56,4.26,4.26,0,0,0-1.1.88,2,2,0,0,0-.51,1.3.33.33,0,0,0,0,.14.21.21,0,0,0,.12.07,1.42,1.42,0,0,0,1-.1,4.75,4.75,0,0,0,.85-.55l1.24-1c.27-.2.57-.46.55-.8a.55.55,0,0,0-.61-.5m-3.2,0a4,4,0,0,0,.59.75m2-10.73.78-.37m.74-1.39a1.44,1.44,0,0,0-.45-.17,1.31,1.31,0,0,0-.09.71,5.35,5.35,0,0,0,1,2.57c.18.25.45.52.75.43a.77.77,0,0,0,.35-.34,1.78,1.78,0,0,0,.35-1A2.15,2.15,0,0,0,68,80.66a3.31,3.31,0,0,0-1.83-1.29m-7-4.64.24-.74m-.46-.14a21.68,21.68,0,0,0,2.28,0c.22,0,.48-.06.56-.26a.41.41,0,0,0-.17-.44,1.31,1.31,0,0,0-.47-.16l-1.18-.21a4.6,4.6,0,0,0-1.38-.11,1.54,1.54,0,0,0-1.16.66m.2.18a1.65,1.65,0,0,0,1.28.48M48.69,77s0,0,0,0,0,0,0,0a4.08,4.08,0,0,0-.71-.32m-.7,0a5.83,5.83,0,0,0,1.36-2.28.26.26,0,0,0,0-.21.22.22,0,0,0-.11,0,1.3,1.3,0,0,0-1.18.34,3.17,3.17,0,0,0-.72,1,3.57,3.57,0,0,0-.41,1.65c0,.16.1.37.25.34a.21.21,0,0,0,.11-.07,2.58,2.58,0,0,0,.68-.89M45.9,85.87a2.42,2.42,0,0,0-1.37.46M44.34,86a4.13,4.13,0,0,0-1.07-1.37.92.92,0,0,0-.61-.21.78.78,0,0,0-.6.44,1.63,1.63,0,0,0-.13.76,2.73,2.73,0,0,0,.4,1.45,1.9,1.9,0,0,0,1.22.85.69.69,0,0,0,.47,0,.66.66,0,0,0,.22-.22,2.11,2.11,0,0,0,.25-1.93m8.77,6.71a11.46,11.46,0,0,0-.79,1.66m.16.59a17.74,17.74,0,0,0-1.79-.14,3,3,0,0,0-1.22.16,1.13,1.13,0,0,0-.73.93.58.58,0,0,0,0,.26.65.65,0,0,0,.41.27,7.38,7.38,0,0,0,2.29.28,3.06,3.06,0,0,0,1.74-.39c.33-.23.59-.68.38-1a1,1,0,0,0-.57-.36A4.17,4.17,0,0,0,52,94.52M65.74,84a9.84,9.84,0,1,1-9.84-9.84A9.84,9.84,0,0,1,65.74,84Zm-6.13-2.22a1,1,0,0,0-.94.44,2.41,2.41,0,0,0-.34,1,2.62,2.62,0,0,0,.51,2.24A1.66,1.66,0,0,0,60.1,86a2.16,2.16,0,0,0,1.23-.52,1.57,1.57,0,0,0,.47-.64,1.55,1.55,0,0,0,.07-.61,2.58,2.58,0,0,0-1-1.83,2.78,2.78,0,0,0-2-.58m-7.69-4.18a3.33,3.33,0,0,0-1.53,2.51,1,1,0,0,0,.16.71.77.77,0,0,0,.87.16,2.07,2.07,0,0,0,.72-.6,3.66,3.66,0,0,0,1-2.15.83.83,0,0,0-.09-.44.74.74,0,0,0-.48-.26,1.34,1.34,0,0,0-.93.23m2.29,2.84L53,80.49a1.18,1.18,0,0,0-.87-.13M58.55,84H57.08m-6.72,3.26a1.71,1.71,0,0,1-.55,0,.51.51,0,0,0-.51.14.58.58,0,0,0-.09.34A2.42,2.42,0,0,0,50.93,90a3.25,3.25,0,0,0,.93.11,2,2,0,0,0,.73-.13.79.79,0,0,0,.33-1.26,2.3,2.3,0,0,0-.6-.52,17,17,0,0,0-1.78-1c-.14-.08-.33-.14-.45,0m2.54-.65a4.2,4.2,0,0,0-.88,1.14m14.07,3.73a3.35,3.35,0,0,0-1.57.56,4.26,4.26,0,0,0-1.1.88,2,2,0,0,0-.51,1.3.33.33,0,0,0,0,.14.21.21,0,0,0,.12.07,1.42,1.42,0,0,0,1-.1,4.75,4.75,0,0,0,.85-.55l1.24-1c.27-.2.57-.46.55-.8a.55.55,0,0,0-.61-.5m-3.2,0a4,4,0,0,0,.59.75m2-10.73.78-.37m.74-1.39a1.44,1.44,0,0,0-.45-.17,1.31,1.31,0,0,0-.09.71,5.35,5.35,0,0,0,1,2.57c.18.25.45.52.75.43a.77.77,0,0,0,.35-.34,1.78,1.78,0,0,0,.35-1A2.15,2.15,0,0,0,68,80.66a3.31,3.31,0,0,0-1.83-1.29m-7-4.64.24-.74m-.46-.14a21.68,21.68,0,0,0,2.28,0c.22,0,.48-.06.56-.26a.41.41,0,0,0-.17-.44,1.31,1.31,0,0,0-.47-.16l-1.18-.21a4.6,4.6,0,0,0-1.38-.11,1.54,1.54,0,0,0-1.16.66m.2.18a1.65,1.65,0,0,0,1.28.48M48.69,77s0,0,0,0,0,0,0,0a4.08,4.08,0,0,0-.71-.32m-.7,0a5.83,5.83,0,0,0,1.36-2.28.26.26,0,0,0,0-.21.22.22,0,0,0-.11,0,1.3,1.3,0,0,0-1.18.34,3.17,3.17,0,0,0-.72,1,3.57,3.57,0,0,0-.41,1.65c0,.16.1.37.25.34a.21.21,0,0,0,.11-.07,2.58,2.58,0,0,0,.68-.89M45.9,85.87a2.42,2.42,0,0,0-1.37.46M44.34,86a4.13,4.13,0,0,0-1.07-1.37.92.92,0,0,0-.61-.21.78.78,0,0,0-.6.44,1.63,1.63,0,0,0-.13.76,2.73,2.73,0,0,0,.4,1.45,1.9,1.9,0,0,0,1.22.85.69.69,0,0,0,.47,0,.66.66,0,0,0,.22-.22,2.11,2.11,0,0,0,.25-1.93m8.77,6.71a11.46,11.46,0,0,0-.79,1.66m.16.59a17.74,17.74,0,0,0-1.79-.14,3,3,0,0,0-1.22.16,1.13,1.13,0,0,0-.73.93.58.58,0,0,0,0,.26.65.65,0,0,0,.41.27,7.38,7.38,0,0,0,2.29.28,3.06,3.06,0,0,0,1.74-.39c.33-.23.59-.68.38-1a1,1,0,0,0-.57-.36A4.17,4.17,0,0,0,52,94.52m96.55,39.05a9.84,9.84,0,1,1-9.83-9.84A9.83,9.83,0,0,1,148.57,133.57Zm-6.13-2.22a1,1,0,0,0-.94.44,2.4,2.4,0,0,0-.33,1,2.59,2.59,0,0,0,.51,2.24,1.65,1.65,0,0,0,1.25.44,2.19,2.19,0,0,0,1.24-.52,1.52,1.52,0,0,0,.46-.64,1.56,1.56,0,0,0,.08-.61,2.63,2.63,0,0,0-1-1.83,2.81,2.81,0,0,0-2-.58m-7.69-4.18a3.31,3.31,0,0,0-1.53,2.51,1,1,0,0,0,.15.71.77.77,0,0,0,.87.16,2,2,0,0,0,.72-.6,3.66,3.66,0,0,0,1-2.15.75.75,0,0,0-.09-.44.66.66,0,0,0-.48-.26,1.35,1.35,0,0,0-.92.22m2.28,2.84-.25-.11a1.19,1.19,0,0,0-.88-.13m6.43,3.61h-1.47m-6.71,3.26a1.54,1.54,0,0,1-.56-.05.55.55,0,0,0-.51.15.56.56,0,0,0-.08.33,2.42,2.42,0,0,0,1.72,2.3,3.2,3.2,0,0,0,.93.11,2,2,0,0,0,.72-.13.87.87,0,0,0,.5-.51.85.85,0,0,0-.17-.75,2,2,0,0,0-.59-.52c-.57-.37-1.18-.67-1.78-1-.15-.07-.34-.13-.45,0m2.53-.65a4.64,4.64,0,0,0-.88,1.14m14.07,3.73a3.31,3.31,0,0,0-1.56.56,4.15,4.15,0,0,0-1.11.88,2,2,0,0,0-.5,1.3.23.23,0,0,0,0,.14s.07,0,.12.07a1.48,1.48,0,0,0,1-.1,4.75,4.75,0,0,0,.85-.55l1.24-.95c.27-.21.56-.47.55-.8a.56.56,0,0,0-.61-.5m-3.21.05a4,4,0,0,0,.6.75m2.79-11.1-.78.37m1.51-1.76a1.23,1.23,0,0,0-.45-.17,1.31,1.31,0,0,0-.09.71,5.45,5.45,0,0,0,1,2.57c.18.25.46.52.75.43a.74.74,0,0,0,.36-.34,1.93,1.93,0,0,0,.35-1,2.27,2.27,0,0,0-.67-1.25,3.33,3.33,0,0,0-1.84-1.29m-6.81-5.38-.24.73m-.21-.87a21.46,21.46,0,0,0,2.27,0c.22,0,.49-.06.56-.26a.4.4,0,0,0-.17-.44,1.19,1.19,0,0,0-.47-.16l-1.18-.21a4.22,4.22,0,0,0-1.37-.11,1.58,1.58,0,0,0-1.17.66m.21.18a1.65,1.65,0,0,0,1.27.48m-10.14,3s0,0,0,0a.07.07,0,0,0,0,0,3.5,3.5,0,0,0-.71-.32m-.7,0a5.74,5.74,0,0,0,1.37-2.28c0-.07,0-.16,0-.21a.24.24,0,0,0-.1,0,1.32,1.32,0,0,0-1.19.34,3,3,0,0,0-.71,1,3.58,3.58,0,0,0-.42,1.65c0,.16.1.37.26.33a.24.24,0,0,0,.11-.06,2.65,2.65,0,0,0,.67-.89m-1.35,9.29a2.4,2.4,0,0,0-1.37.46m-.2-.33a4,4,0,0,0-1.07-1.38,1,1,0,0,0-.6-.21.81.81,0,0,0-.6.45,1.64,1.64,0,0,0-.14.76,2.82,2.82,0,0,0,.4,1.45,1.9,1.9,0,0,0,1.22.85.72.72,0,0,0,.48-.05.73.73,0,0,0,.21-.22,2.11,2.11,0,0,0,.26-1.93m8.76,6.71a10.05,10.05,0,0,0-.78,1.66m.16.59a15.41,15.41,0,0,0-1.79-.14,3,3,0,0,0-1.23.16,1.15,1.15,0,0,0-.73.93.58.58,0,0,0,.05.26.68.68,0,0,0,.42.27,7.28,7.28,0,0,0,2.28.28,3.13,3.13,0,0,0,1.74-.39c.33-.23.59-.68.38-1a.91.91,0,0,0-.56-.36,3.9,3.9,0,0,0-1.18-.15m13.72-10.49a9.84,9.84,0,1,1-9.83-9.84A9.83,9.83,0,0,1,148.57,133.57Zm-6.13-2.22a1,1,0,0,0-.94.44,2.4,2.4,0,0,0-.33,1,2.59,2.59,0,0,0,.51,2.24,1.65,1.65,0,0,0,1.25.44,2.19,2.19,0,0,0,1.24-.52,1.52,1.52,0,0,0,.46-.64,1.56,1.56,0,0,0,.08-.61,2.63,2.63,0,0,0-1-1.83,2.81,2.81,0,0,0-2-.58m-7.69-4.18a3.31,3.31,0,0,0-1.53,2.51,1,1,0,0,0,.15.71.77.77,0,0,0,.87.16,2,2,0,0,0,.72-.6,3.66,3.66,0,0,0,1-2.15.75.75,0,0,0-.09-.44.66.66,0,0,0-.48-.26,1.35,1.35,0,0,0-.92.22m2.28,2.84-.25-.11a1.19,1.19,0,0,0-.88-.13m6.43,3.61h-1.47m-6.71,3.26a1.54,1.54,0,0,1-.56-.05.55.55,0,0,0-.51.15.56.56,0,0,0-.08.33,2.42,2.42,0,0,0,1.72,2.3,3.2,3.2,0,0,0,.93.11,2,2,0,0,0,.72-.13.87.87,0,0,0,.5-.51.85.85,0,0,0-.17-.75,2,2,0,0,0-.59-.52c-.57-.37-1.18-.67-1.78-1-.15-.07-.34-.13-.45,0m2.53-.65a4.64,4.64,0,0,0-.88,1.14m14.07,3.73a3.31,3.31,0,0,0-1.56.56,4.15,4.15,0,0,0-1.11.88,2,2,0,0,0-.5,1.3.23.23,0,0,0,0,.14s.07,0,.12.07a1.48,1.48,0,0,0,1-.1,4.75,4.75,0,0,0,.85-.55l1.24-.95c.27-.21.56-.47.55-.8a.56.56,0,0,0-.61-.5m-3.21.05a4,4,0,0,0,.6.75m2.79-11.1-.78.37m1.51-1.76a1.23,1.23,0,0,0-.45-.17,1.31,1.31,0,0,0-.09.71,5.45,5.45,0,0,0,1,2.57c.18.25.46.52.75.43a.74.74,0,0,0,.36-.34,1.93,1.93,0,0,0,.35-1,2.27,2.27,0,0,0-.67-1.25,3.33,3.33,0,0,0-1.84-1.29m-6.81-5.38-.24.73m-.21-.87a21.46,21.46,0,0,0,2.27,0c.22,0,.49-.06.56-.26a.4.4,0,0,0-.17-.44,1.19,1.19,0,0,0-.47-.16l-1.18-.21a4.22,4.22,0,0,0-1.37-.11,1.58,1.58,0,0,0-1.17.66m.21.18a1.65,1.65,0,0,0,1.27.48m-10.14,3s0,0,0,0a.07.07,0,0,0,0,0,3.5,3.5,0,0,0-.71-.32m-.7,0a5.74,5.74,0,0,0,1.37-2.28c0-.07,0-.16,0-.21a.24.24,0,0,0-.1,0,1.32,1.32,0,0,0-1.19.34,3,3,0,0,0-.71,1,3.58,3.58,0,0,0-.42,1.65c0,.16.1.37.26.33a.24.24,0,0,0,.11-.06,2.65,2.65,0,0,0,.67-.89m-1.35,9.29a2.4,2.4,0,0,0-1.37.46m-.2-.33a4,4,0,0,0-1.07-1.38,1,1,0,0,0-.6-.21.81.81,0,0,0-.6.45,1.64,1.64,0,0,0-.14.76,2.82,2.82,0,0,0,.4,1.45,1.9,1.9,0,0,0,1.22.85.72.72,0,0,0,.48-.05.73.73,0,0,0,.21-.22,2.11,2.11,0,0,0,.26-1.93m8.76,6.71a10.05,10.05,0,0,0-.78,1.66m.16.59a15.41,15.41,0,0,0-1.79-.14,3,3,0,0,0-1.23.16,1.15,1.15,0,0,0-.73.93.58.58,0,0,0,.05.26.68.68,0,0,0,.42.27,7.28,7.28,0,0,0,2.28.28,3.13,3.13,0,0,0,1.74-.39c.33-.23.59-.68.38-1a.91.91,0,0,0-.56-.36,3.9,3.9,0,0,0-1.18-.15m-26.1,35.19a9.84,9.84,0,1,1-9.84-9.84A9.84,9.84,0,0,1,108.75,179.25ZM102.62,177a1,1,0,0,0-.94.44,2.41,2.41,0,0,0-.34,1,2.62,2.62,0,0,0,.51,2.24,1.66,1.66,0,0,0,1.26.44,2.16,2.16,0,0,0,1.23-.52,1.64,1.64,0,0,0,.47-.64,1.55,1.55,0,0,0,.07-.61,2.59,2.59,0,0,0-1-1.83,2.78,2.78,0,0,0-2-.58m-7.69-4.18a3.33,3.33,0,0,0-1.53,2.51,1,1,0,0,0,.16.71.76.76,0,0,0,.86.16,1.9,1.9,0,0,0,.72-.6,3.67,3.67,0,0,0,1-2.15.83.83,0,0,0-.09-.44.74.74,0,0,0-.48-.26A1.33,1.33,0,0,0,94,173m2.29,2.84-.26-.12a1.18,1.18,0,0,0-.87-.13m6.43,3.61h-1.47m-6.72,3.26a1.71,1.71,0,0,1-.55,0,.54.54,0,0,0-.52.14.66.66,0,0,0-.08.34,2.42,2.42,0,0,0,1.72,2.29,3.25,3.25,0,0,0,.93.11,2,2,0,0,0,.73-.13.79.79,0,0,0,.33-1.26,2.3,2.3,0,0,0-.6-.52,17,17,0,0,0-1.78-1c-.14-.08-.33-.14-.45,0m2.54-.65a4.2,4.2,0,0,0-.88,1.14m14.07,3.73a3.35,3.35,0,0,0-1.57.56,4.31,4.31,0,0,0-1.11.88,2,2,0,0,0-.5,1.3.33.33,0,0,0,0,.14.21.21,0,0,0,.12.07,1.42,1.42,0,0,0,1-.1,4.75,4.75,0,0,0,.85-.55l1.24-1c.27-.2.57-.47.55-.8a.55.55,0,0,0-.61-.5m-3.2,0a4,4,0,0,0,.59.75m2-10.73.78-.37m.73-1.39a1.3,1.3,0,0,0-.44-.17,1.31,1.31,0,0,0-.09.71,5.35,5.35,0,0,0,1,2.57c.18.25.45.52.75.43a.77.77,0,0,0,.35-.34,1.78,1.78,0,0,0,.35-1,2.15,2.15,0,0,0-.67-1.25,3.31,3.31,0,0,0-1.83-1.29M102.09,170l.24-.74m-.45-.14a21.68,21.68,0,0,0,2.28,0c.22,0,.48-.06.56-.26a.43.43,0,0,0-.17-.44,1.31,1.31,0,0,0-.47-.16L102.9,168a4.6,4.6,0,0,0-1.38-.11,1.54,1.54,0,0,0-1.16.66m.2.18a1.65,1.65,0,0,0,1.28.48m-10.14,3s0,0,0,0,0,0,0-.05a3.68,3.68,0,0,0-.7-.32m-.71,0a5.74,5.74,0,0,0,1.37-2.28.22.22,0,0,0,0-.21.16.16,0,0,0-.1-.05,1.3,1.3,0,0,0-1.18.34,3,3,0,0,0-.72,1.05,3.57,3.57,0,0,0-.41,1.65c0,.16.1.37.25.34a.21.21,0,0,0,.11-.07,2.58,2.58,0,0,0,.68-.89m-1.36,9.29a2.42,2.42,0,0,0-1.37.46m-.19-.33a4.13,4.13,0,0,0-1.07-1.37.92.92,0,0,0-.61-.21.78.78,0,0,0-.6.44,1.63,1.63,0,0,0-.13.76,2.64,2.64,0,0,0,.4,1.45,1.85,1.85,0,0,0,1.21.85.71.71,0,0,0,.48,0,.66.66,0,0,0,.22-.22,2.11,2.11,0,0,0,.25-1.93m8.76,6.71a12,12,0,0,0-.78,1.66m.16.59a15.24,15.24,0,0,0-1.79-.14,3,3,0,0,0-1.22.16,1.13,1.13,0,0,0-.73.93.58.58,0,0,0,0,.26.65.65,0,0,0,.41.27,7.38,7.38,0,0,0,2.29.28,3.06,3.06,0,0,0,1.74-.39c.33-.23.59-.68.38-1a1,1,0,0,0-.57-.36,4.17,4.17,0,0,0-1.17-.15M34.75,236.25a9.84,9.84,0,1,1-9.84-9.84A9.84,9.84,0,0,1,34.75,236.25ZM28.62,234a1,1,0,0,0-.94.44,2.41,2.41,0,0,0-.34,1,2.62,2.62,0,0,0,.51,2.24,1.66,1.66,0,0,0,1.26.44,2.16,2.16,0,0,0,1.23-.52,1.64,1.64,0,0,0,.47-.64,1.55,1.55,0,0,0,.07-.61,2.59,2.59,0,0,0-1-1.83,2.78,2.78,0,0,0-2-.58m-7.69-4.18a3.33,3.33,0,0,0-1.53,2.51,1,1,0,0,0,.16.71.76.76,0,0,0,.86.16,1.9,1.9,0,0,0,.72-.6,3.67,3.67,0,0,0,1-2.15.83.83,0,0,0-.09-.44.74.74,0,0,0-.48-.26A1.33,1.33,0,0,0,20,230m2.29,2.84-.26-.12a1.18,1.18,0,0,0-.87-.13m6.43,3.61H26.09m-6.72,3.26a1.71,1.71,0,0,1-.55,0,.54.54,0,0,0-.52.14.66.66,0,0,0-.08.34,2.42,2.42,0,0,0,1.72,2.29,3.25,3.25,0,0,0,.93.11,2,2,0,0,0,.73-.13.79.79,0,0,0,.33-1.26,2.3,2.3,0,0,0-.6-.52,17,17,0,0,0-1.78-1c-.14-.08-.33-.14-.45,0m2.54-.65a4.2,4.2,0,0,0-.88,1.14m14.07,3.73a3.35,3.35,0,0,0-1.57.56,4.31,4.31,0,0,0-1.11.88,2,2,0,0,0-.5,1.3.33.33,0,0,0,0,.14.21.21,0,0,0,.12.07,1.42,1.42,0,0,0,1-.1,4.75,4.75,0,0,0,.85-.55l1.24-1c.27-.2.57-.47.55-.8a.55.55,0,0,0-.61-.5m-3.2,0a4,4,0,0,0,.59.75m2-10.73.78-.37m.73-1.39a1.3,1.3,0,0,0-.44-.17,1.31,1.31,0,0,0-.09.71,5.35,5.35,0,0,0,1,2.57c.18.25.45.52.75.43a.77.77,0,0,0,.35-.34,1.78,1.78,0,0,0,.35-1,2.15,2.15,0,0,0-.67-1.25,3.31,3.31,0,0,0-1.83-1.29M28.09,227l.24-.74m-.45-.14a21.68,21.68,0,0,0,2.28,0c.22,0,.48-.06.56-.26a.43.43,0,0,0-.17-.44,1.31,1.31,0,0,0-.47-.16L28.9,225a4.6,4.6,0,0,0-1.38-.11,1.54,1.54,0,0,0-1.16.66m.2.18a1.65,1.65,0,0,0,1.28.48m-10.14,3s0,0,0,0,0,0,0-.05a3.68,3.68,0,0,0-.7-.32m-.71,0a5.74,5.74,0,0,0,1.37-2.28.22.22,0,0,0,0-.21.16.16,0,0,0-.1-.05,1.3,1.3,0,0,0-1.18.34,3,3,0,0,0-.72,1.05,3.57,3.57,0,0,0-.41,1.65c0,.16.1.37.25.34a.21.21,0,0,0,.11-.07,2.58,2.58,0,0,0,.68-.89m-1.36,9.29a2.42,2.42,0,0,0-1.37.46m-.19-.33a4.13,4.13,0,0,0-1.07-1.37.92.92,0,0,0-.61-.21.78.78,0,0,0-.6.44,1.63,1.63,0,0,0-.13.76,2.64,2.64,0,0,0,.4,1.45,1.85,1.85,0,0,0,1.21.85.71.71,0,0,0,.48,0,.66.66,0,0,0,.22-.22,2.11,2.11,0,0,0,.25-1.93m8.76,6.71a12,12,0,0,0-.78,1.66m.16.59a15.24,15.24,0,0,0-1.79-.14,3,3,0,0,0-1.22.16,1.13,1.13,0,0,0-.73.93.58.58,0,0,0,.05.26.65.65,0,0,0,.41.27,7.38,7.38,0,0,0,2.29.28,3.06,3.06,0,0,0,1.74-.39c.33-.23.59-.68.38-1a1,1,0,0,0-.57-.36,4.17,4.17,0,0,0-1.17-.15m32.42,86a9.84,9.84,0,1,1-9.83-9.83A9.84,9.84,0,0,1,53.45,332.77Zm-6.13-2.22a1,1,0,0,0-.94.45,2.32,2.32,0,0,0-.33,1,2.57,2.57,0,0,0,.51,2.24,1.68,1.68,0,0,0,1.25.43,2.09,2.09,0,0,0,1.24-.52,1.52,1.52,0,0,0,.46-.63,1.63,1.63,0,0,0,.08-.62,2.65,2.65,0,0,0-1-1.83,2.81,2.81,0,0,0-2-.58M39,326.36a3.27,3.27,0,0,0-1.53,2.5,1,1,0,0,0,.15.71.77.77,0,0,0,.87.16,2,2,0,0,0,.72-.59,3.71,3.71,0,0,0,1-2.15.72.72,0,0,0-.09-.44.63.63,0,0,0-.48-.26,1.25,1.25,0,0,0-.92.22M41,329.35l-.25-.11a1.2,1.2,0,0,0-.88-.14m6.43,3.62H44.79M38.08,336a2.12,2.12,0,0,1-.56-.05.52.52,0,0,0-.51.14.57.57,0,0,0-.08.34,2.42,2.42,0,0,0,1.72,2.3,3.56,3.56,0,0,0,.92.1,1.82,1.82,0,0,0,.73-.13.82.82,0,0,0,.5-.51.89.89,0,0,0-.17-.75,2.27,2.27,0,0,0-.59-.52c-.57-.36-1.18-.67-1.78-1-.15-.07-.34-.14-.45,0m2.53-.64a4.29,4.29,0,0,0-.88,1.14m14.07,3.72a3.31,3.31,0,0,0-1.56.56,4.15,4.15,0,0,0-1.11.88,2,2,0,0,0-.5,1.3.23.23,0,0,0,0,.14.16.16,0,0,0,.11.07,1.42,1.42,0,0,0,1-.1,4.33,4.33,0,0,0,.86-.55l1.24-.95c.27-.2.56-.46.55-.8a.55.55,0,0,0-.61-.49m-3.21.05a4.29,4.29,0,0,0,.6.75m2-10.74.78-.37m.73-1.38a1.25,1.25,0,0,0-.45-.18,1.35,1.35,0,0,0-.09.72,5.45,5.45,0,0,0,1,2.56c.18.25.46.52.75.43a.68.68,0,0,0,.35-.34,1.86,1.86,0,0,0,.36-1,2.3,2.3,0,0,0-.67-1.25,3.38,3.38,0,0,0-1.84-1.29M47,322.74l-.24.73m-.21-.88c.75,0,1.51,0,2.27,0,.22,0,.49-.07.56-.27a.38.38,0,0,0-.17-.43,1.14,1.14,0,0,0-.47-.16l-1.18-.22a4.51,4.51,0,0,0-1.37-.11,1.58,1.58,0,0,0-1.17.66m.21.18a1.58,1.58,0,0,0,1.27.48M36.4,325.75s0,0,0,0a.07.07,0,0,0,0-.05,3.5,3.5,0,0,0-.71-.32m-.7.05a5.85,5.85,0,0,0,1.37-2.28.22.22,0,0,0,0-.21.24.24,0,0,0-.1-.05,1.34,1.34,0,0,0-1.19.34,3.09,3.09,0,0,0-.71,1.06,3.39,3.39,0,0,0-.42,1.64c0,.17.1.38.26.34a.26.26,0,0,0,.11-.07,2.68,2.68,0,0,0,.67-.89m-1.35,9.29a2.4,2.4,0,0,0-1.37.46m-.2-.33A4,4,0,0,0,31,333.37a.88.88,0,0,0-.6-.21.78.78,0,0,0-.6.44,1.66,1.66,0,0,0-.14.76,2.8,2.8,0,0,0,.4,1.45,1.86,1.86,0,0,0,1.22.85.72.72,0,0,0,.48-.05.63.63,0,0,0,.21-.22,2.11,2.11,0,0,0,.26-1.93M41,341.17a10.45,10.45,0,0,0-.78,1.66m.16.59c-.6-.08-1.19-.12-1.79-.14a3,3,0,0,0-1.23.16,1.16,1.16,0,0,0-.73.93.58.58,0,0,0,0,.26.68.68,0,0,0,.42.27,7.59,7.59,0,0,0,2.28.29,3.13,3.13,0,0,0,1.74-.4c.33-.23.59-.68.38-1a.85.85,0,0,0-.56-.35,3.9,3.9,0,0,0-1.18-.15M183.1,290.06a9.84,9.84,0,1,1-9.84-9.84A9.84,9.84,0,0,1,183.1,290.06ZM177,287.84a1,1,0,0,0-.94.44,2.37,2.37,0,0,0-.34,1,2.62,2.62,0,0,0,.51,2.24,1.65,1.65,0,0,0,1.25.44,2.19,2.19,0,0,0,1.24-.52,1.64,1.64,0,0,0,.47-.64,1.55,1.55,0,0,0,.07-.61,2.58,2.58,0,0,0-1-1.83,2.79,2.79,0,0,0-2-.58m-7.69-4.18a3.3,3.3,0,0,0-1.53,2.51,1,1,0,0,0,.15.71.79.79,0,0,0,.87.16,2,2,0,0,0,.72-.6,3.69,3.69,0,0,0,1-2.15.68.68,0,0,0-.09-.44.66.66,0,0,0-.48-.26,1.36,1.36,0,0,0-.92.22m2.29,2.84-.26-.11a1.18,1.18,0,0,0-.87-.13m6.43,3.61h-1.47m-6.72,3.26a1.47,1.47,0,0,1-.55-.05.56.56,0,0,0-.52.15.54.54,0,0,0-.08.33,2.43,2.43,0,0,0,1.72,2.3,2.92,2.92,0,0,0,.93.1,1.76,1.76,0,0,0,.72-.12.87.87,0,0,0,.5-.51.88.88,0,0,0-.16-.75,2.13,2.13,0,0,0-.6-.52c-.57-.37-1.18-.67-1.78-1-.14-.07-.33-.13-.45,0m2.54-.65a4.2,4.2,0,0,0-.88,1.14m14.06,3.73a3.31,3.31,0,0,0-1.56.56,4.31,4.31,0,0,0-1.11.88,2,2,0,0,0-.5,1.3.23.23,0,0,0,0,.14.24.24,0,0,0,.12.07,1.54,1.54,0,0,0,1-.1,4.75,4.75,0,0,0,.85-.55l1.24-.95c.27-.21.56-.47.55-.8a.55.55,0,0,0-.61-.5m-3.21.05a4.29,4.29,0,0,0,.6.75m2-10.73.78-.37m.73-1.39a1.18,1.18,0,0,0-.45-.18,1.26,1.26,0,0,0-.08.72,5.39,5.39,0,0,0,1,2.57c.17.25.45.52.74.42a.72.72,0,0,0,.36-.33,1.78,1.78,0,0,0,.35-1,2.15,2.15,0,0,0-.67-1.25,3.34,3.34,0,0,0-1.83-1.29m-7.06-4.65.24-.73m-.45-.14c.76,0,1.52,0,2.28,0,.21,0,.48-.06.55-.27a.39.39,0,0,0-.17-.43,1.05,1.05,0,0,0-.47-.16l-1.17-.21a4.61,4.61,0,0,0-1.38-.12,1.55,1.55,0,0,0-1.16.67m.2.17a1.64,1.64,0,0,0,1.27.49M166.05,283s0,0,0,0a.07.07,0,0,0,0-.05,3.68,3.68,0,0,0-.7-.32m-.71.05a5.74,5.74,0,0,0,1.37-2.28c0-.07,0-.16,0-.21a.17.17,0,0,0-.1-.06,1.32,1.32,0,0,0-1.19.35,3,3,0,0,0-.71,1.05,3.71,3.71,0,0,0-.42,1.65c0,.16.1.37.26.33a.39.39,0,0,0,.11-.06,2.68,2.68,0,0,0,.68-.89m-1.36,9.29a2.42,2.42,0,0,0-1.37.46m-.2-.33a4,4,0,0,0-1.06-1.38,1,1,0,0,0-.61-.21.81.81,0,0,0-.6.45,1.64,1.64,0,0,0-.14.76,2.74,2.74,0,0,0,.41,1.45,1.85,1.85,0,0,0,1.21.85.72.72,0,0,0,.48-.05.92.92,0,0,0,.22-.22,2.12,2.12,0,0,0,.25-1.94m8.76,6.72a12,12,0,0,0-.78,1.66m.16.59a15.24,15.24,0,0,0-1.79-.14,3,3,0,0,0-1.23.16,1.11,1.11,0,0,0-.72.93.4.4,0,0,0,.05.26.74.74,0,0,0,.41.27,7.69,7.69,0,0,0,2.29.28,3,3,0,0,0,1.73-.4.82.82,0,0,0,.39-1,1,1,0,0,0-.57-.35,3.88,3.88,0,0,0-1.17-.15m6.72,31.51a9.84,9.84,0,1,1-9.84-9.84A9.84,9.84,0,0,1,176.1,332.06ZM170,329.84a1,1,0,0,0-.94.44,2.37,2.37,0,0,0-.34,1,2.62,2.62,0,0,0,.51,2.24,1.65,1.65,0,0,0,1.25.44,2.19,2.19,0,0,0,1.24-.52,1.64,1.64,0,0,0,.47-.64,1.55,1.55,0,0,0,.07-.61,2.58,2.58,0,0,0-1-1.83,2.79,2.79,0,0,0-2-.58m-7.69-4.18a3.3,3.3,0,0,0-1.53,2.51,1,1,0,0,0,.15.71.79.79,0,0,0,.87.16,2,2,0,0,0,.72-.6,3.69,3.69,0,0,0,1-2.15.68.68,0,0,0-.09-.44.66.66,0,0,0-.48-.26,1.36,1.36,0,0,0-.92.22m2.29,2.84-.26-.11a1.18,1.18,0,0,0-.87-.13m6.43,3.61h-1.47m-6.72,3.26a1.47,1.47,0,0,1-.55-.05.56.56,0,0,0-.52.15.54.54,0,0,0-.08.33,2.43,2.43,0,0,0,1.72,2.3,2.92,2.92,0,0,0,.93.1,1.76,1.76,0,0,0,.72-.12.87.87,0,0,0,.5-.51.88.88,0,0,0-.16-.75,2.13,2.13,0,0,0-.6-.52c-.57-.37-1.18-.67-1.78-1-.14-.07-.33-.13-.45,0m2.54-.65a4.2,4.2,0,0,0-.88,1.14m14.06,3.73a3.31,3.31,0,0,0-1.56.56,4.31,4.31,0,0,0-1.11.88,2,2,0,0,0-.5,1.3.23.23,0,0,0,0,.14.24.24,0,0,0,.12.07,1.54,1.54,0,0,0,1-.1,4.75,4.75,0,0,0,.85-.55l1.24-.95c.27-.21.56-.47.55-.8a.55.55,0,0,0-.61-.5m-3.21.05a4.29,4.29,0,0,0,.6.75m2-10.73.78-.37m.73-1.39a1.18,1.18,0,0,0-.45-.18,1.26,1.26,0,0,0-.08.72,5.39,5.39,0,0,0,1,2.57c.17.25.45.52.74.42a.72.72,0,0,0,.36-.33,1.78,1.78,0,0,0,.35-1,2.15,2.15,0,0,0-.67-1.25,3.34,3.34,0,0,0-1.83-1.29m-7.06-4.65.24-.73m-.45-.14c.76,0,1.52,0,2.28,0,.21,0,.48-.06.55-.27a.39.39,0,0,0-.17-.43,1.05,1.05,0,0,0-.47-.16l-1.17-.21a4.61,4.61,0,0,0-1.38-.12,1.55,1.55,0,0,0-1.16.67m.2.17a1.64,1.64,0,0,0,1.27.49M159.05,325s0,0,0,0a.07.07,0,0,0,0-.05,3.68,3.68,0,0,0-.7-.32m-.71.05a5.74,5.74,0,0,0,1.37-2.28c0-.07,0-.16,0-.21a.17.17,0,0,0-.1-.06,1.32,1.32,0,0,0-1.19.35,3,3,0,0,0-.71,1.05,3.71,3.71,0,0,0-.42,1.65c0,.16.1.37.26.33a.39.39,0,0,0,.11-.06,2.68,2.68,0,0,0,.68-.89m-1.36,9.29a2.42,2.42,0,0,0-1.37.46m-.2-.33a4,4,0,0,0-1.06-1.38,1,1,0,0,0-.61-.21.81.81,0,0,0-.6.45,1.64,1.64,0,0,0-.14.76,2.74,2.74,0,0,0,.41,1.45,1.85,1.85,0,0,0,1.21.85.72.72,0,0,0,.48-.05.92.92,0,0,0,.22-.22,2.12,2.12,0,0,0,.25-1.94m8.76,6.72a12,12,0,0,0-.78,1.66m.16.59a15.24,15.24,0,0,0-1.79-.14,3,3,0,0,0-1.23.16,1.11,1.11,0,0,0-.72.93.4.4,0,0,0,.05.26.74.74,0,0,0,.41.27,7.69,7.69,0,0,0,2.29.28,3,3,0,0,0,1.73-.4.82.82,0,0,0,.39-1,1,1,0,0,0-.57-.35,3.88,3.88,0,0,0-1.17-.15M178.1,219.06a9.84,9.84,0,1,1-9.84-9.84A9.84,9.84,0,0,1,178.1,219.06ZM172,216.84a1,1,0,0,0-.94.44,2.37,2.37,0,0,0-.34,1,2.62,2.62,0,0,0,.51,2.24,1.65,1.65,0,0,0,1.25.44,2.19,2.19,0,0,0,1.24-.52,1.64,1.64,0,0,0,.47-.64,1.55,1.55,0,0,0,.07-.61,2.58,2.58,0,0,0-1-1.83,2.79,2.79,0,0,0-2-.58m-7.69-4.18a3.3,3.3,0,0,0-1.53,2.51,1,1,0,0,0,.15.71.79.79,0,0,0,.87.16,2,2,0,0,0,.72-.6,3.69,3.69,0,0,0,1-2.15.68.68,0,0,0-.09-.44.66.66,0,0,0-.48-.26,1.36,1.36,0,0,0-.92.22m2.29,2.84-.26-.11a1.18,1.18,0,0,0-.87-.13m6.43,3.61h-1.47m-6.72,3.26a1.47,1.47,0,0,1-.55,0,.56.56,0,0,0-.52.15.54.54,0,0,0-.08.33,2.43,2.43,0,0,0,1.72,2.3,2.92,2.92,0,0,0,.93.1,1.76,1.76,0,0,0,.72-.12.87.87,0,0,0,.5-.51.88.88,0,0,0-.16-.75,2.13,2.13,0,0,0-.6-.52c-.57-.37-1.18-.67-1.78-1-.14-.07-.33-.13-.45,0m2.54-.65a4.2,4.2,0,0,0-.88,1.14m14.06,3.73a3.31,3.31,0,0,0-1.56.56,4.31,4.31,0,0,0-1.11.88,2,2,0,0,0-.5,1.3.23.23,0,0,0,0,.14.24.24,0,0,0,.12.07,1.54,1.54,0,0,0,1-.1,4.75,4.75,0,0,0,.85-.55l1.24-1c.27-.21.56-.47.55-.8a.55.55,0,0,0-.61-.5m-3.21,0a4.29,4.29,0,0,0,.6.75m2-10.73.78-.37m.73-1.39a1.18,1.18,0,0,0-.45-.18,1.26,1.26,0,0,0-.08.72,5.39,5.39,0,0,0,1,2.57c.17.25.45.52.74.42a.72.72,0,0,0,.36-.33,1.78,1.78,0,0,0,.35-1,2.15,2.15,0,0,0-.67-1.25,3.34,3.34,0,0,0-1.83-1.29m-7.06-4.65.24-.73m-.45-.14c.76,0,1.52,0,2.28,0,.21,0,.48-.06.55-.27a.39.39,0,0,0-.17-.43,1.05,1.05,0,0,0-.47-.16l-1.17-.21a4.61,4.61,0,0,0-1.38-.12,1.55,1.55,0,0,0-1.16.67m.2.17a1.64,1.64,0,0,0,1.27.49m-10.13,3s0,0,0,0a.07.07,0,0,0,0-.05,3.68,3.68,0,0,0-.7-.32m-.71,0a5.74,5.74,0,0,0,1.37-2.28c0-.07,0-.16,0-.21a.17.17,0,0,0-.1-.06,1.32,1.32,0,0,0-1.19.35,3,3,0,0,0-.71,1.05,3.71,3.71,0,0,0-.42,1.65c0,.16.1.37.26.33a.39.39,0,0,0,.11-.06,2.68,2.68,0,0,0,.68-.89m-1.36,9.29a2.42,2.42,0,0,0-1.37.46m-.2-.33a4,4,0,0,0-1.06-1.38,1,1,0,0,0-.61-.21.81.81,0,0,0-.6.45,1.64,1.64,0,0,0-.14.76,2.74,2.74,0,0,0,.41,1.45,1.85,1.85,0,0,0,1.21.85.72.72,0,0,0,.48,0,.92.92,0,0,0,.22-.22,2.12,2.12,0,0,0,.25-1.94m8.76,6.72a12,12,0,0,0-.78,1.66m.16.59a15.24,15.24,0,0,0-1.79-.14,3,3,0,0,0-1.23.16,1.11,1.11,0,0,0-.72.93.4.4,0,0,0,.05.26.74.74,0,0,0,.41.27,7.69,7.69,0,0,0,2.29.28,3,3,0,0,0,1.73-.4.82.82,0,0,0,.39-1,1,1,0,0,0-.57-.35,3.88,3.88,0,0,0-1.17-.15m-3.28,26.51a9.84,9.84,0,1,1-9.84-9.84A9.84,9.84,0,0,1,161.1,256.06ZM155,253.84a1,1,0,0,0-.94.44,2.37,2.37,0,0,0-.34,1,2.62,2.62,0,0,0,.51,2.24,1.65,1.65,0,0,0,1.25.44,2.19,2.19,0,0,0,1.24-.52,1.64,1.64,0,0,0,.47-.64,1.55,1.55,0,0,0,.07-.61,2.58,2.58,0,0,0-1-1.83,2.79,2.79,0,0,0-2-.58m-7.69-4.18a3.3,3.3,0,0,0-1.53,2.51,1,1,0,0,0,.15.71.79.79,0,0,0,.87.16,2,2,0,0,0,.72-.6,3.69,3.69,0,0,0,1-2.15.68.68,0,0,0-.09-.44.66.66,0,0,0-.48-.26,1.36,1.36,0,0,0-.92.22m2.29,2.84-.26-.11a1.18,1.18,0,0,0-.87-.13m6.43,3.61h-1.47m-6.72,3.26a1.47,1.47,0,0,1-.55-.05.56.56,0,0,0-.52.15.54.54,0,0,0-.08.33,2.43,2.43,0,0,0,1.72,2.3,2.92,2.92,0,0,0,.93.1,1.76,1.76,0,0,0,.72-.12.87.87,0,0,0,.5-.51.88.88,0,0,0-.16-.75,2.13,2.13,0,0,0-.6-.52c-.57-.37-1.18-.67-1.78-1-.14-.07-.33-.13-.45,0m2.54-.65a4.2,4.2,0,0,0-.88,1.14m14.06,3.73a3.31,3.31,0,0,0-1.56.56,4.31,4.31,0,0,0-1.11.88,2,2,0,0,0-.5,1.3.23.23,0,0,0,0,.14.24.24,0,0,0,.12.07,1.54,1.54,0,0,0,1-.1,4.75,4.75,0,0,0,.85-.55l1.24-.95c.27-.21.56-.47.55-.8a.55.55,0,0,0-.61-.5m-3.21.05a4.29,4.29,0,0,0,.6.75m2-10.73.78-.37m.73-1.39a1.18,1.18,0,0,0-.45-.18,1.26,1.26,0,0,0-.08.72,5.39,5.39,0,0,0,1,2.57c.17.25.45.52.74.42a.72.72,0,0,0,.36-.33,1.78,1.78,0,0,0,.35-1,2.15,2.15,0,0,0-.67-1.25,3.34,3.34,0,0,0-1.83-1.29m-7.06-4.65.24-.73m-.45-.14c.76,0,1.52,0,2.28,0,.21,0,.48-.06.55-.27a.39.39,0,0,0-.17-.43,1.05,1.05,0,0,0-.47-.16l-1.17-.21a4.61,4.61,0,0,0-1.38-.12,1.55,1.55,0,0,0-1.16.67m.2.17a1.64,1.64,0,0,0,1.27.49m-10.13,3s0,0,0,0a.07.07,0,0,0,0-.05,3.68,3.68,0,0,0-.7-.32m-.71,0a5.74,5.74,0,0,0,1.37-2.28c0-.07,0-.16,0-.21a.17.17,0,0,0-.1-.06,1.32,1.32,0,0,0-1.19.35,3,3,0,0,0-.71,1.05,3.71,3.71,0,0,0-.42,1.65c0,.16.1.37.26.33a.39.39,0,0,0,.11-.06,2.68,2.68,0,0,0,.68-.89m-1.36,9.29a2.42,2.42,0,0,0-1.37.46m-.2-.33a4,4,0,0,0-1.06-1.38,1,1,0,0,0-.61-.21.81.81,0,0,0-.6.45,1.64,1.64,0,0,0-.14.76,2.74,2.74,0,0,0,.41,1.45,1.85,1.85,0,0,0,1.21.85.72.72,0,0,0,.48-.05.92.92,0,0,0,.22-.22,2.12,2.12,0,0,0,.25-1.94m8.76,6.72a12,12,0,0,0-.78,1.66m.16.59a15.24,15.24,0,0,0-1.79-.14,3,3,0,0,0-1.23.16,1.11,1.11,0,0,0-.72.93.4.4,0,0,0,.05.26.74.74,0,0,0,.41.27,7.69,7.69,0,0,0,2.29.28,3,3,0,0,0,1.73-.4.82.82,0,0,0,.39-1,1,1,0,0,0-.57-.35,3.88,3.88,0,0,0-1.17-.15M71.1,214.06a9.84,9.84,0,1,1-9.84-9.84A9.84,9.84,0,0,1,71.1,214.06ZM65,211.84a1,1,0,0,0-.94.44,2.37,2.37,0,0,0-.34,1,2.62,2.62,0,0,0,.51,2.24,1.65,1.65,0,0,0,1.25.44,2.19,2.19,0,0,0,1.24-.52,1.64,1.64,0,0,0,.47-.64,1.55,1.55,0,0,0,.07-.61,2.58,2.58,0,0,0-1-1.83,2.79,2.79,0,0,0-2-.58m-7.69-4.18a3.3,3.3,0,0,0-1.53,2.51,1,1,0,0,0,.15.71.79.79,0,0,0,.87.16,2,2,0,0,0,.72-.6,3.69,3.69,0,0,0,1-2.15.68.68,0,0,0-.09-.44.66.66,0,0,0-.48-.26,1.36,1.36,0,0,0-.92.22m2.29,2.84-.26-.11a1.18,1.18,0,0,0-.87-.13M63.91,214H62.44m-6.72,3.26a1.47,1.47,0,0,1-.55,0,.56.56,0,0,0-.52.15.54.54,0,0,0-.08.33,2.43,2.43,0,0,0,1.72,2.3,2.92,2.92,0,0,0,.93.1,1.76,1.76,0,0,0,.72-.12.87.87,0,0,0,.5-.51.88.88,0,0,0-.16-.75,2.13,2.13,0,0,0-.6-.52c-.57-.37-1.18-.67-1.78-1-.14-.07-.33-.13-.45,0m2.54-.65a4.2,4.2,0,0,0-.88,1.14m14.06,3.73a3.31,3.31,0,0,0-1.56.56,4.31,4.31,0,0,0-1.11.88,2,2,0,0,0-.5,1.3.23.23,0,0,0,0,.14.24.24,0,0,0,.12.07,1.54,1.54,0,0,0,1-.1,4.75,4.75,0,0,0,.85-.55l1.24-1c.27-.21.56-.47.55-.8a.55.55,0,0,0-.61-.5m-3.21,0a4.29,4.29,0,0,0,.6.75m2-10.73.78-.37m.73-1.39a1.18,1.18,0,0,0-.45-.18,1.26,1.26,0,0,0-.08.72,5.39,5.39,0,0,0,1,2.57c.17.25.45.52.74.42a.72.72,0,0,0,.36-.33,1.78,1.78,0,0,0,.35-1,2.15,2.15,0,0,0-.67-1.25,3.34,3.34,0,0,0-1.83-1.29m-7.06-4.65.24-.73m-.45-.14c.76,0,1.52,0,2.28,0,.21,0,.48-.06.55-.27a.39.39,0,0,0-.17-.43,1.05,1.05,0,0,0-.47-.16l-1.17-.21a4.61,4.61,0,0,0-1.38-.12,1.55,1.55,0,0,0-1.16.67m.2.17a1.64,1.64,0,0,0,1.27.49m-10.13,3s0,0,0,0a.07.07,0,0,0,0-.05,3.68,3.68,0,0,0-.7-.32m-.71,0A5.74,5.74,0,0,0,54,204.45c0-.07,0-.16,0-.21a.17.17,0,0,0-.1-.06,1.32,1.32,0,0,0-1.19.35,3,3,0,0,0-.71,1.05,3.71,3.71,0,0,0-.42,1.65c0,.16.1.37.26.33a.39.39,0,0,0,.11-.06,2.68,2.68,0,0,0,.68-.89m-1.36,9.29a2.42,2.42,0,0,0-1.37.46m-.2-.33a4,4,0,0,0-1.06-1.38,1,1,0,0,0-.61-.21.81.81,0,0,0-.6.45,1.64,1.64,0,0,0-.14.76,2.74,2.74,0,0,0,.41,1.45,1.85,1.85,0,0,0,1.21.85.72.72,0,0,0,.48,0,.92.92,0,0,0,.22-.22,2.12,2.12,0,0,0,.25-1.94m8.76,6.72a12,12,0,0,0-.78,1.66m.16.59a15.24,15.24,0,0,0-1.79-.14,3,3,0,0,0-1.23.16,1.11,1.11,0,0,0-.72.93.4.4,0,0,0,0,.26.74.74,0,0,0,.41.27,7.69,7.69,0,0,0,2.29.28,3,3,0,0,0,1.73-.4.82.82,0,0,0,.39-1,1,1,0,0,0-.57-.35,3.88,3.88,0,0,0-1.17-.15M152.1,363.06a9.84,9.84,0,1,1-9.84-9.84A9.84,9.84,0,0,1,152.1,363.06ZM146,360.84a1,1,0,0,0-.94.44,2.37,2.37,0,0,0-.34,1,2.62,2.62,0,0,0,.51,2.24,1.65,1.65,0,0,0,1.25.44,2.19,2.19,0,0,0,1.24-.52,1.64,1.64,0,0,0,.47-.64,1.55,1.55,0,0,0,.07-.61,2.58,2.58,0,0,0-1-1.83,2.79,2.79,0,0,0-2-.58m-7.69-4.18a3.3,3.3,0,0,0-1.53,2.51,1,1,0,0,0,.15.71.79.79,0,0,0,.87.16,2,2,0,0,0,.72-.6,3.69,3.69,0,0,0,1-2.15.68.68,0,0,0-.09-.44.66.66,0,0,0-.48-.26,1.36,1.36,0,0,0-.92.22m2.29,2.84-.26-.11a1.18,1.18,0,0,0-.87-.13m6.43,3.61h-1.47m-6.72,3.26a1.47,1.47,0,0,1-.55-.05.56.56,0,0,0-.52.15.54.54,0,0,0-.08.33,2.43,2.43,0,0,0,1.72,2.3,2.92,2.92,0,0,0,.93.1,1.76,1.76,0,0,0,.72-.12.87.87,0,0,0,.5-.51.88.88,0,0,0-.16-.75,2.13,2.13,0,0,0-.6-.52c-.57-.37-1.18-.67-1.78-1-.14-.07-.33-.13-.45,0m2.54-.65a4.2,4.2,0,0,0-.88,1.14m14.06,3.73a3.31,3.31,0,0,0-1.56.56,4.31,4.31,0,0,0-1.11.88,2,2,0,0,0-.5,1.3.23.23,0,0,0,0,.14.24.24,0,0,0,.12.07,1.54,1.54,0,0,0,1-.1,4.75,4.75,0,0,0,.85-.55l1.24-.95c.27-.21.56-.47.55-.8a.55.55,0,0,0-.61-.5m-3.21.05a4.29,4.29,0,0,0,.6.75m2-10.73.78-.37m.73-1.39a1.18,1.18,0,0,0-.45-.18,1.26,1.26,0,0,0-.08.72,5.39,5.39,0,0,0,1,2.57c.17.25.45.52.74.42a.72.72,0,0,0,.36-.33,1.78,1.78,0,0,0,.35-1,2.15,2.15,0,0,0-.67-1.25,3.34,3.34,0,0,0-1.83-1.29m-7.06-4.65.24-.73m-.45-.14c.76,0,1.52,0,2.28,0,.21,0,.48-.06.55-.27a.39.39,0,0,0-.17-.43,1.05,1.05,0,0,0-.47-.16l-1.17-.21a4.61,4.61,0,0,0-1.38-.12,1.55,1.55,0,0,0-1.16.67m.2.17a1.64,1.64,0,0,0,1.27.49M135.05,356s0,0,0,0a.07.07,0,0,0,0-.05,3.68,3.68,0,0,0-.7-.32m-.71.05a5.74,5.74,0,0,0,1.37-2.28c0-.07,0-.16,0-.21a.17.17,0,0,0-.1-.06,1.32,1.32,0,0,0-1.19.35,3,3,0,0,0-.71,1.05,3.71,3.71,0,0,0-.42,1.65c0,.16.1.37.26.33a.39.39,0,0,0,.11-.06,2.68,2.68,0,0,0,.68-.89m-1.36,9.29a2.42,2.42,0,0,0-1.37.46m-.2-.33a4,4,0,0,0-1.06-1.38,1,1,0,0,0-.61-.21.81.81,0,0,0-.6.45,1.64,1.64,0,0,0-.14.76,2.74,2.74,0,0,0,.41,1.45,1.85,1.85,0,0,0,1.21.85.72.72,0,0,0,.48-.05.92.92,0,0,0,.22-.22,2.12,2.12,0,0,0,.25-1.94m8.76,6.72a12,12,0,0,0-.78,1.66m.16.59a15.24,15.24,0,0,0-1.79-.14,3,3,0,0,0-1.23.16,1.11,1.11,0,0,0-.72.93.4.4,0,0,0,.05.26.74.74,0,0,0,.41.27,7.69,7.69,0,0,0,2.29.28,3,3,0,0,0,1.73-.4.82.82,0,0,0,.39-1,1,1,0,0,0-.57-.35,3.88,3.88,0,0,0-1.17-.15m8.72-74.49a9.84,9.84,0,1,1-9.84-9.84A9.84,9.84,0,0,1,147.1,299.06ZM141,296.84a1,1,0,0,0-.94.44,2.37,2.37,0,0,0-.34,1,2.62,2.62,0,0,0,.51,2.24,1.65,1.65,0,0,0,1.25.44,2.19,2.19,0,0,0,1.24-.52,1.64,1.64,0,0,0,.47-.64,1.55,1.55,0,0,0,.07-.61,2.58,2.58,0,0,0-1-1.83,2.79,2.79,0,0,0-2-.58m-7.69-4.18a3.3,3.3,0,0,0-1.53,2.51,1,1,0,0,0,.15.71.79.79,0,0,0,.87.16,2,2,0,0,0,.72-.6,3.69,3.69,0,0,0,1-2.15.68.68,0,0,0-.09-.44.66.66,0,0,0-.48-.26,1.36,1.36,0,0,0-.92.22m2.29,2.84-.26-.11a1.18,1.18,0,0,0-.87-.13m6.43,3.61h-1.47m-6.72,3.26a1.47,1.47,0,0,1-.55-.05.56.56,0,0,0-.52.15.54.54,0,0,0-.08.33,2.43,2.43,0,0,0,1.72,2.3,2.92,2.92,0,0,0,.93.1,1.76,1.76,0,0,0,.72-.12.87.87,0,0,0,.5-.51.88.88,0,0,0-.16-.75,2.13,2.13,0,0,0-.6-.52c-.57-.37-1.18-.67-1.78-1-.14-.07-.33-.13-.45,0m2.54-.65a4.2,4.2,0,0,0-.88,1.14m14.06,3.73a3.31,3.31,0,0,0-1.56.56,4.31,4.31,0,0,0-1.11.88,2,2,0,0,0-.5,1.3.23.23,0,0,0,0,.14.24.24,0,0,0,.12.07,1.54,1.54,0,0,0,1-.1,4.75,4.75,0,0,0,.85-.55l1.24-.95c.27-.21.56-.47.55-.8a.55.55,0,0,0-.61-.5m-3.21.05a4.29,4.29,0,0,0,.6.75m2-10.73.78-.37m.73-1.39a1.18,1.18,0,0,0-.45-.18,1.26,1.26,0,0,0-.08.72,5.39,5.39,0,0,0,1,2.57c.17.25.45.52.74.42a.72.72,0,0,0,.36-.33,1.78,1.78,0,0,0,.35-1,2.15,2.15,0,0,0-.67-1.25,3.34,3.34,0,0,0-1.83-1.29m-7.06-4.65.24-.73m-.45-.14c.76,0,1.52,0,2.28,0,.21,0,.48-.06.55-.27a.39.39,0,0,0-.17-.43,1.05,1.05,0,0,0-.47-.16l-1.17-.21a4.61,4.61,0,0,0-1.38-.12,1.55,1.55,0,0,0-1.16.67m.2.17a1.64,1.64,0,0,0,1.27.49M130.05,292s0,0,0,0a.07.07,0,0,0,0-.05,3.68,3.68,0,0,0-.7-.32m-.71.05a5.74,5.74,0,0,0,1.37-2.28c0-.07,0-.16,0-.21a.17.17,0,0,0-.1-.06,1.32,1.32,0,0,0-1.19.35,3,3,0,0,0-.71,1.05,3.71,3.71,0,0,0-.42,1.65c0,.16.1.37.26.33a.39.39,0,0,0,.11-.06,2.68,2.68,0,0,0,.68-.89m-1.36,9.29a2.42,2.42,0,0,0-1.37.46m-.2-.33a4,4,0,0,0-1.06-1.38,1,1,0,0,0-.61-.21.81.81,0,0,0-.6.45,1.64,1.64,0,0,0-.14.76,2.74,2.74,0,0,0,.41,1.45,1.85,1.85,0,0,0,1.21.85.72.72,0,0,0,.48-.05.92.92,0,0,0,.22-.22,2.12,2.12,0,0,0,.25-1.94m8.76,6.72a12,12,0,0,0-.78,1.66m.16.59a15.24,15.24,0,0,0-1.79-.14,3,3,0,0,0-1.23.16,1.11,1.11,0,0,0-.72.93.4.4,0,0,0,.05.26.74.74,0,0,0,.41.27,7.69,7.69,0,0,0,2.29.28,3,3,0,0,0,1.73-.4.82.82,0,0,0,.39-1,1,1,0,0,0-.57-.35,3.88,3.88,0,0,0-1.17-.15M82.1,342.06a9.84,9.84,0,1,1-9.84-9.84A9.84,9.84,0,0,1,82.1,342.06ZM76,339.84a1,1,0,0,0-.94.44,2.37,2.37,0,0,0-.34,1,2.62,2.62,0,0,0,.51,2.24,1.65,1.65,0,0,0,1.25.44,2.19,2.19,0,0,0,1.24-.52,1.64,1.64,0,0,0,.47-.64,1.55,1.55,0,0,0,.07-.61,2.58,2.58,0,0,0-1-1.83,2.79,2.79,0,0,0-2-.58m-7.69-4.18a3.3,3.3,0,0,0-1.53,2.51,1,1,0,0,0,.15.71.79.79,0,0,0,.87.16,2,2,0,0,0,.72-.6,3.69,3.69,0,0,0,1-2.15.68.68,0,0,0-.09-.44.66.66,0,0,0-.48-.26,1.36,1.36,0,0,0-.92.22m2.29,2.84-.26-.11a1.18,1.18,0,0,0-.87-.13M74.91,342H73.44m-6.72,3.26a1.47,1.47,0,0,1-.55-.05.56.56,0,0,0-.52.15.54.54,0,0,0-.08.33,2.43,2.43,0,0,0,1.72,2.3,2.92,2.92,0,0,0,.93.1,1.76,1.76,0,0,0,.72-.12.87.87,0,0,0,.5-.51.88.88,0,0,0-.16-.75,2.13,2.13,0,0,0-.6-.52c-.57-.37-1.18-.67-1.78-1-.14-.07-.33-.13-.45,0m2.54-.65a4.2,4.2,0,0,0-.88,1.14m14.06,3.73a3.31,3.31,0,0,0-1.56.56,4.31,4.31,0,0,0-1.11.88,2,2,0,0,0-.5,1.3.23.23,0,0,0,0,.14.24.24,0,0,0,.12.07,1.54,1.54,0,0,0,1-.1,4.75,4.75,0,0,0,.85-.55l1.24-.95c.27-.21.56-.47.55-.8a.55.55,0,0,0-.61-.5m-3.21.05a4.29,4.29,0,0,0,.6.75m2-10.73.78-.37m.73-1.39a1.18,1.18,0,0,0-.45-.18,1.26,1.26,0,0,0-.08.72,5.39,5.39,0,0,0,1,2.57c.17.25.45.52.74.42a.72.72,0,0,0,.36-.33,1.78,1.78,0,0,0,.35-1,2.15,2.15,0,0,0-.67-1.25,3.34,3.34,0,0,0-1.83-1.29m-7.06-4.65.24-.73m-.45-.14c.76,0,1.52,0,2.28,0,.21,0,.48-.06.55-.27a.39.39,0,0,0-.17-.43,1.05,1.05,0,0,0-.47-.16l-1.17-.21a4.61,4.61,0,0,0-1.38-.12,1.55,1.55,0,0,0-1.16.67m.2.17a1.64,1.64,0,0,0,1.27.49M65.05,335s0,0,0,0a.07.07,0,0,0,0-.05,3.68,3.68,0,0,0-.7-.32m-.71.05A5.74,5.74,0,0,0,65,332.45c0-.07,0-.16,0-.21a.17.17,0,0,0-.1-.06,1.32,1.32,0,0,0-1.19.35,3,3,0,0,0-.71,1.05,3.71,3.71,0,0,0-.42,1.65c0,.16.1.37.26.33a.39.39,0,0,0,.11-.06,2.68,2.68,0,0,0,.68-.89m-1.36,9.29a2.42,2.42,0,0,0-1.37.46m-.2-.33a4,4,0,0,0-1.06-1.38,1,1,0,0,0-.61-.21.81.81,0,0,0-.6.45,1.64,1.64,0,0,0-.14.76,2.74,2.74,0,0,0,.41,1.45,1.85,1.85,0,0,0,1.21.85.72.72,0,0,0,.48-.05.92.92,0,0,0,.22-.22,2.12,2.12,0,0,0,.25-1.94m8.76,6.72a12,12,0,0,0-.78,1.66m.16.59a15.24,15.24,0,0,0-1.79-.14,3,3,0,0,0-1.23.16,1.11,1.11,0,0,0-.72.93.4.4,0,0,0,0,.26.74.74,0,0,0,.41.27,7.69,7.69,0,0,0,2.29.28,3,3,0,0,0,1.73-.4.82.82,0,0,0,.39-1,1,1,0,0,0-.57-.35,3.88,3.88,0,0,0-1.17-.15m5.72-52.49a9.84,9.84,0,1,1-9.84-9.84A9.84,9.84,0,0,1,74.1,300.06ZM68,297.84a1,1,0,0,0-.94.44,2.37,2.37,0,0,0-.34,1,2.62,2.62,0,0,0,.51,2.24,1.65,1.65,0,0,0,1.25.44,2.19,2.19,0,0,0,1.24-.52,1.64,1.64,0,0,0,.47-.64,1.55,1.55,0,0,0,.07-.61,2.58,2.58,0,0,0-1-1.83,2.79,2.79,0,0,0-2-.58m-7.69-4.18a3.3,3.3,0,0,0-1.53,2.51,1,1,0,0,0,.15.71.79.79,0,0,0,.87.16,2,2,0,0,0,.72-.6,3.69,3.69,0,0,0,1-2.15.68.68,0,0,0-.09-.44.66.66,0,0,0-.48-.26,1.36,1.36,0,0,0-.92.22m2.29,2.84-.26-.11a1.18,1.18,0,0,0-.87-.13M66.91,300H65.44m-6.72,3.26a1.47,1.47,0,0,1-.55-.05.56.56,0,0,0-.52.15.54.54,0,0,0-.08.33,2.43,2.43,0,0,0,1.72,2.3,2.92,2.92,0,0,0,.93.1,1.76,1.76,0,0,0,.72-.12.87.87,0,0,0,.5-.51.88.88,0,0,0-.16-.75,2.13,2.13,0,0,0-.6-.52c-.57-.37-1.18-.67-1.78-1-.14-.07-.33-.13-.45,0m2.54-.65a4.2,4.2,0,0,0-.88,1.14m14.06,3.73a3.31,3.31,0,0,0-1.56.56,4.31,4.31,0,0,0-1.11.88,2,2,0,0,0-.5,1.3.23.23,0,0,0,0,.14.24.24,0,0,0,.12.07,1.54,1.54,0,0,0,1-.1,4.75,4.75,0,0,0,.85-.55l1.24-.95c.27-.21.56-.47.55-.8a.55.55,0,0,0-.61-.5m-3.21.05a4.29,4.29,0,0,0,.6.75m2-10.73.78-.37m.73-1.39a1.18,1.18,0,0,0-.45-.18,1.26,1.26,0,0,0-.08.72,5.39,5.39,0,0,0,1,2.57c.17.25.45.52.74.42a.72.72,0,0,0,.36-.33,1.78,1.78,0,0,0,.35-1,2.15,2.15,0,0,0-.67-1.25,3.34,3.34,0,0,0-1.83-1.29m-7.06-4.65.24-.73m-.45-.14c.76,0,1.52,0,2.28,0,.21,0,.48-.06.55-.27a.39.39,0,0,0-.17-.43,1.05,1.05,0,0,0-.47-.16l-1.17-.21a4.61,4.61,0,0,0-1.38-.12,1.55,1.55,0,0,0-1.16.67m.2.17a1.64,1.64,0,0,0,1.27.49M57.05,293s0,0,0,0a.07.07,0,0,0,0-.05,3.68,3.68,0,0,0-.7-.32m-.71.05A5.74,5.74,0,0,0,57,290.45c0-.07,0-.16,0-.21a.17.17,0,0,0-.1-.06,1.32,1.32,0,0,0-1.19.35,3,3,0,0,0-.71,1.05,3.71,3.71,0,0,0-.42,1.65c0,.16.1.37.26.33a.39.39,0,0,0,.11-.06,2.68,2.68,0,0,0,.68-.89m-1.36,9.29a2.42,2.42,0,0,0-1.37.46m-.2-.33a4,4,0,0,0-1.06-1.38,1,1,0,0,0-.61-.21.81.81,0,0,0-.6.45,1.64,1.64,0,0,0-.14.76,2.74,2.74,0,0,0,.41,1.45,1.85,1.85,0,0,0,1.21.85.72.72,0,0,0,.48-.05.92.92,0,0,0,.22-.22,2.12,2.12,0,0,0,.25-1.94m8.76,6.72a12,12,0,0,0-.78,1.66m.16.59a15.24,15.24,0,0,0-1.79-.14,3,3,0,0,0-1.23.16,1.11,1.11,0,0,0-.72.93.4.4,0,0,0,0,.26.74.74,0,0,0,.41.27,7.69,7.69,0,0,0,2.29.28,3,3,0,0,0,1.73-.4.82.82,0,0,0,.39-1,1,1,0,0,0-.57-.35,3.88,3.88,0,0,0-1.17-.15M45.1,285.06a9.84,9.84,0,1,1-9.84-9.84A9.84,9.84,0,0,1,45.1,285.06ZM39,282.84a1,1,0,0,0-.94.44,2.37,2.37,0,0,0-.34,1,2.62,2.62,0,0,0,.51,2.24,1.65,1.65,0,0,0,1.25.44,2.19,2.19,0,0,0,1.24-.52,1.64,1.64,0,0,0,.47-.64,1.55,1.55,0,0,0,.07-.61,2.58,2.58,0,0,0-1-1.83,2.79,2.79,0,0,0-2-.58m-7.69-4.18a3.3,3.3,0,0,0-1.53,2.51,1,1,0,0,0,.15.71.79.79,0,0,0,.87.16,2,2,0,0,0,.72-.6,3.69,3.69,0,0,0,1-2.15.68.68,0,0,0-.09-.44.66.66,0,0,0-.48-.26,1.36,1.36,0,0,0-.92.22m2.29,2.84-.26-.11a1.18,1.18,0,0,0-.87-.13M37.91,285H36.44m-6.72,3.26a1.47,1.47,0,0,1-.55-.05.56.56,0,0,0-.52.15.54.54,0,0,0-.08.33,2.43,2.43,0,0,0,1.72,2.3,2.92,2.92,0,0,0,.93.1,1.76,1.76,0,0,0,.72-.12.87.87,0,0,0,.5-.51.88.88,0,0,0-.16-.75,2.13,2.13,0,0,0-.6-.52c-.57-.37-1.18-.67-1.78-1-.14-.07-.33-.13-.45,0m2.54-.65a4.2,4.2,0,0,0-.88,1.14m14.06,3.73a3.31,3.31,0,0,0-1.56.56,4.31,4.31,0,0,0-1.11.88,2,2,0,0,0-.5,1.3.23.23,0,0,0,0,.14.24.24,0,0,0,.12.07,1.54,1.54,0,0,0,1-.1,4.75,4.75,0,0,0,.85-.55l1.24-.95c.27-.21.56-.47.55-.8a.55.55,0,0,0-.61-.5m-3.21.05a4.29,4.29,0,0,0,.6.75m2-10.73.78-.37m.73-1.39a1.18,1.18,0,0,0-.45-.18,1.26,1.26,0,0,0-.08.72,5.39,5.39,0,0,0,1,2.57c.17.25.45.52.74.42a.72.72,0,0,0,.36-.33,1.78,1.78,0,0,0,.35-1,2.15,2.15,0,0,0-.67-1.25,3.34,3.34,0,0,0-1.83-1.29m-7.06-4.65.24-.73m-.45-.14c.76,0,1.52,0,2.28,0,.21,0,.48-.06.55-.27a.39.39,0,0,0-.17-.43,1.05,1.05,0,0,0-.47-.16l-1.17-.21a4.61,4.61,0,0,0-1.38-.12,1.55,1.55,0,0,0-1.16.67m.2.17a1.64,1.64,0,0,0,1.27.49M28.05,278s0,0,0,0a.07.07,0,0,0,0-.05,3.68,3.68,0,0,0-.7-.32m-.71.05A5.74,5.74,0,0,0,28,275.45c0-.07,0-.16,0-.21a.17.17,0,0,0-.1-.06,1.32,1.32,0,0,0-1.19.35,3,3,0,0,0-.71,1.05,3.71,3.71,0,0,0-.42,1.65c0,.16.1.37.26.33a.39.39,0,0,0,.11-.06,2.68,2.68,0,0,0,.68-.89m-1.36,9.29a2.42,2.42,0,0,0-1.37.46m-.2-.33a4,4,0,0,0-1.06-1.38,1,1,0,0,0-.61-.21.81.81,0,0,0-.6.45,1.64,1.64,0,0,0-.14.76,2.74,2.74,0,0,0,.41,1.45,1.85,1.85,0,0,0,1.21.85.72.72,0,0,0,.48-.05.92.92,0,0,0,.22-.22,2.12,2.12,0,0,0,.25-1.94m8.76,6.72a12,12,0,0,0-.78,1.66m.16.59a15.24,15.24,0,0,0-1.79-.14,3,3,0,0,0-1.23.16,1.11,1.11,0,0,0-.72.93.4.4,0,0,0,.05.26.74.74,0,0,0,.41.27,7.69,7.69,0,0,0,2.29.28,3,3,0,0,0,1.73-.4.82.82,0,0,0,.39-1,1,1,0,0,0-.57-.35,3.88,3.88,0,0,0-1.17-.15m112.55-77a9.84,9.84,0,1,1-9.83-9.84A9.83,9.83,0,0,1,143.93,218.6Zm-6.13-2.22a1,1,0,0,0-.94.44,2.36,2.36,0,0,0-.33,1,2.56,2.56,0,0,0,.51,2.24,1.66,1.66,0,0,0,1.25.44,2.11,2.11,0,0,0,1.23-.53,1.46,1.46,0,0,0,.47-.63,1.39,1.39,0,0,0,.07-.61,2.54,2.54,0,0,0-1-1.83,2.78,2.78,0,0,0-2-.58m-7.69-4.18a3.3,3.3,0,0,0-1.53,2.51,1,1,0,0,0,.16.7.77.77,0,0,0,.87.17,2.07,2.07,0,0,0,.72-.6,3.69,3.69,0,0,0,1-2.15.83.83,0,0,0-.09-.44.68.68,0,0,0-.48-.26,1.35,1.35,0,0,0-.92.22m2.28,2.84-.26-.11a1.22,1.22,0,0,0-.87-.14m6.43,3.62h-1.47m-6.71,3.26a1.52,1.52,0,0,1-.56-.05.55.55,0,0,0-.51.15.63.63,0,0,0-.09.33,2.43,2.43,0,0,0,1.72,2.3,3.28,3.28,0,0,0,.93.1,1.81,1.81,0,0,0,.73-.12.88.88,0,0,0,.5-.52.9.9,0,0,0-.17-.75,2,2,0,0,0-.6-.51,19.17,19.17,0,0,0-1.78-1c-.14-.07-.33-.14-.44,0m2.53-.64a4.25,4.25,0,0,0-.88,1.14M144,225.94a3.47,3.47,0,0,0-1.57.57,4.06,4.06,0,0,0-1.1.88,1.91,1.91,0,0,0-.5,1.3.22.22,0,0,0,0,.14.47.47,0,0,0,.12.07,1.48,1.48,0,0,0,1-.11,3.64,3.64,0,0,0,.85-.55l1.25-.94c.26-.21.56-.47.54-.81a.54.54,0,0,0-.6-.49m-3.21.05a4.75,4.75,0,0,0,.59.75m2-10.74.78-.37m.74-1.38a1.25,1.25,0,0,0-.45-.18,1.36,1.36,0,0,0-.09.72,5.49,5.49,0,0,0,1,2.57c.18.25.45.52.75.42a.7.7,0,0,0,.35-.33,1.8,1.8,0,0,0,.35-1,2.12,2.12,0,0,0-.67-1.25,3.29,3.29,0,0,0-1.83-1.3m-7.05-4.64.24-.73m-.46-.14q1.14,0,2.28,0c.22,0,.48-.06.56-.27a.4.4,0,0,0-.17-.43,1.14,1.14,0,0,0-.47-.16l-1.18-.21a4.58,4.58,0,0,0-1.38-.12,1.57,1.57,0,0,0-1.16.67m.2.17a1.61,1.61,0,0,0,1.28.48m-10.14,3.06s0,0,0,0,0,0,0-.05a3.77,3.77,0,0,0-.71-.32m-.7,0a5.61,5.61,0,0,0,1.36-2.27.22.22,0,0,0,0-.21.24.24,0,0,0-.11-.06,1.33,1.33,0,0,0-1.18.34,3.37,3.37,0,0,0-.72,1.06,3.57,3.57,0,0,0-.41,1.65c0,.16.1.37.26.33a.6.6,0,0,0,.11-.06,2.79,2.79,0,0,0,.67-.89m-1.35,9.28a2.41,2.41,0,0,0-1.37.47m-.2-.33a4,4,0,0,0-1.07-1.38,1,1,0,0,0-.6-.21.78.78,0,0,0-.6.45,1.52,1.52,0,0,0-.14.76,2.82,2.82,0,0,0,.4,1.45,1.9,1.9,0,0,0,1.22.85.72.72,0,0,0,.48-.05,1.1,1.1,0,0,0,.21-.22,2.12,2.12,0,0,0,.25-1.94m8.77,6.72a10.35,10.35,0,0,0-.78,1.65m.16.6a15.58,15.58,0,0,0-1.8-.14,3,3,0,0,0-1.22.16,1.13,1.13,0,0,0-.73.93.51.51,0,0,0,0,.25.65.65,0,0,0,.42.27,7.29,7.29,0,0,0,2.28.29,3.07,3.07,0,0,0,1.74-.4c.33-.22.59-.67.38-1a1,1,0,0,0-.56-.35,3.9,3.9,0,0,0-1.18-.15M103.93,373.6a9.84,9.84,0,1,1-9.83-9.84A9.83,9.83,0,0,1,103.93,373.6Zm-6.13-2.22a1,1,0,0,0-.94.44,2.36,2.36,0,0,0-.33,1A2.56,2.56,0,0,0,97,375.1a1.66,1.66,0,0,0,1.25.44,2.11,2.11,0,0,0,1.23-.53,1.46,1.46,0,0,0,.47-.63,1.39,1.39,0,0,0,.07-.61,2.54,2.54,0,0,0-1-1.83,2.78,2.78,0,0,0-2-.58m-7.69-4.18a3.3,3.3,0,0,0-1.53,2.51,1,1,0,0,0,.16.7.77.77,0,0,0,.87.17,2.07,2.07,0,0,0,.72-.6,3.69,3.69,0,0,0,1-2.15.83.83,0,0,0-.09-.44.68.68,0,0,0-.48-.26,1.35,1.35,0,0,0-.92.22m2.28,2.84-.26-.11a1.22,1.22,0,0,0-.87-.14m6.43,3.62H95.27m-6.71,3.26a1.52,1.52,0,0,1-.56-.05.55.55,0,0,0-.51.15.63.63,0,0,0-.09.33,2.43,2.43,0,0,0,1.72,2.3,3.28,3.28,0,0,0,.93.1,1.81,1.81,0,0,0,.73-.12.88.88,0,0,0,.5-.52.9.9,0,0,0-.17-.75,2,2,0,0,0-.6-.51,19.17,19.17,0,0,0-1.78-1c-.14-.07-.33-.14-.44,0m2.53-.64a4.25,4.25,0,0,0-.88,1.14M104,380.94a3.47,3.47,0,0,0-1.57.57,4.06,4.06,0,0,0-1.1.88,1.91,1.91,0,0,0-.5,1.3.22.22,0,0,0,0,.14.47.47,0,0,0,.12.07,1.48,1.48,0,0,0,1-.11,3.64,3.64,0,0,0,.85-.55l1.25-.94c.26-.21.56-.47.54-.81a.54.54,0,0,0-.6-.49m-3.21.05a4.75,4.75,0,0,0,.59.75m2-10.74.78-.37m.74-1.38a1.25,1.25,0,0,0-.45-.18,1.36,1.36,0,0,0-.09.72,5.49,5.49,0,0,0,1,2.57c.18.25.45.52.75.42a.7.7,0,0,0,.35-.33,1.8,1.8,0,0,0,.35-1,2.12,2.12,0,0,0-.67-1.25,3.29,3.29,0,0,0-1.83-1.3m-7-4.64.24-.73m-.46-.14q1.14,0,2.28,0c.22,0,.48-.06.56-.27a.4.4,0,0,0-.17-.43,1.14,1.14,0,0,0-.47-.16l-1.18-.21a4.58,4.58,0,0,0-1.38-.12,1.57,1.57,0,0,0-1.16.67m.2.17a1.61,1.61,0,0,0,1.28.48m-10.14,3.06s0,0,0,0,0,0,0,0a3.77,3.77,0,0,0-.71-.32m-.7,0A5.61,5.61,0,0,0,86.83,364a.22.22,0,0,0,0-.21.24.24,0,0,0-.11-.06,1.33,1.33,0,0,0-1.18.34,3.37,3.37,0,0,0-.72,1.06,3.57,3.57,0,0,0-.41,1.65c0,.16.1.37.26.33a.6.6,0,0,0,.11-.06,2.79,2.79,0,0,0,.67-.89m-1.35,9.28a2.41,2.41,0,0,0-1.37.47m-.2-.33a4,4,0,0,0-1.07-1.38,1,1,0,0,0-.6-.21.78.78,0,0,0-.6.45,1.52,1.52,0,0,0-.14.76,2.82,2.82,0,0,0,.4,1.45,1.9,1.9,0,0,0,1.22.85.72.72,0,0,0,.48-.05,1.1,1.1,0,0,0,.21-.22,2.12,2.12,0,0,0,.25-1.94M91.45,382a10.35,10.35,0,0,0-.78,1.65m.16.6a15.58,15.58,0,0,0-1.8-.14,3,3,0,0,0-1.22.16,1.13,1.13,0,0,0-.73.93.51.51,0,0,0,0,.25.65.65,0,0,0,.42.27,7.29,7.29,0,0,0,2.28.29,3.07,3.07,0,0,0,1.74-.4c.33-.22.59-.67.38-1a1,1,0,0,0-.56-.35,3.9,3.9,0,0,0-1.18-.15" fill="none" stroke="#fff" stroke-miterlimit="10"/><path id="rope" d="M118,202V420m12.52-246.58a8.08,8.08,0,0,0,13.12,7,3.71,3.71,0,0,0,1.1-1.27c.75-1.55-.29-3.48-1.79-4.3a9.74,9.74,0,0,0-5-.73,33,33,0,0,0-10.32,1.68,13.6,13.6,0,0,0-7.76,6.66,20.63,20.63,0,0,0-1.45,6.57,67.94,67.94,0,0,0-.57,14.1" fill="none" stroke="#000" stroke-miterlimit="10" stroke-width="2"/></g></svg>