<svg id="whole" xmlns="http://www.w3.org/2000/svg" viewBox="0 0 199 199"><g id="background"><path d="M22.6,196A19.62,19.62,0,0,1,3,176.4V22.6A19.62,19.62,0,0,1,22.6,3H176.4A19.62,19.62,0,0,1,196,22.6V176.4A19.62,19.62,0,0,1,176.4,196Z" fill="#fff"/><path d="M176.4,6A16.62,16.62,0,0,1,193,22.6V176.4A16.62,16.62,0,0,1,176.4,193H22.6A16.62,16.62,0,0,1,6,176.4V22.6A16.62,16.62,0,0,1,22.6,6H176.4m0-6H22.6A22.6,22.6,0,0,0,0,22.6V176.4A22.6,22.6,0,0,0,22.6,199H176.4A22.6,22.6,0,0,0,199,176.4V22.6A22.6,22.6,0,0,0,176.4,0Z"/></g><g id="man"><g id="head"><path d="M99,18A23,23,0,1,1,76,41,23,23,0,0,1,99,18m0-4a27,27,0,1,0,27,27A27,27,0,0,0,99,14Z"/></g><g id="torso"><path d="M96.72,64.46q-.14,38,3.4,76c.3,3.19.81,6.41.88,9.61,0,2.12-.12,4.73-2.26,5.77-1.74.84-.22,3.43,1.51,2.59,4.54-2.2,3.84-8.18,3.42-12.3q-1-9.85-1.74-19.75-1.49-19.77-2-39.59-.27-11.15-.23-22.3a1.5,1.5,0,0,0-3,0Z"/></g><g id="arms"><path d="M150.33,79.94a2.72,2.72,0,0,1-.71,3.12,5.32,5.32,0,0,1-4.29,1.2,12.88,12.88,0,0,1-4.81-1.17c-1-.49-2.52-2-1.48-3.14l-2.51-.66a8.62,8.62,0,0,0,3.41,4.65,7.91,7.91,0,0,0,2.68,1.16c1,.23,1.92.15,2.34,1.25a23.27,23.27,0,0,1,1.21,5.9,10.75,10.75,0,0,1-.73,5.83c-1.85,3.7-6.36,4.06-10,4.1-5.21,0-10.42,0-15.63-.06l-18-.08a1.5,1.5,0,0,0,0,3c11.32,0,22.67.34,34,.14,4.2-.07,8.81-.76,11.48-4.37s2.15-8.44,1.26-12.56c-.52-2.39-1-5-3.7-5.76a9.61,9.61,0,0,1-3.37-1.14,5.42,5.42,0,0,1-2-2.85,1.51,1.51,0,0,0-2.51-.66,4.81,4.81,0,0,0,.35,6.58c1.9,2,5,2.57,7.64,2.81s5.32-.3,7.06-2.29a5.68,5.68,0,0,0,1-6.51c-.94-1.7-3.53-.19-2.6,1.51Z"/><path d="M39.63,90.31c-3,3.88-2.75,10,1.85,12.54A6.55,6.55,0,0,0,51.26,97c0-1.36-2.17-2.2-2.8-.76-.94,2.18-2.43,4.69-4.91,5.3-1.79.44-4.58-1-4-3.13l-3-.4c.11,8,1.66,18.32,11.28,19.8,5.12.79,10.6-.64,15.49-2.06,5.56-1.61,11-3.67,16.43-5.6l19-6.75c1.81-.64,1-3.54-.8-2.89-10.24,3.63-20.43,7.41-30.73,10.86-4.87,1.63-10,3.22-15.1,3.59-4.19.3-8.16-.75-10.32-4.61-2.06-3.68-2.22-8.22-2.28-12.33a1.51,1.51,0,0,0-2.95-.4c-1,3.7,2.44,6.93,6,7,4,.11,7-3.54,8.41-6.89L48.25,97a3.56,3.56,0,0,1-5.85,2.88c-2.7-2-2-5.72-.2-8.07a1.49,1.49,0,1,0-2.57-1.51Z"/></g><g id="legs"><path d="M92.55,178a14.93,14.93,0,0,0,19.37,5.1,1.47,1.47,0,0,0,.74-1.3c0-1.41-.07-2.82-.11-4.23a1.52,1.52,0,0,0-1.5-1.5c-7.78.07-14.33-8.71-22.35-5.41a1.52,1.52,0,0,0-.66,2.51,17.28,17.28,0,0,1,4.61,6.61c.48-.63,1-1.27,1.45-1.9q-11.4-.85-22.79-2-5.69-.57-11.37-1.22c-3.06-.35-6.5-.38-9.42-1.5a4.07,4.07,0,0,1-2.41-1.94,3.57,3.57,0,0,1,1.13-3.78c2.34-2.26,6.49-2.58,9.52-3.16A131.68,131.68,0,0,1,80.82,162c6.79-.14,13.89-.31,19.47-4.67,1.52-1.19-.62-3.3-2.12-2.12-5.29,4.13-12.7,3.66-19,3.83a132.47,132.47,0,0,0-23.57,2.78c-3.32.7-7,1.45-9.2,4.31a6,6,0,0,0,.26,8.07c2,1.89,4.78,2.39,7.37,2.72,4.11.52,8.23,1,12.35,1.41q13.85,1.47,27.73,2.51a1.51,1.51,0,0,0,1.45-1.9,20.64,20.64,0,0,0-5.38-7.93l-.66,2.51c3.59-1.48,7.12.27,10.35,1.88,3.53,1.76,7.16,3.68,11.2,3.64l-1.5-1.5c0,1.41.07,2.82.11,4.23.25-.43.5-.86.74-1.3a11.86,11.86,0,0,1-15.26-4c-1-1.65-3.61-.15-2.59,1.5Z"/><path d="M127.17,176.72c-.18,3.17-4,5.61-7,4.49-3.49-1.32-4-5.84-4.09-9.05,0-.9,0-1.8.07-2.7,0-.57,0-2.06.52-2.43s2.06.6,2.6.91a13.16,13.16,0,0,1,2.58,1.93,18.75,18.75,0,0,1,3.51,5.33c1.29,2.46,3.59,2.18,5.92,1.63a85.14,85.14,0,0,0,14.5-4.85c4.24-1.85,9.27-3.93,12.25-7.62,2.62-3.25,3.44-8.46,0-11.51s-8.32-2.35-12.38-2.24l-37.94,1c-1.93.05-1.93,3.05,0,3l34.94-.94c2.7-.07,5.43-.26,8.13-.16,1.84.06,4,.3,5.37,1.67,1.6,1.61,1.36,4.19.35,6.05a12.7,12.7,0,0,1-5.06,4.55,74.73,74.73,0,0,1-14.59,6.36,52,52,0,0,1-7.74,2.08c-1.29.2-1.43-1.12-1.91-2.08a16.71,16.71,0,0,0-7-7.09c-1.87-1-4.3-1.85-5.92.05-1.25,1.47-1.21,3.68-1.27,5.51a25.87,25.87,0,0,0,.43,6c.84,4.06,3.77,8,8.28,7.88a8.55,8.55,0,0,0,8.38-7.75c.12-1.93-2.88-1.93-3,0Z"/><path d="M104.73,152a3.51,3.51,0,0,0,2,1.54,4.46,4.46,0,0,0,.73.13,1.79,1.79,0,0,0,.4,0,3.54,3.54,0,0,0,1.43-.38,1.49,1.49,0,0,0,.69-.9,1.56,1.56,0,0,0-.15-1.16,1.52,1.52,0,0,0-.9-.69l-.4-.05a1.57,1.57,0,0,0-.76.2l-.09,0,.36-.15a1.88,1.88,0,0,1-.45.12l.4-.05a2.35,2.35,0,0,1-.53,0l.4.05a2.64,2.64,0,0,1-.55-.15l.36.15a2.3,2.3,0,0,1-.43-.25l.3.23a1.72,1.72,0,0,1-.33-.33l.23.3a2.14,2.14,0,0,1-.13-.19,1.51,1.51,0,0,0-2.06-.54,1.52,1.52,0,0,0-.69.9,1.58,1.58,0,0,0,.15,1.17Z"/><path d="M101.08,148.22a8.31,8.31,0,0,0,2.47,4.67,8.43,8.43,0,0,0,2.16,1.54,8.82,8.82,0,0,0,2.89.84,1.5,1.5,0,0,0,1.5-1.5,1.5,1.5,0,0,0-.44-1.06,1.71,1.71,0,0,0-1.06-.44c.53.07-.11,0-.24-.05l-.54-.14-.48-.17c.41.13.15.06,0,0l-.23-.11a7.09,7.09,0,0,1-1-.58c-.08-.06-.29-.26,0,0a1.56,1.56,0,0,0-.2-.16l-.41-.38c-.13-.13-.26-.27-.38-.41l-.17-.2c-.18-.21.2.27,0,0a7.72,7.72,0,0,1-.57-.91l-.12-.23c-.06-.12-.12-.41,0,0a4.68,4.68,0,0,0-.18-.48,6.88,6.88,0,0,1-.25-1.09,1.49,1.49,0,0,0-.69-.9,1.52,1.52,0,0,0-1.16-.15,1.55,1.55,0,0,0-.9.69,1.8,1.8,0,0,0-.13,1.13Z"/></g></g></svg>