<svg xmlns="http://www.w3.org/2000/svg" viewBox="0 0 199 199"><g id="background"><rect x="3" y="3" width="193" height="193" rx="19.6" fill="#fff"/><path d="M176.4,6A16.62,16.62,0,0,1,193,22.6V176.4A16.62,16.62,0,0,1,176.4,193H22.6A16.62,16.62,0,0,1,6,176.4V22.6A16.62,16.62,0,0,1,22.6,6H176.4m0-6H22.6A22.6,22.6,0,0,0,0,22.6V176.4A22.6,22.6,0,0,0,22.6,199H176.4A22.6,22.6,0,0,0,199,176.4V22.6A22.6,22.6,0,0,0,176.4,0Z"/></g><g id="man"><g id="head"><path d="M66,92a23,23,0,1,1-23,23A23,23,0,0,1,66,92m0-4a27,27,0,1,0,27,27A27,27,0,0,0,66,88Z"/></g><g id="cloud"><path d="M103.49,14.91l4.25,3.86a1.54,1.54,0,0,0,1.82.23,43.84,43.84,0,0,1,42.58,1.41,1.51,1.51,0,0,0,1.81-.24c5.15-5,12.52-8.56,19.77-6.4a13.58,13.58,0,0,1,7.76,5.69c2.07,3.39,2.15,7.59,1.14,11.34-1.21,4.48-3.93,8.4-6.77,12a1.52,1.52,0,0,0,1.06,2.56c3.75.06,6.47,3.32,7.29,6.75,1,4-1,8.15-3.66,11.11-5.78,6.47-14.84,9.64-23.37,9.6A32.61,32.61,0,0,1,143,69.58a1.52,1.52,0,0,0-2.05.53c-3.76,7.52-11.34,12.24-19.46,13.71-9.23,1.67-18.74-1.31-26.6-6.07C90.64,75.17,85.75,72,83.62,67.3A1.51,1.51,0,0,0,81.27,67c-3.69,3.17-9.1,3.42-13.66,2.47a23.51,23.51,0,0,1-12.26-6.59C48.8,56.05,47.87,44,55.6,37.63A14.44,14.44,0,0,1,69.19,34.9a1.52,1.52,0,0,0,1.9-1.45c0-7.05,4.46-13.44,10.52-16.8,7-3.9,15.65-3.55,23-.9,1.82.65,2.6-2.25.79-2.9C97.2,9.9,87.52,9.78,79.77,14.24,73,18.16,68.1,25.49,68.09,33.45L70,32a17.24,17.24,0,0,0-14.8,2.23,18.27,18.27,0,0,0-8,13.19C45.82,59.18,54.49,69.19,65.5,72.05c6,1.57,13,1.28,17.89-2.93L81,68.81c2.07,4.54,6.5,7.72,10.55,10.39a50.64,50.64,0,0,0,14.14,6.58c9.18,2.56,19.16,1.82,27.42-3.15a27.2,27.2,0,0,0,10.4-11l-2,.54a36.59,36.59,0,0,0,29.27,1.14c8.4-3.33,18.57-11.39,16.41-21.65-1-4.89-5.08-9.2-10.26-9.29L178,44.93c5.55-7.07,11-16.38,6.88-25.51-3.4-7.54-12.55-10.53-20.21-8.77a27.39,27.39,0,0,0-12.81,7.4l1.82-.23A46.92,46.92,0,0,0,108,16.41l1.82.24-4.25-3.86c-1.42-1.3-3.55.81-2.12,2.12Z"/><path d="M35.33,82.17l0-.84a1.54,1.54,0,0,0-1.5-1.5,6.29,6.29,0,0,0-4.2.57,5.19,5.19,0,0,0-2.17,3.92,8.06,8.06,0,0,0,2.92,7.37,6.18,6.18,0,0,0,7.42,0,6.45,6.45,0,0,0,2.12-3.57A8.54,8.54,0,0,0,40,83.9c-.53-1.87-2.1-2.77-3.85-3.31A14.18,14.18,0,0,0,31,80a1.5,1.5,0,0,0,0,3,11.71,11.71,0,0,1,3.47.24,13.13,13.13,0,0,1,1.62.49,2.68,2.68,0,0,1,.52.26,1.21,1.21,0,0,1,.4.33c-.12-.15.12.24.11.22-.12-.23,0,0,0,.11a2,2,0,0,1,.09.35c.06.3,0,.11,0,0,0,.25,0,.5,0,.75l0,.37c0,.06,0,.55,0,.28a7.86,7.86,0,0,1-.3,1.36,3.81,3.81,0,0,1-.15.44c.08-.2,0,0,0,.06a4.43,4.43,0,0,1-.46.78c.13-.17,0,0,0,0l-.32.31s-.22.15,0,0a2.61,2.61,0,0,1-.28.17l-.3.16c.25-.12,0,0,0,0s-.25.09-.38.12-.47.08-.14,0a3.83,3.83,0,0,1-.68,0l-.27,0c-.43,0,.26.08-.15,0q-.3-.06-.6-.15c-.11,0-.22-.07-.33-.12.29.12-.11-.07-.14-.08a4.38,4.38,0,0,1-.58-.37c.2.15,0,0,0,0s-.22-.2-.32-.31l-.19-.21c-.29-.33.12.21-.12-.16-.13-.2-.26-.41-.37-.62a3.49,3.49,0,0,1-.19-.39c0,.06.07.22,0,0s-.16-.47-.22-.71l-.06-.28s-.09-.5,0-.19a6,6,0,0,1-.05-.73,8.53,8.53,0,0,1,0-.88c0-.47,0,.15,0-.12s.07-.34.12-.51.06-.19.09-.28c.09-.3-.07.06.08-.18a2.26,2.26,0,0,1,.22-.37c-.15.19.11-.1.15-.13-.16.14,0,0,.05,0l.26-.15c-.11,0-.11,0,0,0l.36-.09c.31-.09-.1,0,.2,0a11.66,11.66,0,0,1,1.87.1l-1.5-1.5,0,.84a1.5,1.5,0,0,0,3,0Z"/><path d="M34.73,52.12a8.48,8.48,0,0,0-10.35,2.47c-2.19,2.75-3.79,7.84-1.52,11C24,67.24,26.2,68,28,68.8a14.8,14.8,0,0,0,6.16,1.41c3.79-.12,7.35-2.42,7.94-6.34a13.12,13.12,0,0,0-.54-7c-.93-2.08-3-3-5-3.79a1.5,1.5,0,0,0-1.84,1,1.54,1.54,0,0,0,1.05,1.85c1.1.43,2.46.92,3,2a9.12,9.12,0,0,1,.47,4.25,4.77,4.77,0,0,1-1.44,3.66,5.85,5.85,0,0,1-3.12,1.29c-2.88.33-6-1.13-8.47-2.54s-1.39-5-.32-7c1.37-2.52,4.49-4.37,7.3-2.94,1.72.87,3.24-1.72,1.51-2.6Z"/></g><g id="money"><path d="M108.66,28.1c-3.4.19-6.83.3-10.23.61-3,.28-6.06.9-8.52,2.76-2.15,1.61-3.88,4.19-3.17,7s3.12,4.44,5.69,5.09C98.17,45,104.5,42.9,110,45.71c2.14,1.09,4.64,3.46,3.22,6-1.25,2.27-4.27,3.56-6.51,4.56-6.43,2.87-13.74,2.55-19.06-2.38-1.41-1.32-3.54.8-2.12,2.12a19.28,19.28,0,0,0,16.81,4.8,29.48,29.48,0,0,0,9-3.53c2.17-1.26,4.37-3,5.08-5.51,1.76-6.27-5.76-9.74-10.68-10.42A87.09,87.09,0,0,0,96.58,41c-2.42-.07-6.71-.47-7-3.67-.14-1.55,1.29-3,2.48-3.73a12,12,0,0,1,4.67-1.69,108.18,108.18,0,0,1,11.94-.82c1.92-.11,1.94-3.11,0-3Z" fill="#008c00"/><path d="M96.12,66.25c.62-7.51.45-15,.32-22.56L96,20.63c0-1.93-3-1.94-3,0l.4,23.06c.13,7.53.3,15.05-.32,22.56-.15,1.93,2.85,1.92,3,0Z" fill="#008c00"/><path d="M102.3,19q-.76,25,0,50.08c0,1.92,3,1.93,3,0q-.73-25,0-50.08c.06-1.93-2.94-1.93-3,0Z" fill="#008c00"/></g><g id="love"><path d="M147.62,36.13c.42-.7-.38-1.5-1.1-1.89A20,20,0,0,0,142,32.48c-2.34-.58-5.17-.58-6.74,1.26-1.36,1.59-1.19,4.06-.21,5.91a17.85,17.85,0,0,0,4.21,4.64c5,4.42,9.57,9.5,12.16,15.64a23.29,23.29,0,0,1,4-11.2c.88-1.27,1.87-2.44,2.74-3.71a21.73,21.73,0,0,0,3.55-9.24,4.66,4.66,0,0,0-.05-2c-.53-1.75-2.64-2.43-4.46-2.52a9.47,9.47,0,0,0-5.74,1.31A5.29,5.29,0,0,0,149,37.7" fill="#9b0202"/><path d="M150.51,36.92c1.67-4.54-5.17-6.86-8.42-7.48-3.64-.69-7.84-.12-9.86,3.38-2.15,3.7-.5,8.06,2.13,11,2.46,2.75,5.47,5,8,7.73a36.17,36.17,0,0,1,6.48,9.91,3,3,0,0,0,3.38,1.38,3.12,3.12,0,0,0,2.21-2.89c.43-4.58,2.55-8.31,5.27-11.91s5-8.34,5.12-13c.28-10.64-20.15-8-18.77,2.71a3.09,3.09,0,0,0,3,3c1.46,0,3.21-1.38,3-3A2.46,2.46,0,0,1,153.32,35a6.8,6.8,0,0,1,4.05-.68c.2,0,.21,0,0,0,.22,0,.43.08.65.14s.86.34.51.16c.31.16.21,0,.38.28-.07-.13-.13-.15-.14-.28.2,1.57-.6,3.57-1.14,5-1.27,3.42-3.93,6-5.74,9a27.18,27.18,0,0,0-3.52,11.27L154,58.42c-2.94-6.85-8.12-12.18-13.57-17.09a10.28,10.28,0,0,1-2.94-3.5,3.65,3.65,0,0,1-.24-1.35c.07-.65.27-.89.54-1a5.33,5.33,0,0,1,3.07-.17,16.55,16.55,0,0,1,2.46.74c.31.12.61.25.92.39l.79.4a4.34,4.34,0,0,0-.29-1.5,3,3,0,0,0,2.1,3.69,3.06,3.06,0,0,0,3.69-2.1Z" fill="#9a0000"/></g><g id="body"><path d="M83.06,180.27a19.43,19.43,0,0,1-14.62-12.35c-1.43-4-1.22-8.41-1.23-12.63L67.15,141a1.5,1.5,0,0,0-3,0l.06,15.49c0,4.46,0,9,1.72,13.19a22.45,22.45,0,0,0,16.33,13.45c1.89.35,2.7-2.54.8-2.9Z"/><path d="M115.21,173.63a9,9,0,0,1-1.75-4.4c-.34-1.75-.63-3.5-1.12-5.21a36.64,36.64,0,0,0-2-5.25c-.7-1.46-1.49-3.36-2.77-4.41-3.24-2.64-6.41,2.47-8.15,4.54l-8.34,9.87L81.61,180c-1.23,1.47.88,3.6,2.13,2.12l19.39-23c.49-.58,1.4-2.15,2.2-2.35.49-.12.43,0,.74.45s.52.88.77,1.32a31,31,0,0,1,2.54,6.07c1.12,3.75,1,8.06,3.71,11.15,1.28,1.45,3.39-.68,2.12-2.13Z"/><path d="M105.26,168.13l-.8-12.47c-.1-1.56.18-3.91-.81-5.25s-2.77-1.17-4.14-.63c-3.16,1.23-4.91,4.53-6.69,7.2q-3.45,5.16-7,10.26-4.11,5.89-8.34,11.7c-1.13,1.56,1.47,3.06,2.6,1.52q8-11,15.59-22.37a23.74,23.74,0,0,1,3.37-4.52,4.15,4.15,0,0,1,2.1-1.17c.49-.06,0-.23.11.09a9,9,0,0,1,.12,1.95l.88,13.69c.12,1.92,3.12,1.93,3,0Z"/><path d="M65.6,151.92c.66,3.43,1.2,7.06.06,10.44a30.45,30.45,0,0,1-2.43,4.8c-.92,1.66-1.84,3.32-2.69,5-1.5,3-2.8,6.33-2.77,9.76,0,1.57.54,2.7,2.14,3.12a18.48,18.48,0,0,0,5.3.46c1.92-.05,1.93-3.05,0-3a22.59,22.59,0,0,1-4.79-.42l.36.29c0-.22,0-.44,0-.67s0-.74.06-1.11a14,14,0,0,1,.44-2.23,42.53,42.53,0,0,1,4.19-9.06c1.54-2.81,3.22-5.5,3.67-8.72a29,29,0,0,0-.63-9.47c-.37-1.9-3.26-1.1-2.9.79Z"/><path d="M64.55,147.74c-3.38.23-5.6,2.61-7.48,5.2a73.58,73.58,0,0,1-7,8.54c-2.75,2.78-5.69,5.35-8.63,7.92-1.24,1.08-2.85,2.3-2.84,4.13a3.36,3.36,0,0,0,2.64,3.05,25.45,25.45,0,0,0,6.41.52q3.6.08,7.19-.18c1.92-.13,1.93-3.13,0-3q-3.34.24-6.71.19c-1.12,0-2.24-.06-3.36-.13a10.11,10.11,0,0,1-2.74-.3c-.89-.31,0-.83.53-1.29.76-.7,1.56-1.36,2.33-2,1.5-1.31,3-2.63,4.44-4a69.8,69.8,0,0,0,8.16-8.86c1.77-2.34,3.73-6.54,7.08-6.77,1.91-.13,1.93-3.13,0-3Z"/><path d="M65.86,185.19h7.78a1.5,1.5,0,0,0,0-3H65.86a1.5,1.5,0,0,0,0,3Z"/><path d="M67.13,108.32a6.2,6.2,0,0,0,4.76-2.79,6.27,6.27,0,0,0,.89-2.65,10.18,10.18,0,0,0-.26-3l-2.21,1.7.31.17a1.5,1.5,0,1,0,1.52-2.59L71.83,99a1.52,1.52,0,0,0-1.67.11,1.55,1.55,0,0,0-.54,1.58c0,.19.07.37.11.56s0,.21,0,.32,0,.08,0,0a1.75,1.75,0,0,1,0,.56c0,.2,0,.38,0,.57s0,0,0-.08a.65.65,0,0,1,0,.27,3.9,3.9,0,0,1-.12.46c0,.07-.05.14-.07.2-.1.27.09-.17,0,0s-.14.28-.23.42-.23.26-.24.35c.12-.14.14-.18.07-.09l-.07.08-.15.16a2.72,2.72,0,0,0-.35.32l.09-.07-.09.06-.18.12a4.16,4.16,0,0,1-.42.23c-.24.13.19-.06,0,0l-.2.07a4,4,0,0,1-.46.13l-.21,0c-.37.07.34,0,0,0a1.53,1.53,0,0,0-1.5,1.5,1.5,1.5,0,0,0,1.5,1.5Z"/><path d="M73.53,100.22l.61,2.68a8.45,8.45,0,0,0,.83,2.71,3.49,3.49,0,0,0,2.75,1.44,3,3,0,0,0,2.71-.71,1.5,1.5,0,0,0-2.12-2.12c-.18.2.23-.15.1-.06s.35-.13.11-.06.28,0,.12,0H78l-.26,0,.15,0c-.13,0-.28-.06-.41-.09-.28-.07.29.16,0,0l-.14-.08c-.26-.15.3.2,0,0s.07,0,.07.09a.63.63,0,0,1-.07-.12q-.08-.15.06.15s-.07-.19-.07-.22c-.21-.7-.34-1.43-.5-2.15l-.53-2.29a1.51,1.51,0,0,0-1.84-1,1.54,1.54,0,0,0-1,1.85Z"/><path d="M74.27,114.75a8.8,8.8,0,0,0-2-5,5.63,5.63,0,0,0-.88-.88,2.17,2.17,0,0,0-2.36-.16c-.8.37-1.58.8-2.36,1.23a1.51,1.51,0,0,0-.54,2,1.53,1.53,0,0,0,2,.54l1.25-.67.63-.32.27-.13.17-.09c-.21.08-.24.1-.09.05l-.39.06a.55.55,0,0,1,.18,0l-.4,0c.15,0,.11,0-.14-.07s-.24-.19-.12-.09.12.11.18.17l.4.45c.09.13.07.09-.08-.1l.1.14.15.22a6.16,6.16,0,0,1,.33.55c0,.09.1.18.14.27s.18.39.07.14,0,.09,0,.14l.1.28a6.5,6.5,0,0,1,.27,1.22l0-.4c0,.15,0,.29,0,.43a1.5,1.5,0,0,0,3,0Z"/><path d="M79.84,107.84a3.15,3.15,0,0,0-1.64.08,3.85,3.85,0,0,0-1.33.8A5.64,5.64,0,0,0,75.55,111a4.37,4.37,0,0,0-.28,2.69,2.84,2.84,0,0,0,2.14,2,1.54,1.54,0,0,0,1.15-.15,1.49,1.49,0,0,0,.69-.89,1.52,1.52,0,0,0-1-1.85,1.29,1.29,0,0,1-.28-.08l.35.16-.19-.1c-.24-.11.28.26,0,0s.12.21.05.09l-.12-.23.15.36a1.8,1.8,0,0,1-.1-.4l.06.4a2.18,2.18,0,0,1,0-.51l-.06.4a6.78,6.78,0,0,1,.47-1.53l-.15.36c.07-.15.13-.3.21-.45l.12-.21s.24-.33.07-.11,0,0,.07-.06.27-.23,0-.07,0,0,.08,0l.24-.13-.35.15a1.69,1.69,0,0,1,.44-.12l-.4,0h.39l-.4,0H79a1.59,1.59,0,0,0,1.15-.15,1.49,1.49,0,0,0,.69-.9,1.51,1.51,0,0,0-1-1.84Z"/></g></g></svg>