<svg xmlns="http://www.w3.org/2000/svg" viewBox="0 0 199 199"><g id="background"><rect x="3" y="3" width="193" height="193" rx="19.6" fill="#fff"/><path d="M176.4,6A16.62,16.62,0,0,1,193,22.6V176.4A16.62,16.62,0,0,1,176.4,193H22.6A16.62,16.62,0,0,1,6,176.4V22.6A16.62,16.62,0,0,1,22.6,6H176.4m0-6H22.6A22.6,22.6,0,0,0,0,22.6V176.4A22.6,22.6,0,0,0,22.6,199H176.4A22.6,22.6,0,0,0,199,176.4V22.6A22.6,22.6,0,0,0,176.4,0Z"/></g><g id="man"><g id="head"><circle cx="53" cy="51" r="25" fill="#fff"/><path d="M53,28A23,23,0,1,1,30,51,23,23,0,0,1,53,28m0-4A27,27,0,1,0,80,51,27,27,0,0,0,53,24Z"/></g><path d="M155,173c0-.86-111-19-111-19-42-19-1-81,0-81m100.43,89.14a233.27,233.27,0,0,0-18-31.77c-1.88-2.79-3.94-5.65-6.94-7.18-6.11-3.13-13.4.27-19.39,3.62L47.89,156M28.25,104.66a46.79,46.79,0,0,0,60.54,1.49m-5-8.68a183.75,183.75,0,0,0-54.46,4.63m14.34-29c-.32,1.06.83,2,1.85,2.41a15.92,15.92,0,0,0,7.53,1.19m31.64,28.51c-.86,1.37-2.87,1.63-3.77,3-1.28,1.91.5,4.44,2.47,5.64s4.41,2.08,5.31,4.2a118.74,118.74,0,0,1,21.9-26.32A16.5,16.5,0,0,1,99.51,80.3a135.29,135.29,0,0,0-17.37,26.88c-.11.23-.21.52,0,.7s.53-.21.29-.27M95.76,84a23,23,0,0,1-.36-5.86C90.86,84,84.9,89,82.38,96m.74-.92-5.49,7.64A36.82,36.82,0,0,1,83,106.88m3.92-2.68-1,1-.6.84.86-.69m-.41,0q2.85-3.37,5.63-6.82m-1.88,4.59c-1,.44-1.94.93-2.87,1.46m-5.64-2.25,4-5.42a70.89,70.89,0,0,0,7.61-12m-4,21.6a11.54,11.54,0,0,0-4,1.68,4,4,0,0,1-1.1.61,2.21,2.21,0,0,0-.75.25m9.35-25.72a28.8,28.8,0,0,0-5.31,5.94c-.6,1-1.08,2.08-1.71,3.07a23.67,23.67,0,0,1-2.41,3.06m0,10.92a22,22,0,0,1,3-4.53A127.76,127.76,0,0,0,98,82.56m-4.93.13.21-.61m50.47,80.83c6.52-2.3,14.28-.4,20.17-4,.42-.26.88-.7.71-1.16a1.07,1.07,0,0,0-.72-.56,21.37,21.37,0,0,0-19.57,2.21c-.22.15-.44.51-.2.63m9.6,14.12c7.75-1.45,15.64-2.94,22.61-6.62a3.85,3.85,0,0,0,1.22-.88c.79-.93.61-2.3.39-3.49a1.72,1.72,0,0,0-2.41-1.57c-7.74.91-14.21,6.08-20.22,11" fill="#fff" stroke="#000" stroke-miterlimit="10" stroke-width="4"/></g></svg>