<svg xmlns="http://www.w3.org/2000/svg" viewBox="0 0 199 199"><g id="background"><rect x="3" y="3" width="193" height="193" rx="19.6" fill="#fff"/><path d="M176.4,6A16.62,16.62,0,0,1,193,22.6V176.4A16.62,16.62,0,0,1,176.4,193H22.6A16.62,16.62,0,0,1,6,176.4V22.6A16.62,16.62,0,0,1,22.6,6H176.4m0-6H22.6A22.6,22.6,0,0,0,0,22.6V176.4A22.6,22.6,0,0,0,22.6,199H176.4A22.6,22.6,0,0,0,199,176.4V22.6A22.6,22.6,0,0,0,176.4,0Z"/></g><g id="man"><g id="head"><circle cx="108" cy="142" r="25" fill="#fff"/><path d="M108,119a23,23,0,1,1-23,23,23,23,0,0,1,23-23m0-4a27,27,0,1,0,27,27,27,27,0,0,0-27-27Z"/></g><g id="body"><path d="M172,51.66c-7.1,3.51-14.23,7.17-21,11.36-2.47,1.54-5,3.51-6.06,6.33-1.17,3.14.29,6.22,2.53,8.45,2.56,2.55,5.76,4.35,8.65,6.49,2.49,1.85,5.88,4.63,5.34,8.14a20,20,0,0,1-2,5.07c-.77,1.7-1.57,3.39-2.43,5a40,40,0,0,1-6.53,9.26c-2.91,3-6.18,5.69-9.37,8.4-3.51,3-7.08,5.9-10.86,8.53l2.21.9-.33-1.68c-.36-1.89-3.25-1.09-2.89.8l.32,1.68a1.51,1.51,0,0,0,2.21.89A176.12,176.12,0,0,0,150,116.52a44.19,44.19,0,0,0,7.21-8.24A70.54,70.54,0,0,0,162.5,98.2c1.44-3.19,2.85-6.28,1.37-9.74-1.39-3.21-4.32-5.44-7.09-7.41s-6.27-3.8-8.27-6.68-.29-5.53,2.12-7.43c3.18-2.51,7.06-4.33,10.6-6.28q6.08-3.34,12.29-6.41c1.73-.86.22-3.45-1.51-2.59Z"/><path d="M161,85.34a99.65,99.65,0,0,1-27.89-17.59A100.55,100.55,0,0,1,121.79,56c-1.64-2-3-4.44-5.74-5.11a12.54,12.54,0,0,0-7,.19c-2.14.8-3.65,2.5-5.21,4.1-2,2.09-4.37,4.25-4.3,7.42a1.54,1.54,0,0,0,1.1,1.44,12.65,12.65,0,0,0,9.74-1.4c3.06-1.8,5.87-3.54,9.33-4.54a1.51,1.51,0,0,0-.8-2.9,32.53,32.53,0,0,0-8.62,4c-2.78,1.79-5.52,2.86-8.85,2l1.1,1.45c0-2.44,2.36-4.21,3.91-5.8,1.13-1.16,2.28-2.52,3.9-3,1.86-.54,4.94-.57,6.41.81,1.76,1.65,3.12,3.86,4.69,5.7a103.37,103.37,0,0,0,23.27,20,104,104,0,0,0,15.38,7.94,1.51,1.51,0,0,0,1.85-1A1.53,1.53,0,0,0,161,85.34Z"/><path d="M143.23,122.18c7.24,2.13,14.36-1.77,20.19-5.72a105.24,105.24,0,0,0,9.07-6.91c2.54-2.16,5.25-4.56,5.91-8,.36-1.89-2.53-2.7-2.89-.8-.57,3-3.12,5-5.31,6.82a99.23,99.23,0,0,1-8.29,6.29c-5.13,3.47-11.47,7.31-17.89,5.42a1.5,1.5,0,0,0-.79,2.89Z"/><path d="M135.29,89.8c-.52,4.77,1.41,9.58,2.42,14.18a133.31,133.31,0,0,1,2.36,14.89c.19,1.9,3.19,1.92,3,0a138.6,138.6,0,0,0-2.27-14.75c-.49-2.34-1.07-4.67-1.67-7a20.62,20.62,0,0,1-.84-7.32c.22-1.91-2.79-1.9-3,0Z"/><path d="M173.08,53.46c3-.94,4.74-3.71,5.31-6.66a43.64,43.64,0,0,0,.43-5c.11-1.58,1.21-2.81,1.37-4.4a1.52,1.52,0,0,0-1.5-1.5c-1.08,0-2-.61-3.14-.49a4.72,4.72,0,0,0-2.71,1.31,12,12,0,0,0-2.92,5.58,25.28,25.28,0,0,0-.83,6.54c0,2.08.16,4.1,1.94,5.44a1.51,1.51,0,0,0,2.05-.54,1.54,1.54,0,0,0-.53-2.06c-.29-.21-.37-.8-.41-1.12a15.15,15.15,0,0,1,0-2.43,21.5,21.5,0,0,1,.71-5,9.52,9.52,0,0,1,1.91-4,1.74,1.74,0,0,1,1.35-.71c.89.06,1.71.49,2.62.52l-1.5-1.5a5,5,0,0,1-.64,1.48,7.21,7.21,0,0,0-.66,2.19c-.17,1.37-.11,2.76-.28,4.14-.25,2.09-1.1,4.63-3.33,5.33-1.83.58-1.05,3.48.8,2.9Z"/></g><g id="ball"><path d="M65.37,66c-.19.37-.09.5.29.38h17a.75.75,0,0,0,0-1.5H66.37c-.84,0-3,0-2.45,1.52.34.89,1.79.51,1.45-.4Z"/><path d="M70.82,75.17q11-.36,21.88-1.29c1-.08,1-1.58,0-1.5q-10.92.93-21.88,1.29c-1,0-1,1.53,0,1.5Z"/><path d="M63.73,84.12c6.9.16,13.81,0,20.69-.55,1-.07,1-1.57,0-1.5-6.88.53-13.79.71-20.69.55a.75.75,0,0,0,0,1.5Z"/><path d="M37.5,61.75A12.76,12.76,0,1,0,50,72.16,12.92,12.92,0,0,0,37.5,61.75a.75.75,0,0,0,0,1.5A11.25,11.25,0,1,1,26.44,72.4,11.37,11.37,0,0,1,37.5,63.25.75.75,0,0,0,37.5,61.75Z"/><path d="M32.84,71c-.64-1-1.28-2.08-1.93-3.11s-1.34-1.72-2.47-1.47l.92.53c0,.08,0,.08,0,0s0,.06,0,0h0a1.57,1.57,0,0,1,.25-.16,2.48,2.48,0,0,1,.89-.18c.5,0,1.4,0,1.68.44a2.43,2.43,0,0,1,.1,1.26l0,1.68-.08,3.35,1.4-.37a20.05,20.05,0,0,0-5.39-5.16c-.81-.53-1.57.77-.76,1.29a18.38,18.38,0,0,1,4.85,4.62.76.76,0,0,0,1.4-.38l.1-4.23c0-1.26.26-2.79-1-3.54-1.45-.87-5.26-.67-4.85,1.76a.77.77,0,0,0,.93.52c.18,0,.42.27.53.41.24.31.43.67.64,1l1.53,2.47c.51.82,1.81.07,1.3-.75Z"/><path d="M37.26,85.59A13.7,13.7,0,0,0,41.14,78l-1.37.18a9.73,9.73,0,0,1,.57,4A2.92,2.92,0,0,1,40,84c-.2.27-.65.57-.95.43a.78.78,0,0,0-1,.27.76.76,0,0,0,.27,1,2.27,2.27,0,0,0,2.39-.32A3.31,3.31,0,0,0,41.81,83a14.12,14.12,0,0,0-.05-2.68,8.06,8.06,0,0,0-.7-2.85.76.76,0,0,0-1.37.18,12.39,12.39,0,0,1-3.49,6.89.75.75,0,0,0,1.06,1.06Z"/><path d="M49.73,73.12a17.24,17.24,0,0,0-9.55-2.63l.38,1.4c1.25-.84,2.78-1.9,4.37-1.68a3.71,3.71,0,0,1,2.72,2.48.76.76,0,0,0,.92.52.75.75,0,0,0,.53-.92,5.32,5.32,0,0,0-3.64-3.5c-2.07-.43-4,.69-5.66,1.8a.76.76,0,0,0,.38,1.4A15.91,15.91,0,0,1,49,74.41c.82.52,1.57-.78.75-1.29Z"/><path d="M28.37,80A7.18,7.18,0,0,0,34,78.41L33,77.35a9.6,9.6,0,0,1-4.61,2,.76.76,0,0,0-.52.93.77.77,0,0,0,.92.52A11.07,11.07,0,0,0,34,78.41a.76.76,0,0,0,0-1.06.78.78,0,0,0-1.07,0A5.74,5.74,0,0,1,32,78a4.74,4.74,0,0,1-1,.38,4.49,4.49,0,0,1-1.06.19h-.64l-.31,0h-.2a.75.75,0,0,0-.4,1.45Z"/><path d="M40.83,63.69A8.24,8.24,0,0,0,37.24,67l1.4.38a4.22,4.22,0,0,1,0-.94,1.94,1.94,0,0,1,0-.24c0,.21,0,0,0-.09a3.84,3.84,0,0,1,.11-.46,2.64,2.64,0,0,1,.15-.45l0-.09.1-.21c.08-.14.16-.27.25-.4a1.33,1.33,0,0,1,.14-.19l.06-.08a.75.75,0,0,0-1.06-1.06,5.52,5.52,0,0,0-1.32,4.21.75.75,0,0,0,1.4.38c.09-.16.18-.31.29-.47s.11-.15.17-.23.09-.15,0,0l.07-.09a6.74,6.74,0,0,1,.78-.82,1.82,1.82,0,0,1,.42-.36c-.05,0-.09.06,0,0l.12-.08.24-.17a7.17,7.17,0,0,1,1-.54.75.75,0,0,0,.27-1,.77.77,0,0,0-1-.27Z"/><path d="M47.48,81.56a5.24,5.24,0,0,0-2.22-5.62l-.38,1.39c-.17,0,.1,0,.13,0l.2,0,.26.09c-.13-.05,0,0,.06,0a2.8,2.8,0,0,1,.41.25c.07,0,.08,0,0,0a.27.27,0,0,1,.08.07l.18.16a.93.93,0,0,1,.14.14s.2.23.1.11a2.48,2.48,0,0,1,.26.4,1.62,1.62,0,0,1,.1.18c0,.08,0,.09,0,0s0,.09,0,.13a3.45,3.45,0,0,1,.12.46.74.74,0,0,0,.92.52.77.77,0,0,0,.52-.92,4.11,4.11,0,0,0-3.54-3.23.76.76,0,0,0-.73.55.8.8,0,0,0,.35.85l.28.19c-.06,0,0,0,0,0l.13.11c.16.15.3.31.44.47-.08-.1.08.11.1.15a2.2,2.2,0,0,1,.18.28l.15.27.07.16c0,.11-.06-.17,0,0a3.89,3.89,0,0,1,.18.58c0,.11.05.22.07.33s0,.08,0,0,0,.11,0,.17c0,.21,0,.43,0,.64s0,.11,0,.17,0-.18,0,0,0,.22-.07.33a.77.77,0,0,0,.52.93.78.78,0,0,0,.93-.53Z"/><path d="M33.28,78.3a5.5,5.5,0,0,1-.36.57L32.8,79c0-.06,0,0,0,0l-.22.26c-.15.16-.31.32-.48.47a2.75,2.75,0,0,1-.26.22c-.17.14.12-.08-.06.05l-.14.1c-.18.12-.37.24-.57.35l-.3.16-.15.07,0,0a6.11,6.11,0,0,1-1.33.37.76.76,0,0,0-.52.93.77.77,0,0,0,.92.52,7.13,7.13,0,0,0,4.93-3.5.77.77,0,0,0-.27-1,.75.75,0,0,0-1,.27Z"/></g></g></svg>