<svg xmlns="http://www.w3.org/2000/svg" viewBox="0 0 199 199"><g id="background"><rect x="3" y="3" width="193" height="193" rx="19.6" fill="#fff"/><path d="M176.4,6A16.62,16.62,0,0,1,193,22.6V176.4A16.62,16.62,0,0,1,176.4,193H22.6A16.62,16.62,0,0,1,6,176.4V22.6A16.62,16.62,0,0,1,22.6,6H176.4m0-6H22.6A22.6,22.6,0,0,0,0,22.6V176.4A22.6,22.6,0,0,0,22.6,199H176.4A22.6,22.6,0,0,0,199,176.4V22.6A22.6,22.6,0,0,0,176.4,0Z"/></g><g id="man"><g id="head"><circle cx="144" cy="64" r="25" fill="#fff"/><path d="M144,41a23,23,0,1,1-23,23,23,23,0,0,1,23-23m0-4a27,27,0,1,0,27,27,27,27,0,0,0-27-27Z"/></g><g id="arms"><path d="M159.2,95.74a45.78,45.78,0,0,1-6.22,8.89,34.12,34.12,0,0,1-9,6.51c-1.54.82-3.09,1.63-4.6,2.5s-2.74,1.91-4.18,2.77c-3.56,2.15-7.66,2.52-11.73,2.59-1.93,0-1.93,3,0,3a30.29,30.29,0,0,0,9.92-1.43c2.84-1,5.07-2.93,7.66-4.42s5.21-2.69,7.68-4.25a32.45,32.45,0,0,0,7.3-6.22,53.68,53.68,0,0,0,5.74-8.42,1.51,1.51,0,0,0-2.6-1.52Z"/><path d="M123.22,130.22c3.26-2.66,7.94-2.2,11.85-1.92,4.35.31,8.79.37,12.63-2,3.59-2.27,6.24-5.81,9-9l10-11.49c1.26-1.45-.85-3.58-2.12-2.12l-10,11.49c-2.73,3.12-5.38,6.86-9.08,8.9-4,2.2-8.7,1.25-13,1.06-4-.18-8.14.33-11.38,3-1.49,1.22.64,3.33,2.12,2.12Z"/></g><g id="legs"><path d="M154.49,87.19a89.36,89.36,0,0,1,13.92,37.56c.28,2.23.5,4.47.59,6.71s-.27,4.12-2.38,5.38c-3.74,2.22-8.17,3.57-12.31,4.82-4.38,1.32-8.82,2.4-13.25,3.51s-8.84,2.26-13.16,3.73c-4.08,1.39-8.38,2.95-11.94,5.42-4.31,3-6.12,7.46-8.17,12.11l-7.06,16c-.77,1.75,1.81,3.27,2.59,1.51l6.46-14.62c1.8-4.07,3.27-8.84,6.83-11.75s8.25-4.48,12.5-5.91S138,149,142.5,147.9s9-2.23,13.45-3.6c2.24-.7,4.46-1.46,6.64-2.34a34.08,34.08,0,0,0,5.87-2.74,7.13,7.13,0,0,0,3.42-5,27.25,27.25,0,0,0-.16-6.63,91.65,91.65,0,0,0-14.64-41.89c-1.05-1.61-3.65-.11-2.59,1.51Z"/><path d="M165.66,139.14a107,107,0,0,1-10.76,8c-3.64,2.35-7.48,4.36-11.15,6.66a42.81,42.81,0,0,0-15.43,16.56,41.65,41.65,0,0,0-4,12.14c-.31,1.88,2.58,2.7,2.9.79a39.1,39.1,0,0,1,9.21-19.45c5.46-6.18,12.82-9.49,19.65-13.86a115.79,115.79,0,0,0,11.75-8.66c1.48-1.25-.65-3.36-2.12-2.13Z"/></g><g id="macBook"><path d="M121.1,117a28,28,0,0,1,9.82,5.66,108.46,108.46,0,0,0,9,8.09,1.51,1.51,0,0,0,2-.54,1.53,1.53,0,0,0-.54-2c-3.2-2.41-5.88-5.3-8.83-8a31.84,31.84,0,0,0-10.74-6.07c-1.82-.66-2.6,2.24-.8,2.9Z"/><path d="M140,129.7q-10.93,1.8-21.75,4.3l1.85,1.05c-.45-2.3.16-4.62.63-6.86s.92-4.66,1.33-7q1.25-7.11,2-14.27c.22-2-.06-3.48-1.71-4.73s-3.45-2-5.12-3a104.58,104.58,0,0,1-10.8-7.68c-3.85-3.08-7.56-6.34-11.27-9.6a1.52,1.52,0,0,0-2.35.3c-1.15,2-1.28,4.16-1.54,6.38a28,28,0,0,1-1.75,6.66C88,99.49,85.75,103.57,84.74,108a3.18,3.18,0,0,0,.36,2.8,10.06,10.06,0,0,0,2.67,2.08c1.94,1.27,4,2.31,6.06,3.38a47.12,47.12,0,0,1,6.17,3.64,44.19,44.19,0,0,1,5.45,4.87c4.22,4.28,8.33,8.69,12.48,13,1.34,1.4,3.46-.72,2.12-2.12l-10.64-11.14a50.52,50.52,0,0,0-10.07-8.68c-1.92-1.17-3.94-2.16-5.92-3.21-1-.5-1.92-1-2.85-1.57-.43-.26-.87-.52-1.29-.8s-1.31-.68-1.57-1.1.34-2,.54-2.62c.34-1.07.74-2.13,1.16-3.17.78-2,1.66-3.89,2.47-5.85A36.71,36.71,0,0,0,94,90.8c.44-2.34.22-5,1.45-7.1l-2.36.3c6.37,5.61,12.78,11.23,19.85,16,1.73,1.15,3.51,2.25,5.33,3.28a18.3,18.3,0,0,1,2.35,1.35c.76.6.61,1.21.51,2.1-.51,4.67-1.19,9.32-2,13.95q-.68,3.87-1.49,7.71a18.44,18.44,0,0,0-.42,7.5,1.52,1.52,0,0,0,1.84,1q10.8-2.49,21.75-4.3c1.9-.31,1.09-3.2-.8-2.89Z"/><path d="M104.25,103.49a4,4,0,0,0-3.51,2,2.63,2.63,0,0,0-.12,2.24,2.27,2.27,0,0,0,1.62,1.42,1.56,1.56,0,0,0,1.85-1s.19-.42.06-.15c0-.1.09-.21.14-.31s.22-.44.34-.65c0,0,.21-.29.08-.12s.07-.07.1-.1c.23-.25-.24.15,0,0a.75.75,0,0,1-.57.09l.4-3a5.45,5.45,0,0,0-3.08.63,3,3,0,0,0-1.52,2.77c.21,2.18,2.47,3.55,4.44,3.93l-.9-2.2a.86.86,0,0,1,.52-.38c-.15,0-.11,0,.15,0-.13,0-.12,0,0,0s.15,0,0,0a.48.48,0,0,1,.28.15c.11.09.11.09,0,0a.42.42,0,0,1,.15.22c0,.11,0,.11,0,0s0-.14,0,.08c0-.27-.11.26,0,0,0-.09.18-.36,0-.09l.19-.31c.22-.33-.19.2.07-.09l.25-.27c.16-.18.34-.35.52-.52s-.18.1.08-.06l.3-.18c.16-.08.14-.07,0,0l.16,0c.11,0,.08,0-.11,0h.23a1.51,1.51,0,0,0,1.45-1.1,1.53,1.53,0,0,0-.69-1.69,7.31,7.31,0,0,0-2-.74,7.8,7.8,0,0,0-1.17-.15h-.51l-.26,0c-.16,0-.11,0,.16,0l.67.38-.06-.05.39.66c.08.23,0,.25,0,.1a2.65,2.65,0,0,0-.08-.48,1.71,1.71,0,0,0-.48-.78,2.09,2.09,0,0,0-1.58-.54,3.18,3.18,0,0,0-2.38,1.51,5.3,5.3,0,0,0-.67,2.46,3.87,3.87,0,0,0,.42,2.57,2.74,2.74,0,0,0,2.6,1.17c.21,0-.25-.07,0,0s-.08,0-.09,0c-.24-.14-.12-.1,0,0l.18.18a9,9,0,0,0,1.08,1,2.31,2.31,0,0,0,2.77,0,2,2,0,0,0,.15-3l-.13-.15s-.31-.26-.06,0c0,0-.08-.14-.12-.19-.14-.23,0,.14,0,0s0-.29,0-.07,0-.11,0-.14c-.09.15,0,.24,0,.08-.16.44,0,0,0,0l0,.07c-.08.1-.07.11,0,0l.08-.07c-.16.12-.2.15-.1.09l.17-.1c.21-.12.1,0,0,0a2.5,2.5,0,0,0,.51-.16l.51-.13a1.51,1.51,0,0,0,.89-2.2,4.27,4.27,0,0,0-1.6-1.64c-.29-.17-.6-.3-.9-.46a1.92,1.92,0,0,1-.31-.18c-.06,0-.47-.34-.18-.11a6.32,6.32,0,0,1-.6-.56s-.37-.46-.14-.16a1.72,1.72,0,0,0-1-.78,2.35,2.35,0,0,0-2.57,1.13,1.5,1.5,0,0,0,2.59,1.51c0,.07-.39.29-.17.18-.09,0-.51.1-.25.12l-1.3-.74a7.26,7.26,0,0,0,2.17,2.07c.36.21.75.36,1.11.57.07,0,.33.26.09,0l.22.2c.06.07.18.27,0,0,.06.1.13.2.18.3l.9-2.2c-1.61.36-3.15,1.21-3.33,3a3.21,3.21,0,0,0,.83,2.42c.09.11.19.21.29.31s0,0-.06-.07l-.13-.48.31-.76a.83.83,0,0,1,.37-.2s.38,0,.13,0a.84.84,0,0,1,.35.07l-.1-.06c.13.1.15.12.07,0a4.63,4.63,0,0,0-2.07-1.52,3.13,3.13,0,0,0-.75-.08c-.11,0-.39.05-.49,0s.18,0,.24,0,.3.23.17.11.16.21,0,0,.1.27,0,0c.07.23,0,.11,0,0v-.27a4.55,4.55,0,0,1,0-.53c0-.08,0-.6,0-.23a2.8,2.8,0,0,1,.12-.56s.1-.29,0-.11,0,0,0-.08.17-.24,0-.08,0,0,.07-.06-.22.11,0,0l.14-.08c0,.07-.28.08,0,0-.2,0-.25,0-.14,0s0,0-.19,0l-.41-.53c-.3-.61-.44-.75-.41-.43a1.73,1.73,0,0,0,.16.67,1.63,1.63,0,0,0,1,.92,4.5,4.5,0,0,0,1.27.06l.26,0c.07,0,.45.08.11,0l.57.12.55.17h0l.35.17.75-2.8a4.26,4.26,0,0,0-2.89,1.3,5.44,5.44,0,0,0-1.68,2.47,2.74,2.74,0,0,0,1.14,3.07,2.35,2.35,0,0,0,3.18-.78,1.5,1.5,0,0,0-.89-2.2,8.36,8.36,0,0,1-1-.27c-.15-.07-.15-.06,0,0l-.17-.08-.38-.21a3.13,3.13,0,0,1-.42-.29c.3.23-.1-.1-.15-.15s-.23-.35-.06-.06l-.12-.2c.07.19.08.2,0,0s0-.14,0,.07c0-.17,0-.15,0,.07a.37.37,0,0,1,0-.15c0-.11,0-.07,0,.12.08-.14.07-.13-.06,0l.15-.16c.12-.1.1-.09-.06,0l.19-.12c.15-.07.13-.06-.07,0l.13,0c.07,0,.61-.12.27-.08a10,10,0,0,1,1.1,0,1.5,1.5,0,0,0,.4-2.94c-2.18-.52-3.24,1.69-3.89,3.35l1.85-1c-.16,0-.12,0,.1.07s.21.18.1.07c.14.19.16.21.08.08.09.21.11.25.06.09q0,.38,0,.12c0,.25,0,.29,0,.11-.09.19-.09.21,0,.06s.08-.12,0,0,.18-.15.2-.17c-.15.12-.16.13,0,0l.21-.13.22-.13c-.16.07-.16.07,0,0s.16,0,0,0h.26a1.51,1.51,0,0,0,1.5-1.5,1.54,1.54,0,0,0-1.5-1.5Z"/><path d="M107.62,102a4.7,4.7,0,0,0,.26-1.28,5.23,5.23,0,0,0-.09-1.31l-.15-.36a1.31,1.31,0,0,0-.39-.42.69.69,0,0,0-.33-.19,1.06,1.06,0,0,0-.58-.13l-.4,0-.36.15a1.31,1.31,0,0,0-.42.39,1.14,1.14,0,0,0-.27.51,10.12,10.12,0,0,0-.11,2.13,1.25,1.25,0,0,0,.13.57,1.21,1.21,0,0,0,.31.49,1.24,1.24,0,0,0,.48.31,1.29,1.29,0,0,0,.58.13,1.54,1.54,0,0,0,1.06-.44,1.47,1.47,0,0,0,.44-1.06,8.36,8.36,0,0,1,0-1.66l0,.39v-.06h-2.9l0,.16,0-.4a4.31,4.31,0,0,1,0,.88l0-.4a3.18,3.18,0,0,1-.19.75,1.22,1.22,0,0,0,0,.6,1.34,1.34,0,0,0,.57,1,1.14,1.14,0,0,0,.51.27,1.49,1.49,0,0,0,1.15-.15l.31-.24a1.57,1.57,0,0,0,.38-.66Z"/></g></g></svg>