<svg xmlns="http://www.w3.org/2000/svg" viewBox="0 0 199 199"><g id="background"><rect x="3" y="3" width="193" height="193" rx="19.6" fill="#fff"/><path d="M176.4,6A16.62,16.62,0,0,1,193,22.6V176.4A16.62,16.62,0,0,1,176.4,193H22.6A16.62,16.62,0,0,1,6,176.4V22.6A16.62,16.62,0,0,1,22.6,6H176.4m0-6H22.6A22.6,22.6,0,0,0,0,22.6V176.4A22.6,22.6,0,0,0,22.6,199H176.4A22.6,22.6,0,0,0,199,176.4V22.6A22.6,22.6,0,0,0,176.4,0Z"/></g><g id="man"><g id="head"><circle cx="100" cy="51" r="25" fill="#fff"/><path d="M100,28A23,23,0,1,1,77,51a23,23,0,0,1,23-23m0-4a27,27,0,1,0,27,27,27,27,0,0,0-27-27Z"/></g><g id="torso"><path d="M99.48,75.75a220.17,220.17,0,0,0-4.94,25.72,122.2,122.2,0,0,0-.45,24.11c.4,5.14,1.1,10.24,2,15.32.33,1.9,3.22,1.09,2.9-.8a144,144,0,0,1-2.26-25.38,131.86,131.86,0,0,1,2.45-23.44c.93-4.94,2-9.85,3.23-14.74.46-1.87-2.44-2.67-2.89-.79Z"/></g><g id="arms"><path d="M56.53,105.34l-9.67-3.08a53.38,53.38,0,0,1-7.8-2.73c-1.82-.9-3.78-2.17-4.36-4.24-.65-2.35.84-4.66,2.7-6,2.44-1.73,5.64-2,8.53-2,3.24-.09,6.48-.11,9.72-.12,6.4,0,12.81,0,19.2.44a139.89,139.89,0,0,1,21.86,2.94c1.89.42,2.69-2.47.8-2.89-14.2-3.15-28.8-3.6-43.3-3.48-3.42,0-6.88-.05-10.3.21-3.18.25-6.4,1-8.92,3a8.94,8.94,0,0,0-3.44,6.94,8.38,8.38,0,0,0,3.7,6.39c2.42,1.8,5.37,2.7,8.21,3.6l12.28,3.9c1.84.58,2.63-2.31.79-2.89Z"/><path d="M121.06,105.78q9.73-2.53,19.4-5.28c3.79-1.08,13-2.42,10.94-8.46-1.73-5.08-7.67-7.42-12.53-8a67,67,0,0,0-9.71-.11c-3.18.08-6.35.17-9.52.34A114.86,114.86,0,0,0,98.12,87.2c-1.87.47-1.08,3.37.8,2.9,11.09-2.77,22.62-3,34-3.25,4.85-.09,10.46.08,14.08,3.81.68.71,1.79,2,1.7,3-.07.82-.95,1.31-1.6,1.64-2.25,1.15-5,1.61-7.43,2.29q-9.66,2.76-19.4,5.29c-1.86.48-1.07,3.38.8,2.89Z"/></g><g id="band"><path d="M118,38.6l.06-.17-.69.9-1-1.6H116a6.33,6.33,0,0,0-1.15-.05l-2.24-.11-4.73-.24-9.71-.47L79,35.93c-1.93-.1-1.92,2.9,0,3l26.15,1.28,6.48.32c1.73.08,4,.58,5.66,0a2.09,2.09,0,0,0,1.16-3.32,1.91,1.91,0,0,0-3.34.55c-.7,1.8,2.2,2.58,2.9.8Z"/><path d="M75.6,44.28c16,3,32.54,6,48.68,2.21,1.87-.44,1.08-3.33-.8-2.89-15.58,3.65-31.64.69-47.08-2.21-1.88-.36-2.69,2.54-.8,2.89Z"/></g><g id="legs"><path d="M78.41,185.08c0,2.33,2.91,2.56,3.93.75A27.84,27.84,0,0,0,84.51,179c1.15-4.74,1.81-9.58,2.74-14.36,1.58-8.24,4.19-16.85,10.93-22.35,1.5-1.22-.64-3.33-2.12-2.12-5.87,4.79-9,12-10.75,19.24-1,4.1-1.63,8.28-2.38,12.44-.39,2.12-.8,4.25-1.31,6.35q-.37,1.57-.84,3.12c-.18.59-.37,1.18-.57,1.76-.1.3-.2.59-.31.88-.39.66,0,.77,1.07.34l.44,1.06v-.23a1.5,1.5,0,0,0-3,0Z"/><path d="M122.15,186.57q-2.5-12.34-5-24.69c-1.39-6.85-2.75-14.52-8.32-19.34a13.61,13.61,0,0,0-10.12-3.61c-1.9.19-1.92,3.19,0,3,3.93-.39,7.47,1.69,9.9,4.67,2.73,3.36,3.88,7.75,4.78,11.89,2.09,9.59,3.91,19.25,5.85,28.87.39,1.89,3.28,1.09,2.9-.79Z"/></g><g id="dumbbell"><path d="M46.7,118.07q6.9-7.56,14.13-14.8a1.5,1.5,0,0,0-2.12-2.12Q51.48,108.4,44.58,116c-1.3,1.43.81,3.55,2.12,2.12Z"/><path d="M42.24,111c-.58,1.35-1.12,2.72-1.59,4.11a21.76,21.76,0,0,0-1,3.7,4.29,4.29,0,0,0,.89,3.69,3.63,3.63,0,0,0,3.73.82c2.65-.88,3.6-4,3.91-6.5a13,13,0,0,0-.16-4,10.81,10.81,0,0,0-.48-1.75,5.44,5.44,0,0,0-1-1.95,2.38,2.38,0,0,0-3.8.73,15.75,15.75,0,0,0-1.37,4c-.53,2-1.07,4.57.21,6.46a3.24,3.24,0,0,0,3,1.47,5.69,5.69,0,0,0,3.5-2.16c1.69-1.84,3.15-4.29,2.39-6.87a4.33,4.33,0,0,0-5.64-3.12A8.5,8.5,0,0,0,40,115.11c-.68,2.31-.37,5.2,1.48,6.91a4.63,4.63,0,0,0,6.34,0,5.29,5.29,0,0,0,1.19-3.7,17.94,17.94,0,0,0-.24-4.14,3.24,3.24,0,0,0-2.88-2.58,3.94,3.94,0,0,0-3.47,1.75,9.05,9.05,0,0,0-1.36,3.7c-.25,1.37-.59,3.18.08,4.47a2.67,2.67,0,0,0,3.41,1.22,5.19,5.19,0,0,0,2.68-2.52,11.37,11.37,0,0,0,1.17-7.61,2.73,2.73,0,0,0-2.7-2.45c-1.51.08-2.38,1.54-2.94,2.77a12.67,12.67,0,0,0-1.11,4.1,3.19,3.19,0,0,0,1.43,3.28,3.64,3.64,0,0,0,3.14.08,3.9,3.9,0,0,0,2.25-2.71,9.56,9.56,0,0,0-.07-4,1.52,1.52,0,0,0-1.85-1,1.54,1.54,0,0,0-1,1.85,6.69,6.69,0,0,1,.12,2.17,2.35,2.35,0,0,1-.11.44s-.3.47-.1.23c-.07.08-.28.25-.08.11-.09.07-.48.23-.21.14l-.38.1c.29-.06,0,0-.16,0s.07,0,.09,0l-.17,0c-.16-.09.09,0,.09,0-.26-.26.14.13,0,0s0,0,.06.08,0-.11,0-.08,0,.07,0,.07,0-.25,0-.37a7.08,7.08,0,0,1,.17-1.2,9.33,9.33,0,0,1,.83-2.32c.18-.34.4-.58.53-.82s.07,0-.14,0a1,1,0,0,1-.49,0s-.09-.09-.12-.1,0,.12,0,.06a8.34,8.34,0,0,1-.25,4.46,5.93,5.93,0,0,1-.4,1q-.12.26-.27.51c-.06.11-.13.22-.2.33s-.15.18,0,.07a1.72,1.72,0,0,1-.64.54c-.15.08,0,0,0,0a.65.65,0,0,0-.21.06c-.11.1,0,0,.12,0l.21.11c.16.06,0,.17.06,0a3.73,3.73,0,0,0,0-.43,13,13,0,0,1,.1-1.39,10.11,10.11,0,0,1,.67-2.65c.26-.6.57-1,1.1-1.08-.23,0,.24,0,0,0,.16,0,.17.08,0,0a.38.38,0,0,1,.14.21c0,.06.08.34.1.48s.05.76.06,1.08c0,.52,0,1,0,1.57a8.41,8.41,0,0,1,0,1.33,2.42,2.42,0,0,1-.12.46c0,.05-.17.3,0,.13-.06.07-.33.31-.26.26s-.32.16-.16.08l-.08,0-.28.07s-.24,0-.08,0-.14,0-.16,0h-.22s-.25,0-.09,0-.13,0-.16,0l-.22-.06s-.22-.09-.09,0-.08,0-.08,0c-.23-.14-.18-.08-.32-.22a2.81,2.81,0,0,1-.85-1.6,5.34,5.34,0,0,1,0-1.87,5.93,5.93,0,0,1,2.17-3.5,4.58,4.58,0,0,1,.8-.48,3.33,3.33,0,0,1,.53-.15s.5.07.25,0a1.3,1.3,0,0,1,.91.78,2,2,0,0,1,.11.2c0-.07-.06-.21,0,.07l.12.44s0,.25,0,.1,0,.1,0,.11,0,.53,0,.39a4.63,4.63,0,0,1-.93,2.1,10.33,10.33,0,0,1-1.6,1.77,2.23,2.23,0,0,1-.7.46c-.15,0-.09,0-.05,0h-.14c.11,0-.07,0-.09,0,.18,0,.12.06,0,0s0,0,.06,0l-.13-.12c-.1-.14,0,0,0,.06a2.53,2.53,0,0,1-.13-.22c-.14-.21,0,.13-.05-.12s-.1-.36-.14-.54,0,.11,0-.17,0-.29,0-.44a4.36,4.36,0,0,1,0-.51,1.8,1.8,0,0,1,0-.22c0,.16,0,.11,0,0,.19-1,.41-1.89.69-2.82.13-.46.28-.92.44-1.37.08-.24.16-.49.26-.73,0,0,.17-.15.18-.32,0,.29-.66.12-.86.08s-.21-.19-.07.1a9,9,0,0,1,.41,1.13,9.59,9.59,0,0,1,.4,2.49,8.41,8.41,0,0,1-1.1,4.76,2.22,2.22,0,0,1-.54.56,1,1,0,0,1-.66.2h-.13c-.06,0-.08,0-.18-.13.15.13-.09-.19,0,0a1.87,1.87,0,0,1-.07-.22s-.05-.3,0-.18a5.23,5.23,0,0,1,0-.71c.08-.42.19-.83.3-1.23.27-1,.58-1.93.91-2.88s.65-1.78,1-2.65a1.57,1.57,0,0,0-.54-2.06,1.51,1.51,0,0,0-2,.54Z"/><path d="M60.29,94.69c-1,2.57-1.81,5.37-.67,8A5.14,5.14,0,0,0,65.53,106c2.67-.67,4.2-3.22,4.53-5.8a9.49,9.49,0,0,0-1.46-6.89,3.72,3.72,0,0,0-2.92-1.51,4.24,4.24,0,0,0-3.32,2,16.73,16.73,0,0,0-1.79,3.56,34.64,34.64,0,0,0-1.35,3.82c-.61,2.12-2.15,6.44.94,7.38,2.54.77,4.61-2.14,5.35-4.16a16.58,16.58,0,0,0,.64-6.61c-.09-1.47-.66-3-2.35-3.14-1.43-.12-2.55,1-3.42,2-1.68,1.94-2.8,4.55-1.48,7s4.53,2.54,6.53.88,2.34-4.65,1.78-7c-.51-2.13-2.19-4.24-4.59-4-2.61.23-4.17,2.81-4.87,5.08-.79,2.57-.19,5.51,2.51,6.59a5.13,5.13,0,0,0,6.32-2.49,5.4,5.4,0,0,0,.63-3.6A3.69,3.69,0,0,0,65,96.24c-2.91-1-4.25,2.79-4.32,5a3.6,3.6,0,0,0,1.77,3.36,2.82,2.82,0,0,0,3.44-.43,3.72,3.72,0,0,0,.48-3.69,1.54,1.54,0,0,0-1.85-1,2.85,2.85,0,0,0-2.1,3.38,1.5,1.5,0,1,0,2.89-.8c.14.82,0,.11-.07.33,0,0-.41.09.08,0l-1.84-1a5.57,5.57,0,0,1,.16.92s.23-.19.21-.17c.22-.18.19.2,0,0,.1.18-.17-.15,0,0-.24-.24-.11-.11-.09-.06a1.18,1.18,0,0,1-.11-.43,5.11,5.11,0,0,1,.52-2.2c0,.09.16-.31.17-.29s0,.07,0,.07-.28,0-.27,0a.24.24,0,0,1-.15-.09c.12.13.14.15.08.05a1.44,1.44,0,0,1,.3,1.1,3.09,3.09,0,0,1-.83,1.67,1.87,1.87,0,0,1-2.79,0c-.69-.95-.11-2.57.35-3.51a5,5,0,0,1,1-1.52,1,1,0,0,1,1.15-.32c-.22-.09.21.12.21.12-.16-.11.09.09.13.12a2,2,0,0,1,.41.58,4.21,4.21,0,0,1,.44,1.61c.07,1.2-.1,2.77-1.19,3.45a1.38,1.38,0,0,1-1.33.18,1.58,1.58,0,0,1-.6-1.16c-.13-1.17,1-2.54,1.88-3.44.08-.07.44-.33.44-.35l-.53-.29c0-.08,0,0,0,.17,0,0,0,.19,0,.18A22.78,22.78,0,0,1,63.2,100a9.71,9.71,0,0,1-.71,3.89,3.85,3.85,0,0,1-1.08,1.43,4.66,4.66,0,0,1-.51.31h0a.53.53,0,0,1,.37.26.09.09,0,0,1,0,.07v-.19c.18-.68.24-1.52.43-2.28.22-1,.49-1.9.8-2.83a23.45,23.45,0,0,1,2.11-4.88c.23-.37.55-.84.92-1s-.06,0,.3,0c-.25,0,.18.13,0,0,0,0,.39.28.21.12,0,0,.31.32.2.18,1,1.18,1,3,.89,4.51s-.84,3.13-2.39,3.48c-1.2.28-2.13-.72-2.49-1.87-.57-1.84.27-3.93.94-5.73a1.5,1.5,0,0,0-2.89-.79Z"/><path d="M128.86,109A90.19,90.19,0,0,0,118.15,99,1.56,1.56,0,0,0,116,99a1.52,1.52,0,0,0,0,2.13,89.29,89.29,0,0,1,10.71,10,1.5,1.5,0,1,0,2.12-2.12Z"/><path d="M110.32,92.26A22.39,22.39,0,0,0,108.43,98c-.3,1.7-.39,3.65.86,5,1.5,1.63,3.76,1.07,5.27-.18a11,11,0,0,0,3-4.75,12.67,12.67,0,0,0,.61-2.5c.18-1.23.11-2.45-1-3.23a3,3,0,0,0-2.92-.2,5.25,5.25,0,0,0-2,1.94,14.22,14.22,0,0,0-2.24,5.21c-.4,2-.37,4.19,1.54,5.35,3.65,2.21,7.33-1.77,8.28-5a5.91,5.91,0,0,0-1-5.46,4.48,4.48,0,0,0-5-1.41,6.14,6.14,0,0,0-3.72,4.11,10.49,10.49,0,0,0-.45,2.78,2.91,2.91,0,0,0,1.28,2.75c1.63,1,3.64-.07,4.61-1.47a5.32,5.32,0,0,0,.61-4.23,4.93,4.93,0,0,0-2.91-3.36,4.23,4.23,0,0,0-5,1.37,3.46,3.46,0,0,0,.87,4.73c1.77,1.13,4,.12,5-1.53a8.6,8.6,0,0,0,.92-2.68,1.5,1.5,0,0,0-2.51-1.45,2.47,2.47,0,0,0-.25,3,2.51,2.51,0,0,0,3.28.86,2.93,2.93,0,0,0,1.52-2.95,3.47,3.47,0,0,0-2-2.63,1.55,1.55,0,0,0-2,.54,1.51,1.51,0,0,0,.54,2c.06,0,.48.31.32.17l.21.21c-.09-.1-.09-.08,0,.07,0-.32,0,.3,0-.06,0-.15,0-.14,0,0a.24.24,0,0,1,.09-.15c-.13.13-.14.14,0,0a.54.54,0,0,1,.22,0,.7.7,0,0,1,.4.2c-.11-.12-.11-.11,0,0s.07.2,0,0a.72.72,0,0,1-.18.64l-2.5-1.46a9.69,9.69,0,0,1-.46,1.65c0,.11-.11.21-.16.31-.19.34.08,0-.16.21a1,1,0,0,1-.22.2c.25-.18-.43.17-.11.06,0,0-.42.15-.22.06h.05c-.18,0-.19,0,0,0l-.14,0c.15.06.15.06,0,0s.39.11,0,0l.09.12a1.13,1.13,0,0,1-.12-.21c.13.24,0,.09,0,0-.09-.38,0,.29,0-.1,0-.15,0-.35,0-.1,0-.07.16-.41,0-.12,0,0,.18-.35.09-.17s.22-.19,0,0a1.45,1.45,0,0,1,.38-.22c-.29.12.57-.07.23-.05h.3c.18,0,.2,0,0,0L112,96l.28.09c-.34-.12,0,0,.07.06s.36.26.08,0l.18.16.23.25c-.19-.22-.06-.09,0,0l.19.3c.06.13.14.31,0,.07.08.21.13.42.19.63s0,.37,0,0c0,.12,0,.24,0,.36s0,.7,0,.31c0,.24-.12.45-.17.68.06-.26.06-.12,0,0s-.12.2-.17.3c-.17.32.14-.13,0,0s-.14.14-.2.22c-.22.24.22-.09-.09.07l-.24.13c.29-.13-.11,0-.15,0,.41-.1-.13,0-.12,0s.45.23.19,0l.12.07c.15.32.2.38.14.21l0-.08c0,.13,0,.11,0-.08s0-.33,0-.5a7,7,0,0,1,.3-1.65,3.67,3.67,0,0,1,.67-1.34c-.15.19.2-.2.18-.19s.15-.15.24-.22c.3-.26-.14,0,.21-.15a3.42,3.42,0,0,1,.42-.23c-.23.1.25-.07.24-.07s.45-.08.26-.06a2.43,2.43,0,0,1,.49,0l.28.1c-.28-.12.14.1.16.11.23.13.11.07,0,0a3.25,3.25,0,0,1,.41.42c-.14-.17,0,0,0,0s.16.26.23.39c.22.4,0-.12.06.13s.07.24.1.36.09.5,0,.19a2.11,2.11,0,0,1,0,.35,2.44,2.44,0,0,1-.08.83,6.22,6.22,0,0,1-1.66,3,2.43,2.43,0,0,1-.45.4c-.11.08-.23.15-.35.22s-.34.15-.16.08a2.21,2.21,0,0,1-.42.12h0a2.94,2.94,0,0,1-.42,0c.3,0-.1,0-.15,0s-.42-.19-.16,0l-.23-.14c.25.16-.07-.07-.11-.12.21.23-.07-.13-.09-.18a3.61,3.61,0,0,1,0-1.26A12.49,12.49,0,0,1,113.91,97a12.21,12.21,0,0,1,1-1.62c.17-.23-.23.22.11-.14a2.65,2.65,0,0,1,.34-.33c-.16.12,0,0,.07,0,.41-.2-.34,0,.06,0s0,0,0,0l-.11,0c.15.09.15.09,0,0-.29-.6-.16-.13-.2.2a13.31,13.31,0,0,1-.39,1.7,9.9,9.9,0,0,1-.72,1.78,9.56,9.56,0,0,1-1,1.59c-.11.12-.22.25-.34.36s-.36.33-.2.2c-.13.1-.28.17-.41.26s0,0-.21.1l-.19,0c-.18,0-.19,0,0,0l-.14,0c.25.15-.27-.19,0,0-.09-.07-.25-.29-.11-.08,0,0-.22-.41-.09-.1a2.91,2.91,0,0,1-.12-.39s-.06-.48,0-.15c0-.15,0-.29,0-.43a6.11,6.11,0,0,1,.06-.86c0,.38,0-.25,0-.26,0-.23.08-.45.13-.67a19.19,19.19,0,0,1,1.45-4.31,1.54,1.54,0,0,0-.54-2,1.51,1.51,0,0,0-2.05.54Z"/><path d="M130.34,106.05a11.24,11.24,0,0,0-5.9,12.77,1.56,1.56,0,0,0,1.44,1.1c3.26.37,5.79-2.48,6.64-5.34a16.51,16.51,0,0,0,.66-4.69c0-1.38-.54-3-2-3.48-1.76-.56-3.14,1.12-4,2.43a9.93,9.93,0,0,0-1.48,4.41,5.08,5.08,0,0,0,.16,2.16,2.56,2.56,0,0,0,2.31,1.75c1.65.09,2.92-1.13,3.83-2.35a9.18,9.18,0,0,0,1.81-4.42,2.52,2.52,0,0,0-3.22-2.7,6.39,6.39,0,0,0-3.38,2.54c-1,1.28-2.32,3-1.82,4.71s2.48,2.21,4.06,1.86a5.81,5.81,0,0,0,3.47-2.5c.8-1.19,1.33-3.12.63-4.45-1-1.87-3.16-1.09-4.58-.3a4.05,4.05,0,0,0-2.28,4.38,2.88,2.88,0,0,0,4.44,1.7,2.8,2.8,0,0,0,1.18-2.5c-.08-1.22-1-2.54-2.38-2.16a1.74,1.74,0,0,0-.75,2.91,1.76,1.76,0,0,0,2.91-1.33,1.53,1.53,0,0,0-1.5-1.5,1.51,1.51,0,0,0-1.5,1.5v.1l.21-.76-.06.09.54-.54.17,0h.79l-.1,0,.66.39-.08-.07.39.66,0-.1v.8l0-.1-.38.66-.14.1-.76.21.1,0-.75-.2.09,0-.54-.54c.06.08.18.11.07,0s0,.23,0,.09-.09.19,0,0,0-.09,0-.13.1-.07.14-.11-.21.09-.09.06.25,0,.07,0,0,0,.07,0c.28.15-.14,0,.08.09,0,0-.15-.14,0,0,0,0,0-.23,0-.07s.07-.44,0-.11c0-.09,0-.19.08-.28-.06.15,0,0,0,0a2.81,2.81,0,0,1,.5-.47,6.55,6.55,0,0,1,.58-.32l.23-.11.18-.08.22-.09c.09,0,.24,0,.18-.06s-.31-.05-.39-.1-.42-.41-.36-.47a1.77,1.77,0,0,0,0,.46c0-.22,0,0,0,.06l-.09.37c0,.08-.19.45-.1.28a3.59,3.59,0,0,1-.27.47,1.27,1.27,0,0,1-.13.19c0-.06.15-.15-.05.06a4.47,4.47,0,0,1-.44.43c.14-.12-.2.14-.26.17s-.46.25-.25.16a3.33,3.33,0,0,1-.51.16l-.23,0c.26,0-.05,0-.11,0h-.22c.27,0,0,0,0,0-.25-.14,0,0,.08.12s.07.27,0,.25.15-.43.17-.49a9.78,9.78,0,0,1,1.47-2.08c.14-.16.3-.32.45-.48l.28-.26s.17-.15,0-.06.09-.06.13-.08l.18-.1c.23-.14.1,0,0,0l.26-.08c.31-.12,0,0,0,0h.07c.11,0,.08,0-.11,0,.24.11-.13-.09-.18-.14s-.14-.39-.18-.41,0,.26,0,.16c-.07.23-.11.48-.18.71a7.33,7.33,0,0,1-1.08,2.19,5.29,5.29,0,0,1-.68.77c-.11.11,0,0,0,0a2.2,2.2,0,0,1-.25.17l-.21.11h0l-.14,0c.11,0,.11,0,.05,0s.09,0,.13.06.16.2.2.22c-.12,0,0-.89,0-1.11a7.46,7.46,0,0,1,.57-2.06,5.89,5.89,0,0,1,1.33-1.93s.09-.06.1-.09l.07-.05-.31.09a.72.72,0,0,1-.35-.11s-.21-.19-.09-.07l0,0c-.1-.14-.13-.17-.07-.07s.08.15.09.16c-.14-.28,0,.15.05.25.08.27,0,.07,0,0,0,.11,0,.22,0,.33s0,.41,0,.61c0,.51-.07,1-.13,1.52a9.62,9.62,0,0,1-.67,2.62,6.25,6.25,0,0,1-.33.63l-.25.36a5.12,5.12,0,0,1-.45.49c-.08.08-.4.34-.32.29-.18.12-.37.23-.56.34a1.48,1.48,0,0,1-.46.17,1.55,1.55,0,0,1-.23.06l-.15,0h0a4.33,4.33,0,0,1-.72,0l1.45,1.1c-.07-.25-.12-.5-.17-.75-.1-.45,0,.27,0-.2l0-.3a9.52,9.52,0,0,1,0-1.6c0-.16,0,.14,0-.12s0-.25.07-.38.11-.5.18-.74a7.46,7.46,0,0,1,.26-.8c0-.09.07-.19.11-.28-.1.22.1-.2.1-.2a7.79,7.79,0,0,1,4-4,1.51,1.51,0,0,0,.53-2,1.55,1.55,0,0,0-2-.54Z"/><path d="M124.7,114.54a4.77,4.77,0,0,0,1,4.54,4.66,4.66,0,0,0,4.7,1.42,8.44,8.44,0,0,0,4.86-13,1.55,1.55,0,0,0-1.7-.69,1.5,1.5,0,0,0-1.1,1.44,21.31,21.31,0,0,1,0,2.26,8.91,8.91,0,0,1-.23,1.85,4.37,4.37,0,0,1-.62,1.61l-.16.24c.07-.09.08-.09,0,0a2.47,2.47,0,0,1-.35.37s-.35.28-.15.14a5.54,5.54,0,0,1-.53.3l1.82,2.36a13.38,13.38,0,0,0,3.18-4.17,11.38,11.38,0,0,0,1.36-5.13,3.39,3.39,0,0,0-2.73-3.24,3.54,3.54,0,0,0-3.94,1.61,1.5,1.5,0,1,0,2.59,1.51s.15-.33.08-.15.11-.12-.09.07c0,0,.32-.18.13-.09s.12,0,.15,0c.24-.12-.13,0,0,0h.3c.28,0-.14-.05,0,0l.29.09c-.35-.11.35.27.05,0,.06,0,.27.17.12.11s-.06-.08,0,0,.05.07,0-.09a2.64,2.64,0,0,1-.08,1.36,10.94,10.94,0,0,1-3.53,6,1.48,1.48,0,0,0-.12,2,1.52,1.52,0,0,0,1.94.38c3.37-1.72,3.66-6,3.47-9.34l-2.79.76a5.45,5.45,0,0,1-2.49,8.39,3.35,3.35,0,0,1-1.08.22,1.63,1.63,0,0,1-.31,0c.15,0,.14,0,0,0s-.42-.18-.19-.06a2.45,2.45,0,0,1-.38-.24c.19.15-.12-.11-.16-.15l-.2-.22c.07.08.07.08,0,0a3,3,0,0,1-.26-.46c.1.22,0-.17-.06-.2s-.06-.47,0-.19a3.38,3.38,0,0,1,0-.45c0,.28.08-.26.1-.33a1.5,1.5,0,1,0-2.89-.79Z"/></g></g></svg>